SplineFontDB: 3.2
FontName: cursive_liparxe
FullName: cursive_liparxe
FamilyName: cursive_liparxe
Weight: Regular
Copyright: 
Version: 
ItalicAngle: 0
UnderlinePosition: 0
UnderlineWidth: 0
Ascent: 800
Descent: 200
InvalidEm: 0
LayerCount: 2
Layer: 0 0 "+gMyXYgAA" 1
Layer: 1 0 "+Uk2XYgAA" 0
HasVMetrics: 1
XUID: [1021 686 -1815988411 26969]
FSType: 0
OS2Version: 0
OS2_WeightWidthSlopeOnly: 0
OS2_UseTypoMetrics: 0
CreationTime: 1721328334
ModificationTime: 1723737622
PfmFamily: 17
TTFWeight: 400
TTFWidth: 5
LineGap: 90
VLineGap: 90
OS2TypoAscent: 0
OS2TypoAOffset: 1
OS2TypoDescent: 0
OS2TypoDOffset: 1
OS2TypoLinegap: 90
OS2WinAscent: 0
OS2WinAOffset: 1
OS2WinDescent: 0
OS2WinDOffset: 1
HheadAscent: 0
HheadAOffset: 1
HheadDescent: 0
HheadDOffset: 1
OS2Vendor: 'PfEd'
MarkAttachClasses: 1
DEI: 91125
LangName: 1033
Encoding: ISO8859-1
UnicodeInterp: none
NameList: AGL For New Fonts
DisplaySize: -48
AntiAlias: 1
FitToEm: 0
WinInfo: 0 38 9
BeginPrivate: 0
EndPrivate
Grid
-1000 54.0428466797 m 0
 2000 54.0428466797 l 1024
-1000 552.716648102 m 0
 2000 552.716648102 l 1024
-1000 -191.17477417 m 0
 2000 -191.17477417 l 1024
-1000 593.599609375 m 0
 2000 593.599609375 l 1024
-1724.5859375 1300 m 0
 -1724.5859375 -700 l 1024
EndSplineSet
BeginChars: 257 57

StartChar: a
Encoding: 97 97 1
Width: 407
VWidth: 804
Flags: W
HStem: 55.2744 49.6797<42.7422 107.707 114.947 172.201> 507.047 50.0879<124.763 265.594>
VStem: -97.6641 48.3262<56.5918 72.2109>
LayerCount: 2
Fore
SplineSet
209.911132812 557.135742188 m 2
 203.12890625 557.283203125 196.251953125 557.04296875 189.322265625 556.438476562 c 0
 159.068359375 553.798828125 127.470703125 544.108398438 98.1259765625 527.381835938 c 1
 96.8427734375 536.845703125 90.212890625 544.637695312 81.380859375 547.57421875 c 0
 78.9384765625 548.379882812 76.3291015625 548.81640625 73.6181640625 548.81640625 c 0
 71.8837890625 548.81640625 70.2041015625 548.643554688 68.5703125 548.303710938 c 0
 59.8671875 546.494140625 52.818359375 540.120117188 50.07421875 531.797851562 c 0
 50.0859375 531.793945312 -96.421875 87.744140625 -96.421875 87.744140625 c 2
 -97.2275390625 85.3017578125 -97.6640625 82.69140625 -97.6640625 79.98046875 c 0
 -97.6640625 69.0087890625 -90.5302734375 59.6953125 -80.6455078125 56.4345703125 c 0
 -78.2041015625 55.62890625 -75.5947265625 55.193359375 -72.8837890625 55.193359375 c 0
 -61.912109375 55.193359375 -52.5986328125 62.326171875 -49.337890625 72.2109375 c 0
 -49.3359375 72.220703125 72.974609375 442.963867188 72.974609375 442.963867188 c 1
 106.012695312 481.995117188 153.265625 503.524414062 193.6328125 507.046875 c 0
 214.370117188 508.856445312 232.97265625 505.893554688 246.502929688 499.6640625 c 0
 260.033203125 493.43359375 268.500976562 484.89453125 273.079101562 472.356445312 c 0
 277.284179688 460.83984375 276.033203125 452.592773438 269.225585938 440.615234375 c 0
 262.418945312 428.63671875 248.826171875 414.629882812 230.815429688 400.91796875 c 0
 194.793945312 373.495117188 142.50390625 347.31640625 98.927734375 323.819335938 c 0
 97.8955078125 323.146484375 96.9306640625 322.411132812 96.0126953125 321.596679688 c 0
 94.927734375 320.89453125 93.916015625 320.12109375 92.9560546875 319.263671875 c 0
 92.1083984375 318.263671875 91.34765625 317.209960938 90.6650390625 316.083984375 c 0
 89.8583984375 315.091796875 89.1357421875 314.045898438 88.48828125 312.935546875 c 0
 88.0087890625 311.762695312 87.607421875 310.515625 87.3115234375 309.26171875 c 0
 86.849609375 308.0703125 86.4697265625 306.805664062 86.1953125 305.533203125 c 0
 86.150390625 304.921875 86.126953125 304.305664062 86.126953125 303.682617188 c 0
 86.126953125 302.991210938 86.1552734375 302.353515625 86.2109375 301.67578125 c 0
 86.185546875 301.216796875 86.1728515625 300.754882812 86.1728515625 300.2890625 c 0
 86.1728515625 299.431640625 86.2158203125 298.627929688 86.30078125 297.79296875 c 0
 86.609375 296.532226562 87.0234375 295.280273438 87.5166015625 294.103515625 c 0
 87.810546875 292.927734375 88.1982421875 291.7578125 88.6533203125 290.654296875 c 0
 88.701171875 290.588867188 88.7470703125 290.524414062 88.794921875 290.459960938 c 0
 88.8212890625 290.384765625 88.8486328125 290.30859375 88.8759765625 290.233398438 c 0
 89.5478515625 289.201171875 90.2841796875 288.236328125 91.09765625 287.318359375 c 0
 91.7998046875 286.233398438 92.5732421875 285.221679688 93.431640625 284.26171875 c 0
 94.419921875 283.423828125 95.4619140625 282.671875 96.57421875 281.995117188 c 0
 97.5791015625 281.177734375 98.638671875 280.444335938 99.7646484375 279.790039062 c 0
 100.922851562 279.318359375 102.153320312 278.921875 103.390625 278.627929688 c 0
 104.594726562 278.161132812 105.874023438 277.776367188 107.161132812 277.500976562 c 0
 107.7734375 277.455078125 108.390625 277.432617188 109.014648438 277.432617188 c 0
 109.704101562 277.432617188 110.341796875 277.4609375 111.018554688 277.516601562 c 0
 111.477539062 277.491210938 111.940429688 277.477539062 112.40625 277.477539062 c 0
 113.263671875 277.477539062 114.067382812 277.521484375 114.90234375 277.606445312 c 0
 116.15625 277.913085938 117.401367188 278.325195312 118.573242188 278.815429688 c 0
 119.755859375 279.111328125 120.932617188 279.5 122.041992188 279.958984375 c 0
 180.297851562 309.9453125 215.250976562 300.663085938 233.919921875 283.771484375 c 0
 252.58984375 266.879882812 257.471679688 238.366210938 243.870117188 214.342773438 c 0
 195.794921875 129.432617188 153.322265625 107.181640625 117.833984375 104.787109375 c 0
 116.887695312 104.897460938 115.923828125 104.954101562 114.947265625 104.954101562 c 0
 113.423828125 104.954101562 111.979492188 104.815429688 110.532226562 104.551757812 c 0
 109.592773438 104.556640625 108.634765625 104.515625 107.70703125 104.543945312 c 0
 70.2861328125 105.708984375 37.1142578125 129.708984375 14.7412109375 143.836914062 c 0
 10.916015625 146.252929688 6.3857421875 147.651367188 1.53125 147.651367188 c 0
 -7.294921875 147.651367188 -15.0615234375 143.069335938 -19.4541015625 136.11328125 c 0
 -21.8701171875 132.288085938 -23.2685546875 127.7578125 -23.2685546875 122.90234375 c 0
 -23.2685546875 114.075195312 -18.6865234375 106.30859375 -11.73046875 101.916015625 c 0
 5.7841796875 90.85546875 49.251953125 56.759765625 106.1640625 54.9873046875 c 0
 110.599609375 54.849609375 115.095703125 54.9580078125 119.633789062 55.2744140625 c 0
 124.467773438 55.00390625 130.442382812 54.9365234375 137.326171875 55.7509765625 c 0
 153.130859375 57.6220703125 174.997070312 63.1796875 202.161132812 76.7890625 c 0
 256.48828125 104.008789062 331.98828125 163.059570312 426.758789062 290.249023438 c 0
 429.8359375 294.37890625 431.658203125 299.498046875 431.658203125 305.0390625 c 0
 431.658203125 313.1796875 427.758789062 320.41796875 421.692382812 324.938476562 c 0
 418.296875 327.46875 414.186523438 329.163085938 409.768554688 329.681640625 c 0
 408.8125 329.793945312 407.83984375 329.8515625 406.853515625 329.8515625 c 0
 398.712890625 329.8515625 391.521484375 325.939453125 387.000976562 319.872070312 c 0
 354.015625 275.603515625 323.82421875 240.490234375 296.529296875 212.471679688 c 1
 307.983398438 250.96484375 297.291992188 293.294921875 267.18359375 320.536132812 c 0
 257.224609375 329.546875 245.330078125 336.583984375 231.868164062 341.319335938 c 1
 241.92578125 347.7890625 251.680664062 354.48828125 260.848632812 361.467773438 c 0
 281.875976562 377.475585938 300.271484375 394.895507812 312.33203125 416.1171875 c 0
 324.392578125 437.338867188 328.889648438 464.064453125 319.65234375 489.361328125 c 0
 310.309570312 514.946289062 290.559570312 533.9609375 267.239257812 544.69921875 c 0
 249.75 552.751953125 230.2578125 556.690429688 209.911132812 557.134765625 c 1
 209.911132812 557.135742188 l 2
EndSplineSet
Validated: 524329
EndChar

StartChar: b
Encoding: 98 98 2
Width: 335
VWidth: 804
Flags: W
HStem: 59.3281 49.5801<-11.807 119.634> 754.219 49.5801<261.961 294.571>
VStem: 183.471 57.6992<177.808 291.727>
LayerCount: 2
Fore
SplineSet
261.9609375 803.798828125 m 0
 239.64453125 803.798828125 224.015625 790.862304688 209.1484375 775.474609375 c 0
 194.28125 760.086914062 179.829101562 739.8984375 164.953125 715.9375 c 0
 135.200195312 668.014648438 104.22265625 604.998046875 74.96875 539.666015625 c 0
 16.4609375 409.001953125 -34.6259765625 269.689453125 -48.505859375 230.27734375 c 0
 -66.123046875 180.251953125 -70.8232421875 140.408203125 -57.326171875 108.171875 c 0
 -43.8291015625 75.935546875 -9.626953125 59.328125 26.736328125 59.328125 c 0
 116.717773438 59.328125 180.760742188 99.1669921875 212.671875 161.9296875 c 0
 231.673828125 199.301757812 240.306640625 243.381835938 241.169921875 291.7265625 c 1
 250.475585938 281.966796875 261.390625 273.454101562 274.982421875 268.087890625 c 0
 298.983398438 258.611328125 330.654296875 265.625976562 354.0390625 289.474609375 c 0
 358.424804688 293.947265625 361.129882812 300.073242188 361.129882812 306.825195312 c 0
 361.129882812 313.754882812 358.283203125 320.03125 353.693359375 324.53125 c 0
 349.220703125 328.916992188 343.094726562 331.622070312 336.342773438 331.622070312 c 0
 329.413085938 331.622070312 323.13671875 328.775390625 318.63671875 324.185546875 c 0
 304.439453125 309.706054688 300.8359375 311.184570312 293.19140625 314.203125 c 0
 285.546875 317.221679688 273.377929688 328.611328125 263.19140625 343.529296875 c 0
 253.004882812 358.447265625 244.396484375 375.85546875 238.673828125 388.185546875 c 0
 235.8125 394.350585938 233.907226562 398.811523438 231.82421875 402.91015625 c 0
 231.303710938 403.934570312 230.842773438 404.89453125 229.693359375 406.666015625 c 0
 229.118164062 407.551757812 228.48828125 408.620117188 226.599609375 410.611328125 c 0
 224.7109375 412.602539062 222.038085938 418.447265625 208.45703125 418.474609375 c 0
 201.666992188 418.48828125 193.604492188 414.376953125 189.8359375 410.150390625 c 0
 186.067382812 405.923828125 185.0703125 402.555664062 184.427734375 400.275390625 c 0
 183.142578125 395.71484375 183.444335938 394.076171875 183.470703125 392.669921875 c 0
 183.524414062 389.857421875 183.772460938 388.771484375 183.984375 387.470703125 c 0
 197.518554688 304.315429688 192.79296875 232.2265625 168.4765625 184.400390625 c 0
 144.16015625 136.57421875 103.322265625 108.908203125 26.736328125 108.908203125 c 0
 2.2392578125 108.908203125 -6.078125 114.149414062 -11.591796875 127.318359375 c 0
 -17.10546875 140.487304688 -17.306640625 169.607421875 -1.740234375 213.80859375 c 0
 5.1015625 233.235351562 21.9052734375 279.349609375 44.31640625 336.814453125 c 0
 45.5771484375 337.362304688 46.7900390625 338.014648438 47.931640625 338.755859375 c 2
 47.931640625 338.755859375 160.841796875 444.799804688 247.4453125 552.36328125 c 0
 290.747070312 606.145507812 327.939453125 659.012695312 341.572265625 706.15234375 c 0
 348.388671875 729.721679688 349.600585938 755.278320312 334.474609375 775.646484375 c 0
 319.348632812 796.014648438 293.192382812 803.798828125 261.9609375 803.798828125 c 0
261.9609375 754.21875 m 1
 285.184570312 754.21875 292.649414062 748.806640625 294.669921875 746.0859375 c 0
 296.690429688 743.365234375 298.57421875 735.938476562 293.943359375 719.927734375 c 0
 284.682617188 687.905273438 250.5078125 635.223632812 208.828125 583.45703125 c 0
 170.809570312 536.237304688 127.295898438 489.190429688 90.81640625 451.44921875 c 1
 100.350585938 474.063476562 110.118164062 496.842773438 120.220703125 519.404296875 c 0
 148.985351562 583.643554688 179.495117188 645.364257812 207.07421875 689.78515625 c 0
 220.86328125 711.99609375 234.038085938 729.880859375 244.8046875 741.0234375 c 0
 255.571289062 752.166015625 263.583007812 754.21875 261.9609375 754.21875 c 1
EndSplineSet
Validated: 524329
EndChar

StartChar: c
Encoding: 99 99 3
Width: 541
VWidth: 804
Flags: W
VStem: 296.586 49.998<-17.8318 92.7658>
LayerCount: 2
Fore
SplineSet
331.974609375 572.459960938 m 0
 354.467773438 573.717773438 377.625976562 568.174804688 396.286132812 553.584960938 c 0
 414.9453125 538.995117188 428.233398438 516.811523438 436.702148438 488.395507812 c 0
 447.524414062 452.081054688 439.502929688 415.62109375 423.8203125 383.978515625 c 0
 408.137695312 352.3359375 384.786132812 324.180664062 360.81640625 300.060546875 c 0
 329.946289062 268.998046875 302.99609375 248.703125 283.778320312 235.15234375 c 1
 298.768554688 215.1796875 310.759765625 195.337890625 320.1640625 175.735351562 c 1
 376.26953125 217.426757812 440.752929688 263.64453125 516.780273438 316.072265625 c 0
 520.809570312 318.8515625 525.702148438 320.517578125 530.961914062 320.517578125 c 0
 539.500976562 320.517578125 547.045898438 316.227539062 551.556640625 309.686523438 c 0
 554.333984375 305.659179688 556 300.767578125 556 295.508789062 c 0
 556 286.967773438 551.708007812 279.420898438 545.1640625 274.911132812 c 0
 464.077148438 218.995117188 396.565429688 170.270507812 338.412109375 126.66796875 c 1
 344.071289062 105.248046875 346.8671875 84.25390625 346.583984375 63.958984375 c 0
 345.739257812 3.837890625 320.625976562 -48.9404296875 285.852539062 -90.8173828125 c 0
 251.079101562 -132.694335938 206.649414062 -164.3515625 163.594726562 -184.419921875 c 0
 120.538085938 -204.48828125 79.6533203125 -214.677734375 44.5830078125 -205.28125 c 0
 34.83984375 -202.669921875 24.58203125 -198.59375 15.4541015625 -190.465820312 c 0
 6.326171875 -182.336914062 -0.669921875 -169.23046875 -1.5830078125 -155.357421875 c 0
 -3.4091796875 -127.611328125 11.3359375 -100.872070312 42.125 -64.0732421875 c 0
 82.5654296875 -15.7373046875 155.93359375 51.0810546875 279.4453125 145.0859375 c 1
 268.657226562 170.063476562 252.412109375 196.391601562 228.6953125 224.182617188 c 0
 224.970703125 228.548828125 222.689453125 234.208984375 222.689453125 240.391601562 c 0
 222.689453125 249.295898438 227.354492188 257.120117188 234.372070312 261.549804688 c 2
 234.372070312 261.549804688 282.206054688 291.884765625 325.353515625 335.301757812 c 0
 346.927734375 357.010742188 366.973632812 381.87890625 379.01953125 406.182617188 c 0
 391.065429688 430.487304688 395.110351562 452.899414062 388.786132812 474.118164062 c 0
 382.34765625 495.720703125 373.837890625 507.666992188 365.48828125 514.1953125 c 0
 357.139648438 520.72265625 348.067382812 523.288085938 334.765625 522.543945312 c 0
 308.161132812 521.055664062 267.424804688 501.668945312 225.735351562 472 c 0
 142.354492188 412.663085938 54.3173828125 317.502929688 15.7646484375 278.026367188 c 0
 11.2236328125 273.375976562 4.8798828125 270.490234375 -2.126953125 270.490234375 c 0
 -8.91796875 270.490234375 -15.080078125 273.204101562 -19.5869140625 277.60546875 c 0
 -24.2373046875 282.146484375 -27.123046875 288.490234375 -27.123046875 295.497070312 c 0
 -27.123046875 302.288085938 -24.4091796875 308.450195312 -20.0087890625 312.95703125 c 0
 16.8798828125 350.729492188 106.4609375 448.489257812 196.74609375 512.740234375 c 0
 241.888671875 544.866210938 286.990234375 569.944335938 331.974609375 572.459960938 c 0
294.083984375 93.220703125 m 1
 181.001953125 6.1044921875 114.897460938 -55.0107421875 80.474609375 -96.154296875 c 0
 53.1533203125 -128.809570312 48.0771484375 -148.640625 48.3037109375 -152.072265625 c 0
 48.4150390625 -153.788085938 47.9169921875 -152.420898438 48.7021484375 -153.12109375 c 0
 49.48828125 -153.8203125 52.568359375 -155.661132812 57.5234375 -156.98828125 c 0
 70.970703125 -160.591796875 105.872070312 -156.163085938 142.474609375 -139.102539062 c 0
 179.077148438 -122.041992188 218.173828125 -94.0556640625 247.385742188 -58.8759765625 c 0
 276.598632812 -23.6962890625 295.930664062 17.9951171875 296.5859375 64.66015625 c 0
 296.715820312 73.8583984375 295.490234375 83.515625 294.083984375 93.220703125 c 1
EndSplineSet
Validated: 524325
EndChar

StartChar: d
Encoding: 100 100 4
Width: 593
VWidth: 804
Flags: W
HStem: 58.0098 49.5488<0.820953 16.6494 193.311 247.635>
VStem: -56.6416 49.5752<116.521 283.03> 55.1123 47.4004<539.445 551.752> 135.848 49.5762<116.521 167.721> 247.602 47.4023<539.447 551.752>
LayerCount: 2
Fore
SplineSet
474.649414062 555.021484375 m 1
 474.012695312 555.0703125 473.370117188 555.095703125 472.721679688 555.095703125 c 0
 471.157226562 555.095703125 469.670898438 554.94921875 468.185546875 554.671875 c 0
 459.424804688 553.033203125 452.267578125 546.788085938 449.362304688 538.54296875 c 0
 426.068359375 472.43359375 388.037109375 372.28515625 356.80859375 283.919921875 c 0
 352.602539062 272.01953125 348.5546875 260.395507812 344.64453125 249.025390625 c 0
 343.134765625 247.747070312 341.805664062 246.319335938 340.63671875 244.71875 c 2
 340.63671875 244.71875 317.97265625 208.099609375 288.421875 172.173828125 c 0
 273.646484375 154.2109375 257.138671875 136.569335938 242.08203125 124.4453125 c 0
 227.025390625 112.321289062 213.614257812 107.397460938 209.138671875 107.55859375 c 0
 198.974609375 107.924804688 197.088867188 109.66015625 193.126953125 116.208984375 c 0
 189.165039062 122.7578125 185.668945312 136.399414062 185.423828125 154.947265625 c 0
 184.934570312 192.04296875 196.196289062 246.544921875 212.1015625 300.92578125 c 0
 243.913085938 409.688476562 292.8515625 519.181640625 292.8515625 519.181640625 c 2
 294.235351562 522.270507812 295.00390625 525.692382812 295.00390625 529.29296875 c 0
 295.00390625 539.374023438 289.006835938 548.064453125 280.360351562 551.9375 c 0
 277.271484375 553.321289062 273.848632812 554.090820312 270.247070312 554.090820312 c 0
 269.381835938 554.090820312 268.532226562 554.059570312 267.690429688 553.97265625 c 0
 258.716796875 553.049804688 251.142578125 547.3515625 247.6015625 539.447265625 c 2
 247.6015625 539.447265625 202.068359375 437.887695312 169.110351562 330.078125 c 0
 167.188476562 326.131835938 139.881835938 270.250976562 105.37890625 213.873046875 c 0
 87.4990234375 184.657226562 67.7685546875 155.68359375 50.0302734375 135.3359375 c 0
 41.16015625 125.162109375 32.73046875 117.192382812 26.25390625 112.5859375 c 0
 19.77734375 107.979492188 15.8095703125 107.588867188 16.6494140625 107.55859375 c 1
 6.4853515625 107.924804688 4.5986328125 109.66015625 0.63671875 116.208984375 c 0
 -3.3251953125 122.7578125 -6.8212890625 136.399414062 -7.06640625 154.947265625 c 0
 -7.5556640625 192.04296875 3.7041015625 246.544921875 19.6103515625 300.92578125 c 0
 51.4208984375 409.688476562 100.360351562 519.181640625 100.360351562 519.181640625 c 2
 101.743164062 522.270507812 102.512695312 525.692382812 102.512695312 529.293945312 c 0
 102.512695312 539.374023438 96.515625 548.064453125 87.869140625 551.9375 c 0
 84.7802734375 553.321289062 81.357421875 554.090820312 77.755859375 554.090820312 c 0
 76.890625 554.090820312 76.041015625 554.059570312 75.19921875 553.97265625 c 0
 66.2255859375 553.048828125 58.65234375 547.350585938 55.1123046875 539.4453125 c 2
 55.1123046875 539.4453125 5.1552734375 428.122070312 -27.9755859375 314.84375 c 0
 -44.5419921875 258.204101562 -57.263671875 201.379882812 -56.6416015625 154.29296875 c 0
 -56.33203125 130.749023438 -52.9990234375 109.084960938 -41.783203125 90.544921875 c 0
 -30.5673828125 72.0048828125 -8.92578125 58.8671875 14.8642578125 58.009765625 c 0
 30.7548828125 57.4375 43.587890625 64.0751953125 54.9892578125 72.18359375 c 0
 66.388671875 80.2919921875 76.9150390625 90.7236328125 87.4033203125 102.75390625 c 0
 104.158203125 121.973632812 120.625976562 145.420898438 136.119140625 169.6328125 c 1
 135.895507812 164.424804688 135.782226562 159.29296875 135.84765625 154.29296875 c 0
 136.159179688 130.749023438 139.491210938 109.084960938 150.70703125 90.544921875 c 0
 161.923828125 72.0048828125 183.565429688 58.8671875 207.353515625 58.009765625 c 0
 232.984375 57.0859375 253.809570312 70.234375 273.17578125 85.828125 c 0
 284.451171875 94.90625 295.223632812 105.4453125 305.491210938 116.470703125 c 1
 303.612304688 106.979492188 302.369140625 99.052734375 304.833984375 88.001953125 c 0
 306.603515625 80.068359375 309.244140625 71.248046875 317.853515625 63.38671875 c 0
 326.463867188 55.525390625 340.66015625 53.2568359375 350.251953125 55.375 c 0
 369.436523438 59.611328125 382.047851562 70.8203125 402.09375 88.220703125 c 0
 442.185546875 123.020507812 504.5078125 187.083007812 607.403320312 289.978515625 c 0
 611.890625 294.465820312 614.666992188 300.663085938 614.666992188 307.50390625 c 0
 614.666992188 314.345703125 611.890625 320.549804688 607.403320312 325.037109375 c 0
 602.916015625 329.524414062 596.717773438 332.301757812 589.876953125 332.301757812 c 0
 583.036132812 332.301757812 576.831054688 329.524414062 572.34375 325.037109375 c 0
 469.268554688 221.961914062 406.010742188 157.272460938 369.59375 125.662109375 c 0
 364.456054688 121.202148438 359.877929688 117.66796875 355.737304688 114.64453125 c 1
 357.724609375 124.301757812 360.905273438 136.771484375 365.20703125 151.513671875 c 0
 374.377929688 182.9375 388.088867188 223.6328125 403.556640625 267.400390625 c 0
 434.4921875 354.934570312 472.427734375 454.815429688 496.123046875 522.06640625 c 0
 497.030273438 524.642578125 497.524414062 527.413085938 497.524414062 530.297851562 c 0
 497.524414062 541.094726562 490.622070312 550.288085938 480.98046875 553.685546875 c 0
 478.984375 554.388671875 476.841796875 554.852539062 474.649414062 555.021484375 c 1
EndSplineSet
Validated: 524325
EndChar

StartChar: e
Encoding: 101 101 5
Width: 457
VWidth: 804
Flags: W
HStem: 58.0059 49.5566<19.4245 94.6691>
VStem: -40.4756 49.5293<118.756 278.349> 84.835 46.8037<540.686 551.146> 170.641 48.75<113.423 128.286> 345.13 47.0332<540.23 551.378>
LayerCount: 2
Fore
SplineSet
105.698242188 554.076171875 m 0
 96.60546875 553.6484375 88.78515625 548.336914062 84.8349609375 540.685546875 c 2
 84.8349609375 540.685546875 27.181640625 429.280273438 -10.0107421875 315.591796875 c 0
 -28.60546875 258.747070312 -42.634765625 201.661132812 -40.4755859375 153.5078125 c 0
 -39.3955078125 129.430664062 -34.2568359375 106.694335938 -20.1962890625 88.314453125 c 0
 -6.1357421875 69.9345703125 17.29296875 58.783203125 43.5625 58.005859375 c 0
 70.5771484375 57.2060546875 94.841796875 69.228515625 117.607421875 84.583984375 c 0
 136.426757812 97.279296875 154.26953125 112.956054688 170.640625 129.029296875 c 1
 168.924804688 111.797851562 170.001953125 98.88671875 172.168945312 89.173828125 c 0
 173.939453125 81.240234375 176.577148438 72.4208984375 185.1875 64.55859375 c 0
 193.795898438 56.6962890625 207.993164062 54.4287109375 217.584960938 56.546875 c 0
 236.770507812 60.783203125 249.380859375 71.990234375 269.426757812 89.390625 c 0
 309.518554688 124.190429688 371.83984375 188.254882812 474.735351562 291.150390625 c 0
 479.22265625 295.637695312 482 301.834960938 482 308.67578125 c 0
 482 315.517578125 479.22265625 321.721679688 474.735351562 326.208984375 c 0
 470.248046875 330.6953125 464.05078125 333.471679688 457.2109375 333.471679688 c 0
 450.370117188 333.471679688 444.166015625 330.6953125 439.678710938 326.208984375 c 0
 336.604492188 223.133789062 273.34375 158.444335938 236.926757812 126.833984375 c 0
 230.0859375 120.895507812 224.331054688 116.677734375 219.390625 113.251953125 c 1
 219.440429688 130.827148438 224.546875 163.908203125 249.545898438 221.880859375 c 0
 287.915039062 310.85546875 389.64453125 518.396484375 389.64453125 518.396484375 c 2
 391.256835938 521.684570312 392.163085938 525.381835938 392.163085938 529.2890625 c 0
 392.163085938 539.064453125 386.530273438 547.53515625 378.301757812 551.5703125 c 0
 375.013671875 553.18359375 371.31640625 554.088867188 367.409179688 554.088867188 c 0
 366.838867188 554.088867188 366.272460938 554.084960938 365.711914062 554.046875 c 0
 356.662109375 553.43359375 348.930664062 547.977539062 345.129882812 540.23046875 c 2
 345.129882812 540.23046875 245.825195312 337.87890625 205.254882812 244.29296875 c 0
 201.609375 239.325195312 177.549804688 206.918945312 145.262695312 173.70703125 c 0
 127.780273438 155.723632812 108.208984375 138.049804688 89.8818359375 125.6875 c 0
 71.5556640625 113.325195312 54.67578125 107.27734375 45.0263671875 107.5625 c 0
 29.943359375 108.008789062 24.3154296875 111.729492188 19.18359375 118.4375 c 0
 14.05078125 125.145507812 9.8623046875 137.715820312 9.0537109375 155.73046875 c 0
 7.4384765625 191.759765625 19.390625 246 37.1123046875 300.17578125 c 0
 72.55859375 408.528320312 128.892578125 517.943359375 128.892578125 517.943359375 c 2
 130.647460938 521.34375 131.638671875 525.201171875 131.638671875 529.2890625 c 0
 131.638671875 538.8828125 126.216796875 547.221679688 118.235351562 551.341796875 c 0
 114.834960938 553.09765625 110.9765625 554.088867188 106.888671875 554.088867188 c 0
 106.4921875 554.088867188 106.08984375 554.094726562 105.698242188 554.076171875 c 0
EndSplineSet
Validated: 524329
EndChar

StartChar: f
Encoding: 102 102 6
Width: 522
VWidth: 804
Flags: W
HStem: -190.766 49.543<146.584 297.512>
VStem: 247.684 49.5234<451.826 503.433> 447.135 49.5605<334.598 502.605>
LayerCount: 2
Fore
SplineSet
423.787109375 556.375 m 0
 413.48828125 556.51953125 402.935546875 554.953125 392.73828125 552.18359375 c 0
 374.12109375 547.127929688 361.1640625 535.108398438 346.86328125 519.94140625 c 0
 332.561523438 504.774414062 317.858398438 485.560546875 302.625976562 463.447265625 c 0
 300.024414062 459.668945312 297.348632812 455.376953125 294.720703125 451.4375 c 1
 295.936523438 459.737304688 296.846679688 467.798828125 297.20703125 475.43359375 c 0
 298.072265625 493.771484375 296.828125 510.630859375 288.392578125 526.1796875 c 0
 279.956054688 541.728515625 260.817382812 553.048828125 242.115234375 553.048828125 c 0
 226.9453125 553.048828125 215.657226562 547.290039062 203.466796875 540.21484375 c 0
 191.275390625 533.139648438 178.62109375 523.842773438 165.30078125 512.9765625 c 0
 138.66015625 491.243164062 109.560546875 463.178710938 82.228515625 435.208984375 c 0
 27.564453125 379.26953125 -19.90234375 323.59375 -19.90234375 323.59375 c 2
 -23.5947265625 319.264648438 -25.82421875 313.651367188 -25.82421875 307.520507812 c 0
 -25.82421875 299.969726562 -22.4609375 293.1953125 -17.12890625 288.646484375 c 0
 -12.798828125 284.954101562 -7.185546875 282.723632812 -1.0546875 282.723632812 c 0
 6.4970703125 282.723632812 13.2724609375 286.086914062 17.8203125 291.419921875 c 2
 17.8203125 291.419921875 64.4921875 346.122070312 117.6875 400.55859375 c 0
 144.28515625 427.776367188 172.543945312 454.900390625 196.640625 474.55859375 c 0
 208.688476562 484.387695312 219.74609375 492.336914062 228.35546875 497.333984375 c 0
 236.965820312 502.331054688 243.565429688 503.46875 242.115234375 503.46875 c 1
 246.774414062 503.46875 243.551757812 504.86328125 244.814453125 502.53515625 c 0
 246.077148438 500.20703125 248.318359375 491.237304688 247.68359375 477.76953125 c 0
 246.413085938 450.833984375 235.677734375 408.063476562 219.533203125 361.30859375 c 0
 201.298828125 308.5 176.49609375 250.163085938 152.3125 197.669921875 c 0
 121.896484375 137.129882812 100.31640625 91.255859375 100.31640625 91.255859375 c 2
 100.193359375 90.6796875 100.08984375 90.087890625 100.0078125 89.498046875 c 0
 98.96875 86.7646484375 98.400390625 83.80078125 98.400390625 80.705078125 c 0
 98.400390625 80.5712890625 98.392578125 80.4326171875 98.39453125 80.298828125 c 0
 98.4365234375 79.095703125 98.5654296875 77.921875 98.7734375 76.767578125 c 0
 99.28515625 73.8515625 100.323242188 71.060546875 101.759765625 68.58984375 c 0
 102.1796875 67.6953125 102.655273438 66.826171875 103.17578125 65.994140625 c 0
 105.326171875 63.033203125 108.077148438 60.6044921875 111.302734375 58.833984375 c 0
 111.518554688 58.767578125 111.741210938 58.701171875 111.958984375 58.640625 c 0
 112.0859375 58.5322265625 112.2109375 58.427734375 112.33984375 58.322265625 c 0
 112.9140625 58.2001953125 113.502929688 58.0966796875 114.091796875 58.015625 c 0
 116.826171875 56.9755859375 119.791992188 56.40625 122.890625 56.40625 c 0
 123.025390625 56.40625 123.165039062 56.3984375 123.30078125 56.400390625 c 0
 124.499023438 56.443359375 125.668945312 56.5712890625 126.818359375 56.779296875 c 0
 129.739257812 57.2900390625 132.53515625 58.330078125 135.009765625 59.76953125 c 0
 135.901367188 60.189453125 136.76953125 60.6640625 137.599609375 61.18359375 c 0
 140.559570312 63.3349609375 142.989257812 66.0849609375 144.759765625 69.310546875 c 0
 159.830078125 98.12109375 178.557617188 136.029296875 197.65625 177.486328125 c 0
 214.282226562 210.537109375 232.734375 246.57421875 253.46484375 284.73046875 c 0
 282.8984375 338.907226562 314.756835938 393.65625 343.45703125 435.3203125 c 0
 357.807617188 456.15234375 371.42578125 473.720703125 382.935546875 485.927734375 c 0
 394.446289062 498.134765625 404.793945312 504.081054688 405.732421875 504.3359375 c 0
 424.185546875 509.346679688 431.7890625 507.216796875 436.4921875 502.818359375 c 0
 441.194335938 498.419921875 448.013671875 484.102539062 447.134765625 452.849609375 c 0
 445.405273438 391.36328125 414.456054688 274.407226562 339.533203125 91.111328125 c 1
 274.8828125 61.28125 173.0703125 9.6083984375 85.193359375 -38.65625 c 0
 39.3583984375 -63.830078125 -2.271484375 -87.826171875 -32.57421875 -107.25390625 c 0
 -47.7255859375 -116.967773438 -59.9501953125 -125.408203125 -69.220703125 -133.099609375 c 0
 -73.85546875 -136.9453125 -77.7412109375 -140.401367188 -81.525390625 -145.265625 c 0
 -83.41796875 -147.697265625 -85.416015625 -150.458007812 -87.1015625 -155.1171875 c 0
 -88.787109375 -159.776367188 -90.1162109375 -167.770507812 -86.548828125 -175.8515625 c 0
 -82.701171875 -184.561523438 -73.984375 -190.646484375 -63.857421875 -190.646484375 c 0
 -58.28515625 -190.646484375 -53.130859375 -188.772460938 -48.98828125 -185.6640625 c 0
 0.2744140625 -148.682617188 31.7431640625 -139.390625 55.271484375 -139.765625 c 0
 78.80078125 -140.140625 98.439453125 -150.715820312 124.439453125 -163.978515625 c 0
 150.439453125 -177.241210938 182.84765625 -192.392578125 225.349609375 -190.765625 c 0
 267.8515625 -189.138671875 318.119140625 -171.432617188 383.767578125 -127.2421875 c 0
 390.383789062 -122.7890625 394.740234375 -115.23046875 394.740234375 -106.662109375 c 0
 394.740234375 -101.547851562 393.1484375 -96.783203125 390.490234375 -92.833984375 c 0
 386.037109375 -86.2177734375 378.478515625 -81.861328125 369.91015625 -81.861328125 c 0
 364.795898438 -81.861328125 360.03125 -83.453125 356.08203125 -86.111328125 c 0
 295.069335938 -127.181640625 253.673828125 -140.065429688 223.453125 -141.22265625 c 0
 193.232421875 -142.379882812 171.859375 -132.510742188 146.966796875 -119.8125 c 0
 129.446289062 -110.875976562 110.124023438 -100.25 87.138671875 -94.466796875 c 1
 94.63671875 -90.2783203125 101.2734375 -86.388671875 109.0625 -82.111328125 c 0
 199.610351562 -32.37890625 307.522460938 22.26953125 369.19140625 50.30078125 c 0
 374.918945312 52.904296875 379.453125 57.595703125 381.85546875 63.4296875 c 0
 460.452148438 254.291015625 494.54296875 374.928710938 496.6953125 451.455078125 c 0
 497.771484375 489.717773438 491.073242188 519.65234375 470.359375 539.02734375 c 0
 457.412109375 551.13671875 440.951171875 556.133789062 423.787109375 556.375 c 0
EndSplineSet
Validated: 524325
EndChar

StartChar: g
Encoding: 103 103 7
Width: 345
VWidth: 804
Flags: W
HStem: -119.48 49.5625<-29.1088 109.243> 508.279 49.623<160.019 198.486 219.666 271.17>
LayerCount: 2
Fore
SplineSet
226.880859375 557.919921875 m 1
 224.057617188 558.002929688 221.20703125 557.997070312 218.333984375 557.90234375 c 0
 207.727539062 557.55078125 196.81640625 555.97265625 185.826171875 553.0703125 c 0
 122.555664062 536.359375 71.974609375 481.723632812 30.13671875 418.822265625 c 0
 -11.701171875 355.920898438 -44.4130859375 283.135742188 -65.67578125 223.8984375 c 0
 -86.3974609375 166.170898438 -87.4091796875 119.6640625 -62.423828125 88.224609375 c 0
 -37.4384765625 56.78515625 6.154296875 51.7626953125 51.404296875 61.66015625 c 0
 141.904296875 81.4560546875 259.4921875 159.536132812 363.46875 284.533203125 c 0
 367.04296875 288.830078125 369.193359375 294.3515625 369.193359375 300.37109375 c 0
 369.193359375 308.033203125 365.732421875 314.896484375 360.263671875 319.4453125 c 0
 355.966796875 323.01953125 350.4453125 325.169921875 344.42578125 325.169921875 c 0
 336.763671875 325.169921875 329.900390625 321.708984375 325.3515625 316.240234375 c 0
 226.875 197.854492188 112.412109375 125.7578125 40.810546875 110.095703125 c 0
 5.009765625 102.264648438 -14.9619140625 108.193359375 -23.607421875 119.072265625 c 0
 -32.2529296875 129.951171875 -36.96484375 157.1328125 -19.01171875 207.1484375 c 0
 -10.556640625 230.704101562 0.03515625 256.745117188 12.216796875 283.296875 c 0
 12.2421875 283.297851562 12.265625 283.299804688 12.291015625 283.30078125 c 0
 105.385742188 314.5625 164.51953125 331.178710938 237.16796875 364.47265625 c 0
 274.64453125 381.647460938 300.1484375 402.583007812 314.50390625 426.759765625 c 0
 328.859375 450.936523438 330.435546875 478.852539062 320.56640625 501.353515625 c 0
 305.53125 535.6328125 269.231445312 556.677734375 226.880859375 557.919921875 c 1
219.666015625 508.279296875 m 0
 248.494140625 509.119140625 269.17578125 495.0859375 275.162109375 481.4375 c 0
 278.845703125 473.038085938 279.247070312 464.497070312 271.87109375 452.07421875 c 0
 264.495117188 439.651367188 247.709960938 423.842773438 216.51171875 409.544921875 c 0
 160.15234375 383.715820312 110.784179688 367.892578125 43.80078125 345.923828125 c 1
 52.5234375 361.548828125 61.75390625 376.831054688 71.419921875 391.36328125 c 0
 110.045898438 449.434570312 156.014648438 493.916992188 198.486328125 505.134765625 c 0
 205.926757812 507.099609375 213.013671875 508.0859375 219.666015625 508.279296875 c 0
181.0234375 -19.35546875 m 0
 180.607421875 -19.3349609375 180.189453125 -19.32421875 179.768554688 -19.32421875 c 0
 175.705078125 -19.32421875 171.862304688 -20.3193359375 168.4765625 -22.0546875 c 2
 168.4765625 -22.0546875 144.021484375 -34.5791015625 113.2265625 -46.935546875 c 0
 82.431640625 -59.2919921875 44.0439453125 -70.400390625 26.22265625 -69.91796875 c 0
 -14.9052734375 -68.8046875 -36.748046875 -40.158203125 -36.748046875 -40.158203125 c 2
 -41.28125 -34.2548828125 -48.41015625 -30.4462890625 -56.4208984375 -30.4462890625 c 0
 -62.091796875 -30.4462890625 -67.3291015625 -32.384765625 -71.5078125 -35.59375 c 0
 -77.4111328125 -40.126953125 -81.2197265625 -47.255859375 -81.2197265625 -55.2666015625 c 0
 -81.2197265625 -60.9375 -79.28125 -66.1748046875 -76.072265625 -70.353515625 c 2
 -76.072265625 -70.353515625 -39.5361328125 -117.736328125 24.880859375 -119.48046875 c 0
 59.83203125 -120.426757812 98.5595703125 -106.2421875 131.689453125 -92.94921875 c 0
 164.819335938 -79.65625 191.095703125 -66.173828125 191.095703125 -66.173828125 c 2
 199.110351562 -62.064453125 204.600585938 -53.7177734375 204.600585938 -44.099609375 c 0
 204.600585938 -40.0361328125 203.581054688 -36.1904296875 201.845703125 -32.8046875 c 0
 197.916015625 -25.140625 190.109375 -19.8095703125 181.0234375 -19.35546875 c 0
EndSplineSet
Validated: 524329
EndChar

StartChar: h
Encoding: 104 104 8
Width: 339
VWidth: 804
Flags: W
VStem: 247.836 49.2959<433.885 496.433>
LayerCount: 2
Fore
SplineSet
193.482421875 555.021484375 m 0
 189.548828125 554.865234375 185.69921875 554.2421875 181.0546875 552.853515625 c 0
 116.76953125 533.634765625 65.8525390625 479.262695312 24.51953125 416.93359375 c 0
 -16.8125 354.604492188 -48.4677734375 282.987304688 -69.677734375 223.8984375 c 0
 -90.3984375 166.170898438 -91.4091796875 119.6640625 -66.423828125 88.224609375 c 0
 -41.4375 56.78515625 2.154296875 51.7626953125 47.404296875 61.66015625 c 0
 137.905273438 81.4560546875 255.493164062 159.536132812 359.46875 284.533203125 c 0
 363.04296875 288.830078125 365.193359375 294.3515625 365.193359375 300.37109375 c 0
 365.193359375 308.033203125 361.732421875 314.896484375 356.263671875 319.4453125 c 0
 351.967773438 323.01953125 346.4453125 325.169921875 340.42578125 325.169921875 c 0
 332.763671875 325.169921875 325.900390625 321.708984375 321.3515625 316.240234375 c 0
 222.875 197.854492188 108.41015625 125.7578125 36.80859375 110.095703125 c 0
 1.0078125 102.264648438 -18.962890625 108.193359375 -27.609375 119.072265625 c 0
 -36.2548828125 129.951171875 -40.96484375 157.1328125 -23.01171875 207.1484375 c 0
 -2.8193359375 263.401367188 27.7734375 332.129882812 65.83984375 389.533203125 c 0
 103.90625 446.936523438 149.538085938 491.682617188 195.2578125 505.3515625 c 1
 191.030273438 504.087890625 196.641601562 505.521484375 201.716796875 505.037109375 c 0
 206.791992188 504.552734375 213.245117188 503.1171875 219.318359375 500.208984375 c 0
 231.46484375 494.391601562 243.459960938 484.852539062 247.8359375 454.76171875 c 0
 249.579101562 442.779296875 259.905273438 433.563476562 272.3671875 433.563476562 c 0
 273.587890625 433.563476562 274.762695312 433.625976562 275.935546875 433.796875 c 0
 287.916992188 435.540039062 297.131835938 445.866210938 297.131835938 458.328125 c 0
 297.131835938 459.547851562 297.069335938 460.723632812 296.8984375 461.896484375 c 0
 290.525390625 505.715820312 265.475585938 533.077148438 240.734375 544.92578125 c 0
 228.364257812 550.850585938 216.4140625 553.439453125 206.4296875 554.392578125 c 0
 201.438476562 554.869140625 197.416992188 555.177734375 193.482421875 555.021484375 c 0
EndSplineSet
Validated: 524325
EndChar

StartChar: i
Encoding: 105 105 9
Width: 488
VWidth: 804
Flags: W
LayerCount: 2
Fore
SplineSet
80.46875 556.46875 m 1
 80.04296875 556.490234375 79.615234375 556.501953125 79.18359375 556.501953125 c 0
 77.400390625 556.501953125 75.6953125 556.311523438 74.0185546875 555.953125 c 0
 65.33203125 554.095703125 58.3154296875 547.686523438 55.615234375 539.34375 c 1
 55.6259765625 539.340820312 -89.47265625 90.935546875 -89.47265625 90.935546875 c 2
 -90.2509765625 88.53125 -90.6708984375 85.966796875 -90.6708984375 83.3056640625 c 0
 -90.6708984375 72.2841796875 -83.47265625 62.9375 -73.517578125 59.716796875 c 0
 -71.1142578125 58.939453125 -68.55078125 58.5185546875 -65.8896484375 58.5185546875 c 0
 -54.869140625 58.5185546875 -45.521484375 65.7177734375 -42.30078125 75.671875 c 0
 -42.2978515625 75.6796875 55.01171875 376.423828125 55.01171875 376.423828125 c 2
 55.11328125 376.494140625 55.2138671875 376.564453125 55.314453125 376.63671875 c 2
 55.314453125 376.63671875 84.9287109375 407.563476562 124.294921875 439.08203125 c 0
 163.661132812 470.600585938 214.322265625 500.540039062 243.1640625 502.474609375 c 0
 263.544921875 503.841796875 274.020507812 499.913085938 280.029296875 495.13671875 c 0
 286.0390625 490.360351562 290.159179688 482.926757812 292.091796875 469.123046875 c 0
 295.95703125 441.515625 286.270507812 393.580078125 269.759765625 343.259765625 c 0
 253.249023438 292.939453125 230.948242188 239.5859375 213.5625 194.87109375 c 0
 204.870117188 172.513671875 197.397460938 152.366210938 192.388671875 135.013671875 c 0
 187.379882812 117.661132812 182.262695312 104.803710938 188.201171875 85.951171875 c 0
 192.012695312 73.8515625 205.5390625 61.6669921875 218.345703125 59.74609375 c 0
 231.153320312 57.82421875 241.206054688 61.25 251.345703125 65.62890625 c 0
 271.625 74.3857421875 293.479492188 90.041015625 319.408203125 111.23046875 c 0
 371.266601562 153.609375 437.114257812 218.359375 505.826171875 290.3984375 c 0
 510.0703125 294.848632812 512.677734375 300.873046875 512.677734375 307.500976562 c 0
 512.677734375 314.553710938 509.732421875 320.9296875 504.998046875 325.4453125 c 0
 500.547851562 329.689453125 494.5234375 332.297851562 487.89453125 332.297851562 c 0
 480.840820312 332.297851562 474.46484375 329.3515625 469.94921875 324.6171875 c 0
 401.936523438 253.310546875 336.600585938 189.30859375 288.03515625 149.62109375 c 0
 267.846679688 133.123046875 250.506835938 121.2109375 238.56640625 114.71875 c 1
 238.9921875 116.848632812 239.342773438 118.907226562 240.0234375 121.263671875 c 0
 244.193359375 135.709960938 251.267578125 155.030273438 259.771484375 176.904296875 c 0
 276.78125 220.651367188 299.483398438 274.813476562 316.869140625 327.802734375 c 0
 334.254882812 380.791992188 347.357421875 431.959960938 341.19140625 475.998046875 c 0
 338.108398438 498.016601562 329.0078125 519.541992188 310.876953125 533.951171875 c 0
 295.01171875 546.55859375 274.205078125 552.33203125 250.283203125 552.306640625 c 0
 246.866210938 552.302734375 243.384765625 552.180664062 239.845703125 551.943359375 c 0
 186.953125 548.395507812 135.560546875 511.615234375 93.3076171875 477.78515625 c 0
 90.720703125 475.71484375 88.31640625 473.680664062 85.814453125 471.623046875 c 1
 102.787109375 524.080078125 l 2
 103.564453125 526.483398438 103.985351562 529.047851562 103.985351562 531.708984375 c 0
 103.985351562 542.728515625 96.787109375 552.075195312 86.833984375 555.296875 c 0
 84.8193359375 555.94921875 82.671875 556.35546875 80.46875 556.46875 c 1
EndSplineSet
Validated: 524325
EndChar

StartChar: j
Encoding: 106 106 10
Width: 379
VWidth: 804
Flags: W
HStem: 62.0059 49.5566<15.6911 90.9378>
VStem: -44.2061 49.5293<122.756 282.349> 81.1064 46.8018<544.686 555.146>
LayerCount: 2
Fore
SplineSet
362.940429688 558.103515625 m 4
 353.770507812 558.052734375 345.786132812 553.040039062 341.540039062 545.58984375 c 6
 341.540039062 545.58984375 291.056640625 426.575195312 206.657226562 253.65234375 c 0
 205.30078125 252.627929688 204.077148438 251.491210938 202.958007812 250.21484375 c 2
 202.958007812 250.21484375 176.498046875 213.673828125 141.532226562 177.70703125 c 0
 124.048828125 159.723632812 104.478515625 142.049804688 86.1513671875 129.6875 c 0
 67.82421875 117.325195312 50.9453125 111.27734375 41.2958984375 111.5625 c 0
 26.212890625 112.008789062 20.58203125 115.729492188 15.4501953125 122.4375 c 0
 10.318359375 129.145507812 6.130859375 141.715820312 5.3232421875 159.73046875 c 0
 3.7080078125 195.759765625 15.6591796875 250 33.3818359375 304.17578125 c 0
 68.828125 412.528320312 125.161132812 521.943359375 125.161132812 521.943359375 c 2
 126.916015625 525.34375 127.908203125 529.201171875 127.908203125 533.2890625 c 0
 127.908203125 542.8828125 122.486328125 551.221679688 114.504882812 555.341796875 c 0
 111.104492188 557.09765625 107.24609375 558.088867188 103.158203125 558.088867188 c 0
 102.76171875 558.088867188 102.359375 558.094726562 101.967773438 558.076171875 c 0
 92.8759765625 557.647460938 85.056640625 552.336914062 81.1064453125 544.685546875 c 2
 81.1064453125 544.685546875 23.4501953125 433.280273438 -13.7412109375 319.591796875 c 0
 -32.3369140625 262.747070312 -46.365234375 205.661132812 -44.2060546875 157.5078125 c 0
 -43.126953125 133.430664062 -37.9892578125 110.694335938 -23.9287109375 92.314453125 c 0
 -9.8681640625 73.9345703125 13.560546875 62.783203125 39.8291015625 62.005859375 c 0
 66.8447265625 61.2060546875 91.111328125 73.228515625 113.875976562 88.583984375 c 0
 117.407226562 90.9658203125 120.893554688 93.482421875 124.358398438 96.056640625 c 1
 69.724609375 47.2451171875 18.9423828125 0.2587890625 -15.2978515625 -41.111328125 c 0
 -39.283203125 -70.0908203125 -57.1015625 -95.59765625 -58.8564453125 -125.474609375 c 0
 -59.734375 -140.413085938 -54.2783203125 -157.040039062 -43.0244140625 -168.36328125 c 0
 -31.7705078125 -179.686523438 -16.9287109375 -186.021484375 0.5732421875 -190.005859375 c 0
 28.228515625 -196.30078125 55.7041015625 -187.190429688 73.7255859375 -169.775390625 c 0
 91.7470703125 -152.360351562 103.118164062 -129.158203125 113.475585938 -103.0390625 c 0
 134.189453125 -50.80078125 149.966796875 15.109375 175.905273438 72.453125 c 0
 176.73046875 74.27734375 177.53125 75.9296875 178.356445312 77.748046875 c 0
 193.454101562 91.1923828125 208.645507812 104.681640625 223.961914062 118.3125 c 0
 252.912109375 144.077148438 293.865234375 185.247070312 329.375976562 221.599609375 c 0
 347.130859375 239.775390625 363.458984375 256.6953125 375.991210938 269.677734375 c 0
 388.5234375 282.66015625 398.377929688 292.728515625 399.180664062 293.486328125 c 0
 403.966796875 298.006835938 406.955078125 304.411132812 406.955078125 311.5078125 c 0
 406.955078125 318.09375 404.374023438 324.08984375 400.178710938 328.53125 c 0
 395.658203125 333.317382812 389.25390625 336.305664062 382.157226562 336.305664062 c 0
 375.571289062 336.305664062 369.575195312 333.724609375 365.133789062 329.529296875 c 0
 360.571289062 325.219726562 352.858398438 317.102539062 340.319335938 304.11328125 c 0
 327.780273438 291.124023438 311.533203125 274.286132812 293.909179688 256.244140625 c 0
 274.346679688 236.217773438 253.209960938 214.91796875 233.536132812 195.630859375 c 1
 325.259765625 386.59765625 384.616210938 521.0390625 384.616210938 521.0390625 c 6
 386.67578125 524.65234375 387.852539062 528.833984375 387.852539062 533.287109375 c 4
 387.852539062 542.515625 382.840820312 550.583984375 375.352539062 554.8515625 c 4
 371.73828125 556.911132812 367.557617188 558.087890625 363.104492188 558.087890625 c 4
 363.057617188 558.087890625 362.987304688 558.103515625 362.940429688 558.103515625 c 4
97.3017578125 3.982421875 m 1
 86.5087890625 -29.0009765625 77.236328125 -59.9267578125 67.3876953125 -84.763671875 c 0
 58.1484375 -108.063476562 48.1337890625 -125.559570312 39.2724609375 -134.123046875 c 0
 30.4111328125 -142.686523438 25.5068359375 -144.833007812 11.5771484375 -141.662109375 c 0
 -0.287109375 -138.9609375 -6.0869140625 -135.194335938 -7.8583984375 -133.412109375 c 0
 -9.6298828125 -131.629882812 -9.58203125 -132.146484375 -9.3603515625 -128.3828125 c 0
 -8.91796875 -120.854492188 1.4912109375 -98.587890625 22.8974609375 -72.724609375 c 0
 41.6357421875 -50.083984375 67.6435546875 -23.96875 97.3017578125 3.982421875 c 1
EndSplineSet
Validated: 524329
EndChar

StartChar: k
Encoding: 107 107 11
Width: 345
VWidth: 804
Flags: W
HStem: 508.279 49.623<160.019 198.486 219.666 271.17>
LayerCount: 2
Fore
SplineSet
226.880859375 557.919921875 m 1
 224.057617188 558.002929688 221.20703125 557.997070312 218.333984375 557.90234375 c 0
 207.727539062 557.55078125 196.81640625 555.97265625 185.826171875 553.0703125 c 0
 122.555664062 536.359375 71.974609375 481.723632812 30.13671875 418.822265625 c 0
 -11.701171875 355.920898438 -44.4130859375 283.135742188 -65.67578125 223.8984375 c 0
 -86.3974609375 166.170898438 -87.4091796875 119.6640625 -62.423828125 88.224609375 c 0
 -37.4384765625 56.78515625 6.154296875 51.7626953125 51.404296875 61.66015625 c 0
 141.904296875 81.4560546875 259.4921875 159.536132812 363.46875 284.533203125 c 0
 367.04296875 288.830078125 369.193359375 294.3515625 369.193359375 300.37109375 c 0
 369.193359375 308.033203125 365.732421875 314.896484375 360.263671875 319.4453125 c 0
 355.966796875 323.01953125 350.4453125 325.169921875 344.42578125 325.169921875 c 0
 336.763671875 325.169921875 329.900390625 321.708984375 325.3515625 316.240234375 c 0
 226.875 197.854492188 112.412109375 125.7578125 40.810546875 110.095703125 c 0
 5.009765625 102.264648438 -14.9619140625 108.193359375 -23.607421875 119.072265625 c 0
 -32.2529296875 129.951171875 -36.96484375 157.1328125 -19.01171875 207.1484375 c 0
 -10.556640625 230.704101562 0.03515625 256.745117188 12.216796875 283.296875 c 0
 12.2421875 283.297851562 12.265625 283.299804688 12.291015625 283.30078125 c 0
 105.385742188 314.5625 164.51953125 331.178710938 237.16796875 364.47265625 c 0
 274.64453125 381.647460938 300.1484375 402.583007812 314.50390625 426.759765625 c 0
 328.859375 450.936523438 330.435546875 478.852539062 320.56640625 501.353515625 c 0
 305.53125 535.6328125 269.231445312 556.677734375 226.880859375 557.919921875 c 1
219.666015625 508.279296875 m 0
 248.494140625 509.119140625 269.17578125 495.0859375 275.162109375 481.4375 c 0
 278.845703125 473.038085938 279.247070312 464.497070312 271.87109375 452.07421875 c 0
 264.495117188 439.651367188 247.709960938 423.842773438 216.51171875 409.544921875 c 0
 160.15234375 383.715820312 110.784179688 367.892578125 43.80078125 345.923828125 c 1
 52.5234375 361.548828125 61.75390625 376.831054688 71.419921875 391.36328125 c 0
 110.045898438 449.434570312 156.014648438 493.916992188 198.486328125 505.134765625 c 0
 205.926757812 507.099609375 213.013671875 508.0859375 219.666015625 508.279296875 c 0
EndSplineSet
Validated: 524329
EndChar

StartChar: l
Encoding: 108 108 12
Width: 560
VWidth: 804
Flags: W
HStem: 55.5371 49.998<114.513 162.289 162.291 255.452> 530.26 49.9453<255.67 400.046>
LayerCount: 2
Fore
SplineSet
337.751953125 580.359375 m 2
 337.754882812 580.359375 l 2
 382.802734375 579.875 427.774414062 560.399414062 462.889648438 517.88671875 c 0
 463.946289062 516.606445312 464.87109375 515.229492188 465.659179688 513.75390625 c 0
 483.849609375 479.750976562 478.138671875 442.5078125 460.639648438 415.0859375 c 0
 443.139648438 387.665039062 416.255859375 366.68359375 388.569335938 349.322265625 c 0
 375.948242188 341.408203125 363.108398438 334.514648438 350.686523438 328.216796875 c 1
 351.021484375 328.0859375 351.35546875 328.047851562 351.688476562 327.9140625 c 0
 372.466796875 319.619140625 394.302734375 306.147460938 405.282226562 281.77734375 c 0
 414.986328125 260.23828125 412.981445312 233.599609375 399.606445312 205.525390625 c 1
 443.797851562 237.376953125 492.3125 279.309570312 543.625976562 334.912109375 c 0
 547.98046875 339.630859375 554.141601562 342.661132812 560.995117188 342.935546875 c 0
 561.334960938 342.950195312 561.668945312 342.955078125 562.012695312 342.955078125 c 0
 568.546875 342.955078125 574.5 340.44140625 578.956054688 336.330078125 c 0
 583.907226562 331.76171875 587 325.2109375 587 317.94921875 c 0
 587 311.412109375 584.485351562 305.45703125 580.372070312 301 c 0
 466.8828125 178.022460938 363.865234375 116.3359375 288.397460938 85.69921875 c 0
 279.672851562 82.158203125 271.322265625 79.0732421875 263.301757812 76.314453125 c 0
 229.889648438 62.11328125 195.34765625 55.537109375 162.793945312 55.537109375 c 0
 162.69140625 55.537109375 162.59765625 55.5546875 162.491210938 55.5546875 c 0
 162.487304688 55.5546875 162.291015625 55.544921875 162.291015625 55.544921875 c 2
 162.250976562 55.5537109375 162.209960938 55.5625 162.169921875 55.5703125 c 0
 93.53515625 55.947265625 57.91015625 116.806640625 57.91015625 116.806640625 c 2
 55.6416015625 120.5703125 54.2939453125 124.98828125 54.2939453125 129.698242188 c 0
 54.2939453125 138.787109375 59.154296875 146.749023438 66.4140625 151.125 c 0
 70.1767578125 153.393554688 74.595703125 154.7421875 79.3056640625 154.7421875 c 0
 88.3935546875 154.7421875 96.35546875 149.881835938 100.732421875 142.62109375 c 2
 100.732421875 142.62109375 124.192382812 105.53515625 162.791015625 105.53515625 c 0
 164.215820312 105.53515625 165.66796875 105.629882812 167.1015625 105.658203125 c 0
 174.918945312 105.81640625 202.875976562 107.602539062 251.041015625 124.958984375 c 0
 288.120117188 142.270507812 323.306640625 172.265625 350.4765625 219.37890625 c 0
 364.185546875 243.150390625 362.874023438 254.171875 359.689453125 261.240234375 c 0
 356.504882812 268.309570312 347.372070312 275.797851562 333.150390625 281.474609375 c 0
 304.70703125 292.830078125 264.359375 293.669921875 264.359375 293.669921875 c 2
 250.567382812 293.678710938 239.369140625 304.873046875 239.369140625 318.666992188 c 0
 239.369140625 329.750976562 246.59765625 339.161132812 256.59375 342.43359375 c 2
 256.59375 342.43359375 313.546875 361.296875 361.998046875 391.6796875 c 0
 386.224609375 406.872070312 407.69921875 425.079101562 418.484375 441.978515625 c 0
 428.803710938 458.149414062 431.2109375 470.177734375 422.486328125 487.88671875 c 0
 394.041015625 521.287109375 364.890625 531.788085938 330.994140625 530.259765625 c 0
 296.37109375 528.700195312 256.368164062 512.299804688 216.751953125 486.94921875 c 0
 137.521484375 436.25 61.158203125 351.53125 22.13671875 303 c 0
 17.552734375 297.301757812 10.5146484375 293.677734375 2.638671875 293.677734375 c 0
 -3.28125 293.677734375 -8.72265625 295.740234375 -13.0078125 299.18359375 c 0
 -18.708984375 303.767578125 -22.3349609375 310.80859375 -22.3349609375 318.686523438 c 0
 -22.3349609375 324.604492188 -20.2744140625 330.044921875 -16.83203125 334.328125 c 0
 24.17578125 385.331054688 101.810546875 472.75390625 189.80859375 529.0625 c 0
 233.807617188 557.217773438 280.727539062 578.041992188 328.744140625 580.205078125 c 0
 331.745117188 580.340820312 334.749023438 580.393554688 337.751953125 580.359375 c 2
EndSplineSet
Validated: 524321
EndChar

StartChar: m
Encoding: 109 109 13
Width: 196
VWidth: 804
Flags: W
HStem: -190.168 49.502<-110.704 -20.5549> 280.379 49.3018<161.052 221.986> 754.316 49.6621<220.594 286.865 286.867 289.742>
VStem: 112.63 48.3398<112.129 280.379> 290.14 49.5801<684.88 753.836>
LayerCount: 2
Fore
SplineSet
281.908203125 803.978515625 m 0
 262.322265625 803.565429688 244.313476562 797.149414062 228.651367188 790.912109375 c 0
 210.750976562 783.783203125 197.178710938 776.422851562 192.340820312 773.630859375 c 0
 98.2470703125 719.314453125 23.9052734375 625.7265625 -13.0390625 531.41796875 c 0
 -31.5107421875 484.263671875 -40.6904296875 436.711914062 -36.587890625 392.77734375 c 0
 -32.677734375 350.91796875 -15.48046875 311.884765625 16.9658203125 284.419921875 c 1
 1.6513671875 260.090820312 -13.4560546875 235.609375 -28.0126953125 211.30078125 c 0
 -85.904296875 114.633789062 -135.265625 21.66796875 -155.030273438 -51.291015625 c 0
 -164.912109375 -87.7705078125 -168.783203125 -120.225585938 -155.940429688 -148.486328125 c 0
 -149.51953125 -162.6171875 -137.8671875 -174.862304688 -123.239257812 -181.853515625 c 0
 -108.610351562 -188.844726562 -91.8203125 -191.116210938 -73.169921875 -190.16796875 c 0
 -71.5341796875 -190.084960938 -69.9326171875 -189.840820312 -68.3955078125 -189.455078125 c 0
 68.7783203125 -155.04296875 127.473632812 -53.7587890625 148.2109375 49.32421875 c 0
 164.850585938 132.026367188 160.888671875 218.04296875 160.969726562 280.37890625 c 1
 173.3203125 277.30859375 187.956054688 276.731445312 204.225585938 280.880859375 c 0
 214.943359375 283.614257812 222.877929688 293.33984375 222.877929688 304.904296875 c 0
 222.877929688 307.021484375 222.620117188 309.064453125 222.119140625 311.02734375 c 0
 219.385742188 321.745117188 209.66015625 329.680664062 198.096679688 329.680664062 c 0
 195.979492188 329.680664062 193.935546875 329.421875 191.973632812 328.921875 c 0
 170.934570312 323.556640625 168.455078125 328.434570312 165.102539062 331.859375 c 0
 163.42578125 333.572265625 162.634765625 334.927734375 160.354492188 338.46484375 c 0
 159.784179688 339.348632812 159.291992188 340.3515625 157.145507812 342.767578125 c 0
 156.071289062 343.975585938 154.680664062 345.690429688 150.938476562 347.9140625 c 0
 147.196289062 350.137695312 138.89453125 352.965820312 130.453125 350.267578125 c 0
 122.013671875 347.569335938 117.807617188 341.595703125 116.008789062 338.29296875 c 0
 114.208984375 334.990234375 113.811523438 333.053710938 113.463867188 331.564453125 c 0
 112.767578125 328.584960938 112.73828125 327.215820312 112.629882812 325.75390625 c 0
 107.415039062 255.47265625 118.265625 151.850585938 99.6064453125 59.103515625 c 0
 81.0791015625 -32.984375 39.1240234375 -110.33203125 -78.0205078125 -140.666015625 c 0
 -89.5849609375 -140.977539062 -97.3779296875 -139.26171875 -101.860351562 -137.119140625 c 0
 -106.658203125 -134.826171875 -108.666992188 -132.676757812 -110.803710938 -127.97265625 c 0
 -115.079101562 -118.565429688 -115.665039062 -95.5927734375 -107.17578125 -64.25390625 c 0
 -90.1953125 -1.5751953125 -42.46875 90.6640625 14.5224609375 185.826171875 c 0
 71.513671875 280.98828125 137.650390625 379.934570312 191.635742188 461.0390625 c 0
 218.627929688 501.591796875 242.576171875 537.672851562 260.973632812 566.86328125 c 0
 278.346679688 594.4296875 290.290039062 613.953125 296.670898438 630.96484375 c 0
 326.459960938 684.661132812 339.702148438 719.766601562 339.719726562 749.220703125 c 0
 339.719726562 764.040039062 335.168945312 778.82421875 325.083984375 788.9921875 c 0
 315 799.16015625 301.837890625 802.953125 290.397460938 803.76953125 c 0
 287.537109375 803.973632812 284.706054688 804.037109375 281.908203125 803.978515625 c 0
286.8671875 754.31640625 m 2
 288.572265625 754.194335938 289.32421875 753.991210938 289.762695312 753.865234375 c 0
 289.91796875 753.244140625 290.141601562 752.048828125 290.139648438 749.25 c 0
 290.139648438 737.268554688 281.23046875 705.17578125 252.819335938 654.09765625 c 0
 252.107421875 652.818359375 251.497070312 651.448242188 251.018554688 650.04296875 c 0
 249.116210938 644.462890625 236.8984375 621.65234375 219.028320312 593.296875 c 0
 201.157226562 564.94140625 177.33203125 529.030273438 150.362304688 488.51171875 c 0
 117.896484375 439.737304688 80.888671875 384.032226562 43.9267578125 326.521484375 c 1
 25.3837890625 344.315429688 15.5361328125 367.853515625 12.7783203125 397.38671875 c 0
 9.640625 430.977539062 16.7978515625 471.65234375 33.125 513.333984375 c 0
 65.7802734375 596.696289062 134.881835938 683.213867188 217.125 730.69140625 c 1
 217.125 730.693359375 l 2
 219.05859375 731.80859375 232.236328125 738.97265625 246.9921875 744.849609375 c 0
 261.750976562 750.727539062 279.352539062 754.852539062 286.865234375 754.31640625 c 2
 286.8671875 754.31640625 l 2
EndSplineSet
Validated: 524329
EndChar

StartChar: n
Encoding: 110 110 14
Width: 446
VWidth: 804
Flags: W
HStem: 57.9941 49.5801<-29.1552 -27.5605 147.638 233.317> 502.516 49.5801<339.691 395.885>
VStem: 266.51 49.5645<289.458 478.067>
LayerCount: 2
Fore
SplineSet
136.91015625 554.08984375 m 1
 136.6328125 554.098632812 136.353515625 554.103515625 136.073242188 554.103515625 c 0
 127.188476562 554.103515625 119.41796875 549.4453125 115.041015625 542.4140625 c 2
 115.041015625 542.4140625 45.123046875 430.193359375 -10.833984375 317.037109375 c 0
 -38.8125 260.458984375 -63.4287109375 204.061523438 -74.33984375 158.3046875 c 0
 -79.794921875 135.42578125 -82.6845703125 115.232421875 -77.265625 95.427734375 c 0
 -74.5556640625 85.525390625 -68.9345703125 75.28125 -59.6953125 68.162109375 c 0
 -50.455078125 61.04296875 -38.740234375 57.994140625 -27.560546875 57.994140625 c 0
 -12.1630859375 57.994140625 -1.314453125 63.7998046875 11.16796875 70.873046875 c 0
 23.6513671875 77.9462890625 36.9736328125 87.2958984375 51.197265625 98.271484375 c 0
 65.595703125 109.381835938 80.8642578125 122.17578125 96.341796875 135.7734375 c 1
 93.58203125 114.109375 97.9765625 95.2626953125 109.935546875 81.388671875 c 0
 128.77734375 59.53125 156.334960938 55.880859375 180.16796875 56.958984375 c 0
 204.001953125 58.037109375 225.76953125 63.6923828125 242.869140625 74.537109375 c 1
 242.869140625 74.53515625 l 1
 300.609375 111.154296875 347.813476562 171.541992188 382.533203125 236.765625 c 1
 404.73046875 243.838867188 423.548828125 256.466796875 437.904296875 267.4921875 c 0
 445.638671875 273.431640625 451.99609375 278.95703125 456.50390625 283.068359375 c 0
 458.7578125 285.124023438 460.549804688 286.826171875 461.80859375 288.046875 c 0
 462.438476562 288.657226562 462.934570312 289.1484375 463.28515625 289.498046875 c 0
 463.4609375 289.672851562 463.6015625 289.811523438 463.6953125 289.90625 c 0
 463.723632812 289.934570312 463.735351562 289.9453125 463.751953125 289.962890625 c 1
 463.751953125 289.959960938 463.405273438 289.713867188 463.357421875 289.6796875 c 1
 468.06640625 294.193359375 471 300.543945312 471 307.575195312 c 0
 471 311.506835938 470.0625 315.250976562 468.4296875 318.5546875 c 0
 464.369140625 326.7109375 455.946289062 332.3203125 446.223632812 332.3203125 c 0
 442.265625 332.3203125 438.512695312 331.352539062 435.19140625 329.69921875 c 0
 435.19140625 329.69921875 428.759765625 325.087890625 428.708984375 325.037109375 c 0
 428.658203125 324.986328125 428.645507812 324.973632812 428.630859375 324.958984375 c 0
 428.602539062 324.9296875 428.5859375 324.912109375 428.560546875 324.88671875 c 0
 428.509765625 324.834960938 428.434570312 324.759765625 428.326171875 324.65234375 c 0
 428.110351562 324.4375 427.764648438 324.09765625 427.296875 323.64453125 c 0
 426.362304688 322.73828125 424.936523438 321.380859375 423.09375 319.701171875 c 0
 421.568359375 318.309570312 419.6015625 316.59375 417.55078125 314.8359375 c 1
 420.911132812 323.907226562 424.108398438 332.946289062 426.958984375 341.873046875 c 0
 442.866210938 391.680664062 450.783203125 438.2890625 446.89453125 476.595703125 c 0
 444.950195312 495.749023438 440.130859375 513.38671875 429.0078125 527.953125 c 0
 417.885742188 542.51953125 398.961914062 552.095703125 379.41796875 552.095703125 c 0
 332.416015625 552.095703125 300.194335938 518.732421875 284.841796875 483.103515625 c 0
 269.489257812 447.474609375 265.728515625 407.600585938 266.509765625 376.888671875 c 0
 267.997070312 318.428710938 277.995117188 280.796875 299.18359375 256.447265625 c 0
 306.764648438 247.736328125 315.8203125 241.780273438 325.41015625 237.90234375 c 1
 294.942382812 187.196289062 257.045898438 142.23828125 216.314453125 116.40625 c 0
 211.2421875 113.189453125 193.517578125 107.193359375 177.927734375 106.48828125 c 0
 162.338867188 105.783203125 150.543945312 110.21484375 147.48828125 113.759765625 c 0
 144.43359375 117.303710938 140.126953125 125.84765625 153.349609375 155.19921875 c 0
 166.573242188 184.549804688 197.66015625 229.360351562 255.3515625 290.4921875 c 0
 256.969726562 292.20703125 258.331054688 294.134765625 259.41015625 296.255859375 c 0
 260.974609375 299.326171875 261.932617188 302.805664062 262.087890625 306.447265625 c 0
 262.103515625 306.807617188 262.111328125 307.170898438 262.111328125 307.53515625 c 0
 262.111328125 308.375976562 262.0703125 309.170898438 261.98828125 309.990234375 c 0
 261.869140625 311.171875 261.6640625 312.341796875 261.384765625 313.46875 c 0
 261.384765625 313.471679688 261.383789062 313.474609375 261.3828125 313.4765625 c 0
 261.099609375 314.620117188 260.727539062 315.7578125 260.291015625 316.83203125 c 0
 259.858398438 317.892578125 259.348632812 318.927734375 258.779296875 319.908203125 c 0
 258.763671875 319.94140625 258.747070312 319.973632812 258.73046875 320.005859375 c 0
 258.729492188 320.008789062 258.727539062 320.01171875 258.7265625 320.013671875 c 0
 258.448242188 320.44921875 258.16015625 320.87109375 257.85546875 321.287109375 c 0
 257.500976562 321.853515625 257.126953125 322.3984375 256.728515625 322.931640625 c 0
 255.990234375 323.861328125 255.202148438 324.717773438 254.33984375 325.53125 c 0
 254.338867188 325.534179688 254.336914062 325.536132812 254.3359375 325.538085938 c 0
 253.239257812 326.358398438 252.077148438 327.087890625 250.8515625 327.721679688 c 0
 249.403320312 328.875 247.826171875 329.866210938 246.140625 330.676757812 c 0
 245.138671875 330.912109375 244.1015625 331.088867188 243.056640625 331.198242188 c 0
 241.01171875 331.830078125 238.83984375 332.208984375 236.607421875 332.288085938 c 0
 235.287109375 332.094726562 233.974609375 331.791992188 232.73046875 331.399414062 c 0
 230.81640625 331.1875 228.93359375 330.749023438 227.17578125 330.125976562 c 0
 226.970703125 329.984375 226.770507812 329.842773438 226.5703125 329.696289062 c 0
 223.830078125 328.416992188 221.381835938 326.668945312 219.296875 324.528320312 c 0
 219.276367188 324.509765625 219.29296875 324.521484375 219.29296875 324.521484375 c 2
 219.279296875 324.5078125 166.602539062 268.739257812 107.638671875 213.189453125 c 0
 78.15234375 185.412109375 47.0654296875 157.708007812 20.908203125 137.5234375 c 0
 7.8291015625 127.431640625 -4.068359375 119.224609375 -13.2734375 114.0078125 c 0
 -22.4794921875 108.791992188 -29.787109375 107.57421875 -27.560546875 107.57421875 c 1
 -28.6123046875 107.57421875 -28.8134765625 107.629882812 -29.171875 107.673828125 c 0
 -29.26171875 107.927734375 -29.2802734375 107.916015625 -29.443359375 108.513671875 c 0
 -30.7060546875 113.12890625 -30.638671875 127.821289062 -26.111328125 146.8046875 c 0
 -17.0576171875 184.772460938 6.384765625 240.006835938 33.609375 295.060546875 c 0
 88.0595703125 405.168945312 157.130859375 516.212890625 157.130859375 516.212890625 c 2
 159.494140625 520.009765625 160.860351562 524.491210938 160.860351562 529.2890625 c 0
 160.860351562 538.172851562 156.217773438 545.982421875 149.1875 550.359375 c 0
 145.612304688 552.584960938 141.391601562 553.94140625 136.91015625 554.08984375 c 1
379.41796875 502.515625 m 0
 385.793945312 502.515625 386.625976562 501.763671875 389.603515625 497.86328125 c 0
 392.58203125 493.962890625 396.20703125 484.997070312 397.568359375 471.587890625 c 0
 400.291015625 444.76953125 394.25390625 402.431640625 379.73046875 356.95703125 c 0
 371.801757812 332.129882812 361.279296875 306.329101562 348.822265625 280.98828125 c 1
 344.499023438 281.685546875 340.86328125 284.077148438 336.583984375 288.994140625 c 0
 328.197265625 298.631835938 317.416992188 325.373046875 316.07421875 378.150390625 c 0
 315.439453125 403.122070312 319.453125 438.141601562 330.373046875 463.484375 c 0
 341.293945312 488.827148438 353.84375 502.515625 379.41796875 502.515625 c 0
EndSplineSet
Validated: 524325
EndChar

StartChar: o
Encoding: 111 111 15
Width: 431
VWidth: 804
Flags: W
HStem: 56.5449 49.5957<91.5408 178.294>
LayerCount: 2
Fore
SplineSet
309.36328125 554.2890625 m 1
 302.186523438 554.541992188 294.96875 553.982421875 287.87890625 552.794921875 c 0
 250.069335938 546.463867188 212.288085938 524.033203125 174.333984375 496.173828125 c 0
 98.42578125 440.454101562 23.630859375 360.172851562 -9.353515625 324.28125 c 0
 -13.41015625 319.866210938 -15.888671875 313.978515625 -15.888671875 307.515625 c 0
 -15.888671875 300.295898438 -12.806640625 293.786132812 -7.875 289.25390625 c 0
 -3.4599609375 285.197265625 2.427734375 282.71875 8.890625 282.71875 c 0
 16.1103515625 282.71875 22.6201171875 285.80078125 27.15234375 290.732421875 c 0
 59.6787109375 326.125976562 133.670898438 404.8203125 203.673828125 456.205078125 c 0
 238.67578125 481.897460938 273.129882812 500.053710938 296.068359375 503.89453125 c 0
 307.538085938 505.815429688 315.2265625 504.596679688 320.974609375 501.560546875 c 0
 326.59765625 498.58984375 332.030273438 493.2578125 337.091796875 480.857421875 c 0
 341.706054688 465.793945312 342.8046875 432.41796875 336.2890625 393.779296875 c 0
 332.461914062 371.078125 326.255859375 346.318359375 317.890625 321.248046875 c 1
 144.48046875 249.236328125 72.0068359375 197.521484375 46.4375 148.556640625 c 0
 33.2373046875 123.27734375 38.0556640625 93.52734375 53.978515625 77.65625 c 0
 69.90234375 61.78515625 90.349609375 56.505859375 109.599609375 56.505859375 c 0
 109.606445312 56.505859375 109.61328125 56.505859375 109.620117188 56.505859375 c 0
 110.09375 56.505859375 110.544921875 56.5185546875 111.01171875 56.544921875 c 0
 220.91796875 62.8173828125 296.93359375 151.672851562 341.076171875 245.630859375 c 0
 347.09375 258.438476562 352.506835938 271.400390625 357.421875 284.369140625 c 1
 364.338867188 288.76953125 368.931640625 296.502929688 368.931640625 305.30078125 c 0
 368.931640625 308.146484375 368.41796875 310.872070312 367.533203125 313.41796875 c 0
 375.400390625 338.181640625 381.30859375 362.573242188 385.1796875 385.53515625 c 0
 392.576171875 429.403320312 393.677734375 467.307617188 384.0546875 496.923828125 c 0
 383.89453125 497.418945312 383.713867188 497.918945312 383.5234375 498.400390625 c 0
 375.1796875 519.444335938 361.668945312 536.134765625 344.1328125 545.3984375 c 0
 333.172851562 551.188476562 321.325195312 553.8671875 309.36328125 554.2890625 c 1
290.619140625 255.384765625 m 1
 250.553710938 175.75 189.069335938 111.165039062 109.083984375 106.140625 c 0
 101.150390625 106.299804688 91.6376953125 110.12109375 88.978515625 112.771484375 c 0
 86.263671875 115.477539062 84.12890625 113.622070312 90.38671875 125.607421875 c 0
 101.34375 146.588867188 155.204101562 194.099609375 290.619140625 255.384765625 c 1
EndSplineSet
Validated: 524329
EndChar

StartChar: p
Encoding: 112 112 16
Width: 536
VWidth: 804
Flags: W
HStem: 280.895 41.873<256.736 278.455>
VStem: 479.688 48.7344<429.578 499.38>
LayerCount: 2
Fore
SplineSet
276.384765625 553.296875 m 0
 266.51171875 553.422851562 257.215820312 550.4296875 248.34765625 546.978515625 c 0
 234.161132812 541.456054688 219.682617188 533.021484375 204.21875 522.623046875 c 0
 173.29296875 501.826171875 138.829101562 472.952148438 106.03125 443.443359375 c 0
 40.4345703125 384.426757812 -18.171875 322.767578125 -18.171875 322.767578125 c 2
 -22.400390625 318.3203125 -24.9970703125 312.307617188 -24.9970703125 305.692382812 c 0
 -24.9970703125 298.625 -22.0400390625 292.23828125 -17.2890625 287.720703125 c 0
 -12.841796875 283.491210938 -6.828125 280.89453125 -0.212890625 280.89453125 c 0
 6.853515625 280.89453125 13.240234375 283.8515625 17.7578125 288.6015625 c 2
 17.7578125 288.6015625 75.4501953125 349.237304688 139.193359375 406.5859375 c 0
 171.064453125 435.260742188 204.533203125 463.0859375 231.88671875 481.48046875 c 0
 245.564453125 490.677734375 257.81640625 497.4609375 266.33203125 500.775390625 c 0
 266.474609375 500.831054688 266.5546875 500.833984375 266.6953125 500.88671875 c 1
 265.356445312 489.291992188 260.719726562 470.7578125 253.3203125 448.998046875 c 0
 239.638671875 408.760742188 216.80078125 357.022460938 191.09765625 306.013671875 c 1
 107.9453125 267.720703125 56.458984375 228.73828125 29.953125 188.15234375 c 0
 16.2451171875 167.163085938 9.341796875 145.076171875 10.6328125 123.689453125 c 0
 11.9228515625 102.302734375 21.62890625 82.7099609375 36.12109375 67.630859375 c 0
 44.4013671875 59.015625 59.2666015625 55.4833984375 69.505859375 57.595703125 c 0
 79.744140625 59.7080078125 87.0087890625 64.466796875 94.056640625 69.955078125 c 0
 108.153320312 80.9306640625 121.459960938 96.5439453125 136.0390625 116.16796875 c 0
 164.930664062 155.05859375 197.209960938 209.55078125 226.7265625 266.46484375 c 1
 245.010742188 271.643554688 262.477539062 276.83984375 278.740234375 282.0625 c 1
 261.263671875 244.453125 245.959960938 207.849609375 235.34765625 176.3046875 c 0
 227.280273438 152.32421875 221.68359375 131.423828125 219.794921875 113.24609375 c 0
 218.849609375 104.157226562 218.630859375 95.7177734375 220.826171875 86.607421875 c 0
 223.021484375 77.4970703125 229.412109375 65.8369140625 241.189453125 60.482421875 c 0
 258.177734375 52.7587890625 273.463867188 57.1083984375 287.65234375 62.630859375 c 0
 301.840820312 68.1533203125 316.31640625 76.587890625 331.779296875 86.986328125 c 0
 362.706054688 107.783203125 397.169921875 136.657226562 429.96875 166.166015625 c 0
 495.564453125 225.182617188 554.171875 286.841796875 554.171875 286.841796875 c 2
 558.400390625 291.2890625 560.997070312 297.301757812 560.997070312 303.916992188 c 0
 560.997070312 310.984375 558.040039062 317.37109375 553.2890625 321.888671875 c 0
 548.841796875 326.118164062 542.828125 328.71484375 536.212890625 328.71484375 c 0
 529.146484375 328.71484375 522.759765625 325.7578125 518.2421875 321.0078125 c 2
 518.2421875 321.0078125 460.549804688 260.374023438 396.806640625 203.025390625 c 0
 364.935546875 174.350585938 331.46875 146.5234375 304.11328125 128.12890625 c 0
 290.436523438 118.931640625 278.184570312 112.1484375 269.669921875 108.833984375 c 0
 269.483398438 108.76171875 269.376953125 108.756835938 269.1953125 108.689453125 c 1
 270.470703125 120.235351562 275.026367188 138.752929688 282.341796875 160.49609375 c 0
 296.067382812 201.298828125 319.201171875 253.978515625 345.2734375 305.71875 c 1
 434.129882812 340.73046875 483.577148438 376.704101562 509.404296875 413.615234375 c 0
 527.573242188 439.58203125 532.72265625 467.083984375 528.421875 490.041015625 c 0
 524.120117188 512.998046875 511.811523438 530.62109375 499.1171875 542.734375 c 0
 492.625976562 548.926757812 482.850585938 552.125976562 474.1015625 552.41796875 c 0
 471.185546875 552.515625 468.384765625 552.2890625 465.85546875 551.744140625 c 0
 455.741210938 549.565429688 448.376953125 544.82421875 441.248046875 539.302734375 c 0
 426.990234375 528.260742188 413.536132812 512.560546875 398.884765625 492.890625 c 0
 370.383789062 454.627929688 338.860351562 401.385742188 309.9375 345.677734375 c 1
 293.637695312 339.522460938 275.802734375 333.344726562 256.544921875 327.185546875 c 1
 274.192382812 364.856445312 289.512695312 401.427734375 300.26171875 433.037109375 c 0
 308.430664062 457.063476562 314.124023438 478.000976562 316.091796875 496.205078125 c 0
 317.076171875 505.306640625 317.329101562 513.75390625 315.169921875 522.88671875 c 0
 313.009765625 532.01953125 306.625 543.754882812 294.80859375 549.126953125 c 0
 288.438476562 552.0234375 282.307617188 553.221679688 276.384765625 553.296875 c 0
471.078125 499.63671875 m 1
 475.0859375 494.181640625 478.403320312 487.766601562 479.6875 480.91015625 c 0
 481.59765625 470.715820312 480.619140625 458.95703125 468.78125 442.0390625 c 0
 456.408203125 424.356445312 430.401367188 402.190429688 384.42578125 378.396484375 c 1
 403.209960938 411.05078125 422 440.927734375 438.64453125 463.2734375 c 0
 451.619140625 480.69140625 463.595703125 493.689453125 471.078125 499.63671875 c 1
148.705078125 227.580078125 m 1
 130.45703125 196.108398438 112.303710938 167.357421875 96.240234375 145.734375 c 0
 83.9365234375 129.171875 72.6689453125 116.8046875 65.302734375 110.595703125 c 1
 62.1845703125 115.741210938 60.4658203125 120.952148438 60.12109375 126.67578125 c 0
 59.5830078125 135.5859375 62.1708984375 146.80859375 71.466796875 161.04296875 c 0
 83.8603515625 180.021484375 108.904296875 203.188476562 148.705078125 227.580078125 c 1
EndSplineSet
Validated: 524329
EndChar

StartChar: q
Encoding: 113 113 17
Width: 578
VWidth: 804
Flags: W
HStem: 500.01 49.5801<523.684 544.52>
VStem: 549.848 49.3652<427.894 493.491>
LayerCount: 2
Fore
SplineSet
278.705078125 553.296875 m 0
 268.83203125 553.422851562 259.53515625 550.4296875 250.66796875 546.978515625 c 0
 236.48046875 541.456054688 222.004882812 533.021484375 206.541015625 522.623046875 c 0
 175.614257812 501.826171875 141.15234375 472.952148438 108.353515625 443.443359375 c 0
 42.7568359375 384.426757812 -15.8515625 322.767578125 -15.8515625 322.767578125 c 2
 -20.0810546875 318.3203125 -22.677734375 312.306640625 -22.677734375 305.69140625 c 0
 -22.677734375 298.625 -19.720703125 292.23828125 -14.970703125 287.720703125 c 0
 -10.5234375 283.491210938 -4.509765625 280.89453125 2.10546875 280.89453125 c 0
 9.171875 280.89453125 15.55859375 283.8515625 20.076171875 288.6015625 c 2
 20.076171875 288.6015625 77.7705078125 349.237304688 141.513671875 406.5859375 c 0
 173.384765625 435.260742188 206.852539062 463.0859375 234.20703125 481.48046875 c 0
 247.884765625 490.677734375 260.13671875 497.4609375 268.65234375 500.775390625 c 0
 268.796875 500.831054688 268.875976562 500.833984375 269.017578125 500.88671875 c 1
 267.678710938 489.291992188 263.041992188 470.758789062 255.642578125 448.998046875 c 0
 243.138671875 412.225585938 222.958984375 365.833007812 199.986328125 319.181640625 c 1
 150.6171875 300.706054688 109.318359375 276.447265625 77.865234375 249.3671875 c 0
 46.4609375 222.329101562 24.4091796875 192.333984375 15.666015625 160.21875 c 0
 6.9228515625 128.103515625 14.189453125 92.8671875 38.443359375 67.630859375 c 0
 46.7236328125 59.015625 61.5859375 55.4833984375 71.82421875 57.595703125 c 0
 82.0634765625 59.7080078125 89.328125 64.466796875 96.376953125 69.955078125 c 0
 110.473632812 80.9306640625 123.783203125 96.5439453125 138.361328125 116.16796875 c 0
 167.518554688 155.416015625 200.133789062 210.545898438 229.869140625 268.02734375 c 0
 231.711914062 271.58984375 233.409179688 275.180664062 235.2265625 278.755859375 c 0
 263.577148438 288.1171875 294.903320312 295.504882812 328.65625 300.22265625 c 1
 305.657226562 253.634765625 286.0859375 207.8125 273.775390625 169.6953125 c 0
 266.56640625 147.372070312 261.709960938 127.912109375 260.48046875 110.59375 c 0
 259.866210938 101.934570312 259.982421875 93.72265625 262.58203125 84.90625 c 0
 265.181640625 76.08984375 271.916015625 65.4619140625 282.869140625 60.482421875 c 0
 299.857421875 52.7587890625 315.14453125 57.1083984375 329.33203125 62.630859375 c 0
 343.51953125 68.1533203125 357.995117188 76.587890625 373.458984375 86.986328125 c 0
 404.385742188 107.783203125 438.849609375 136.657226562 471.6484375 166.166015625 c 0
 537.245117188 225.182617188 595.8515625 286.841796875 595.8515625 286.841796875 c 2
 600.081054688 291.2890625 602.677734375 297.302734375 602.677734375 303.91796875 c 0
 602.677734375 310.984375 599.720703125 317.37109375 594.970703125 321.888671875 c 0
 590.5234375 326.118164062 584.509765625 328.71484375 577.89453125 328.71484375 c 0
 570.828125 328.71484375 564.44140625 325.7578125 559.923828125 321.0078125 c 2
 559.923828125 321.0078125 502.229492188 260.374023438 438.486328125 203.025390625 c 0
 406.615234375 174.350585938 373.147460938 146.5234375 345.79296875 128.12890625 c 0
 332.115234375 118.931640625 319.86328125 112.1484375 311.34765625 108.833984375 c 0
 310.857421875 108.643554688 310.5625 108.61328125 310.107421875 108.455078125 c 1
 311.0234375 118.663085938 314.686523438 135.041992188 320.95703125 154.458984375 c 0
 334.005859375 194.864257812 357.521484375 248.616210938 384.78515625 301.44921875 c 0
 412.048828125 354.282226562 443.192382812 406.5 470.978515625 444.470703125 c 0
 484.872070312 463.456054688 498.026367188 478.892578125 508.51171875 488.609375 c 0
 518.997070312 498.326171875 527.3984375 500.009765625 523.68359375 500.009765625 c 1
 533.836914062 500.009765625 540.93359375 497.627929688 544.69921875 493.6796875 c 0
 548.46484375 489.731445312 553.405273438 480.82421875 550.064453125 455.6484375 c 0
 549.921875 454.573242188 549.84765625 453.475585938 549.84765625 452.361328125 c 0
 549.84765625 439.793945312 559.247070312 429.422851562 571.376953125 427.8125 c 0
 572.452148438 427.669921875 573.549804688 427.595703125 574.6640625 427.595703125 c 0
 587.231445312 427.595703125 597.602539062 436.995117188 599.212890625 449.125 c 0
 603.7265625 483.134765625 597.233398438 510.434570312 580.580078125 527.896484375 c 0
 563.926757812 545.358398438 541.619140625 549.58984375 523.68359375 549.58984375 c 0
 502.57421875 549.58984375 489.096679688 538.211914062 474.8125 524.974609375 c 0
 460.528320312 511.737304688 446.024414062 494.328125 430.966796875 473.751953125 c 0
 406.193359375 439.899414062 380.224609375 397.470703125 356.083984375 353.080078125 c 1
 323.640625 350.34765625 292.8515625 345.439453125 264.083984375 338.5703125 c 1
 279.435546875 372.155273438 292.932617188 404.657226562 302.58203125 433.037109375 c 0
 310.751953125 457.063476562 316.444335938 478.000976562 318.412109375 496.205078125 c 0
 319.396484375 505.306640625 319.650390625 513.75390625 317.490234375 522.88671875 c 0
 315.330078125 532.01953125 308.946289062 543.754882812 297.130859375 549.126953125 c 0
 290.760742188 552.0234375 284.62890625 553.221679688 278.705078125 553.296875 c 0
162.4296875 247.34375 m 1
 140.427734375 207.9375 117.974609375 171.8671875 98.560546875 145.734375 c 0
 86.1689453125 129.053710938 74.81640625 116.607421875 67.45703125 110.447265625 c 1
 60.4033203125 121.244140625 59.4765625 132.401367188 63.50390625 147.1953125 c 0
 68.5849609375 165.858398438 84.0869140625 189.299804688 110.21484375 211.794921875 c 0
 124.610351562 224.189453125 142.194335938 236.217773438 162.4296875 247.34375 c 1
EndSplineSet
Validated: 524329
EndChar

StartChar: r
Encoding: 114 114 18
Width: 290
VWidth: 804
Flags: W
HStem: 59.3281 49.5801<-14.6468 86.9706> 754.219 49.5801<259.122 289.293>
LayerCount: 2
Fore
SplineSet
259.122070312 803.798828125 m 0
 236.805664062 803.798828125 221.176757812 790.862304688 206.309570312 775.474609375 c 0
 191.442382812 760.086914062 176.990234375 739.8984375 162.114257812 715.9375 c 0
 132.361328125 668.014648438 101.383789062 604.998046875 72.1298828125 539.666015625 c 0
 13.6220703125 409.001953125 -37.46484375 269.689453125 -51.3447265625 230.27734375 c 0
 -68.9619140625 180.251953125 -73.662109375 140.408203125 -60.1650390625 108.171875 c 0
 -46.66796875 75.935546875 -12.4658203125 59.328125 23.8974609375 59.328125 c 0
 87.3857421875 59.328125 145.0625 104.130859375 195.221679688 152.970703125 c 0
 245.380859375 201.810546875 287.786132812 257.592773438 311.424804688 287.72265625 c 0
 314.73046875 291.934570312 316.702148438 297.2421875 316.702148438 303.006835938 c 0
 316.702148438 310.924804688 313.009765625 317.989257812 307.223632812 322.529296875 c 0
 303.01171875 325.833984375 297.704101562 327.805664062 291.940429688 327.805664062 c 0
 284.021484375 327.805664062 276.95703125 324.11328125 272.416992188 318.326171875 c 0
 248.271484375 287.549804688 207.248046875 233.879882812 160.633789062 188.4921875 c 0
 114.01953125 143.104492188 61.5751953125 108.908203125 23.8974609375 108.908203125 c 0
 -0.599609375 108.908203125 -8.9189453125 114.149414062 -14.4326171875 127.318359375 c 0
 -19.9462890625 140.487304688 -20.1455078125 169.607421875 -4.5791015625 213.80859375 c 0
 0.1259765625 227.169921875 10.6923828125 255.799804688 23.3818359375 289.37109375 c 1
 33.7431640625 299.802734375 143.342773438 410.692382812 231.926757812 525.90625 c 0
 278.397460938 586.345703125 318.580078125 646.060546875 334.518554688 697.267578125 c 0
 342.487304688 722.87109375 345.42578125 748.87109375 331.834960938 771.373046875 c 0
 318.244140625 793.875 290.864257812 803.798828125 259.122070312 803.798828125 c 0
259.122070312 754.21875 m 1
 281.834960938 754.21875 287.264648438 749.266601562 289.395507812 745.73828125 c 0
 291.526367188 742.209960938 293.098632812 731.021484375 287.178710938 712.001953125 c 0
 275.338867188 673.961914062 237.643554688 614.682617188 192.622070312 556.126953125 c 0
 153.640625 505.427734375 109.82421875 455.064453125 72.1923828125 413.576171875 c 1
 86.375 448.168945312 101.576171875 484.104492188 117.381835938 519.404296875 c 0
 146.146484375 583.643554688 176.65625 645.364257812 204.235351562 689.78515625 c 0
 218.024414062 711.99609375 231.19921875 729.880859375 241.965820312 741.0234375 c 0
 252.732421875 752.166015625 260.745117188 754.21875 259.122070312 754.21875 c 1
EndSplineSet
Validated: 524329
EndChar

StartChar: s
Encoding: 115 115 19
Width: 392
VWidth: 804
Flags: W
HStem: 45.498 135.901<-9.06934 101.04> 487.762 49.4941<170.077 227.963 234.654 262.632>
VStem: -100.887 47.8203<62.6139 129.317>
LayerCount: 2
Fore
SplineSet
103.004882812 554.158203125 m 0
 102.053710938 554.26953125 101.086914062 554.326171875 100.106445312 554.326171875 c 0
 98.8759765625 554.326171875 97.716796875 554.236328125 96.533203125 554.0625 c 0
 87.6650390625 552.760742188 80.3017578125 546.76953125 77.091796875 538.6796875 c 0
 77.1064453125 538.666992188 -99.1484375 94.625 -99.1484375 94.625 c 2
 -100.26953125 91.798828125 -100.88671875 88.71875 -100.88671875 85.4951171875 c 0
 -100.88671875 75.037109375 -94.419921875 66.078125 -85.2509765625 62.439453125 c 0
 -82.42578125 61.318359375 -79.3447265625 60.701171875 -76.1220703125 60.701171875 c 0
 -65.6640625 60.701171875 -56.7060546875 67.1669921875 -53.06640625 76.3359375 c 0
 -53.0703125 76.3603515625 -27.771484375 140.06640625 -27.771484375 140.06640625 c 1
 -9.51171875 113.51953125 33.4541015625 51.2509765625 101.040039062 45.498046875 c 0
 114.854492188 44.322265625 129.193359375 46.2978515625 143.497070312 51.53515625 c 0
 146.340820312 51.705078125 149.092773438 52.3671875 151.599609375 53.41796875 c 2
 151.599609375 53.41796875 157.631835938 56.4765625 164.745117188 61.73046875 c 0
 164.9765625 61.90234375 165.3046875 62.16015625 165.545898438 62.33984375 c 0
 175.94921875 68.767578125 186.171875 77.0517578125 195.997070312 87.29296875 c 0
 197.62890625 88.7041015625 199.037109375 89.892578125 200.796875 91.431640625 c 0
 236.461914062 122.616210938 298.971679688 180.743164062 408.208007812 289.978515625 c 0
 412.6953125 294.465820312 415.471679688 300.663085938 415.471679688 307.50390625 c 0
 415.471679688 314.345703125 412.6953125 320.549804688 408.208007812 325.037109375 c 0
 403.720703125 329.524414062 397.522460938 332.301757812 390.681640625 332.301757812 c 0
 388.459960938 332.301757812 386.310546875 332.001953125 384.26171875 331.453125 c 0
 380 330.311523438 376.178710938 328.067382812 373.1484375 325.037109375 c 0
 334.09765625 285.986328125 301.293945312 253.765625 273.427734375 226.826171875 c 1
 281.5390625 248.952148438 289.490234375 273.4296875 297.283203125 300.6953125 c 0
 316.864257812 369.208984375 329.405273438 422.81640625 322.834960938 466.390625 c 0
 319.548828125 488.177734375 309.799804688 508.884765625 291.870117188 521.82421875 c 0
 276.180664062 533.146484375 256.684570312 537.635742188 234.654296875 537.560546875 c 0
 231.5078125 537.549804688 228.307617188 537.446289062 225.060546875 537.255859375 c 0
 180.895507812 534.666992188 141.638671875 511.375976562 109.259765625 485.32421875 c 1
 123.17578125 520.388671875 l 2
 124.297851562 523.21484375 124.9140625 526.296875 124.9140625 529.520507812 c 0
 124.9140625 539.978515625 118.448242188 548.9375 109.279296875 552.576171875 c 0
 107.3125 553.357421875 105.181640625 553.904296875 103.004882812 554.158203125 c 0
234.7421875 487.978515625 m 0
 249.635742188 488.029296875 258.155273438 485.012695312 262.85546875 481.62109375 c 0
 268.2265625 477.745117188 271.814453125 472.221679688 273.80859375 458.998046875 c 0
 277.797851562 432.549804688 268.672851562 381.01171875 249.611328125 314.3203125 c 0
 222.658203125 220.020507812 193.905273438 162.282226562 168.255859375 130.6796875 c 0
 166.006835938 127.908203125 163.86328125 125.577148438 161.708007812 123.19140625 c 0
 148.568359375 111.891601562 140.015625 105.1015625 135.288085938 101.609375 c 0
 133.872070312 100.564453125 133.935546875 100.577148438 133.370117188 100.138671875 c 0
 123.262695312 95.1669921875 114.072265625 94.146484375 105.245117188 94.8984375 c 0
 69.3525390625 97.9541015625 26.720703125 148.388671875 11.068359375 171.0625 c 0
 6.5673828125 177.321289062 -0.7783203125 181.399414062 -9.0693359375 181.399414062 c 0
 -9.875 181.399414062 -10.634765625 181.338867188 -11.4208984375 181.263671875 c 0
 -11.458984375 181.28515625 62.2939453125 366.990234375 62.2939453125 366.990234375 c 2
 63.0537109375 367.6015625 63.7626953125 368.244140625 64.4453125 368.939453125 c 2
 64.4453125 368.939453125 86.140625 398.08984375 118.478515625 427.90234375 c 0
 150.81640625 457.71484375 193.586914062 485.74609375 227.962890625 487.76171875 c 0
 230.358398438 487.90234375 232.614257812 487.971679688 234.7421875 487.978515625 c 0
EndSplineSet
Validated: 524329
EndChar

StartChar: t
Encoding: 116 116 20
Width: 436
VWidth: 804
Flags: W
HStem: 551.654 21G<322.555 323.177>
VStem: 64.6621 48.2539<535.258 550.596>
LayerCount: 2
Fore
SplineSet
86.517578125 552.01953125 m 0
 76.33984375 551.354492188 67.81640625 544.541015625 64.662109375 535.2578125 c 1
 64.67578125 535.252929688 -86.203125 91.203125 -86.203125 91.203125 c 2
 -87.0498046875 88.705078125 -87.509765625 86.029296875 -87.509765625 83.248046875 c 0
 -87.509765625 69.564453125 -76.400390625 58.455078125 -62.716796875 58.455078125 c 0
 -55.2119140625 58.455078125 -48.4931640625 61.779296875 -43.9453125 67.0546875 c 0
 -43.93359375 67.0732421875 249.908203125 408.3515625 249.908203125 408.3515625 c 1
 234.46875 366.388671875 218.334960938 322.411132812 203.6640625 280.8984375 c 0
 188.049804688 236.715820312 174.129882812 195.493164062 164.466796875 162.380859375 c 0
 159.634765625 145.825195312 155.860351562 131.33984375 153.4453125 119.037109375 c 0
 151.030273438 106.734375 148.75 98.1572265625 151.689453125 84.98046875 c 0
 153.458984375 77.046875 156.096679688 68.2275390625 164.70703125 60.365234375 c 0
 173.31640625 52.5029296875 187.512695312 50.2353515625 197.10546875 52.353515625 c 0
 216.290039062 56.58984375 228.901367188 67.798828125 248.947265625 85.19921875 c 0
 289.038085938 119.999023438 351.360351562 184.061523438 454.255859375 286.95703125 c 0
 458.743164062 291.444335938 461.520507812 297.641601562 461.520507812 304.482421875 c 0
 461.520507812 311.32421875 458.743164062 317.528320312 454.255859375 322.015625 c 0
 449.768554688 326.502929688 443.571289062 329.280273438 436.729492188 329.280273438 c 0
 429.888671875 329.280273438 423.684570312 326.502929688 419.197265625 322.015625 c 0
 316.122070312 218.940429688 252.864257812 154.250976562 216.447265625 122.640625 c 0
 211.30859375 118.180664062 206.731445312 114.646484375 202.58984375 111.623046875 c 1
 204.578125 121.280273438 207.7578125 133.75 212.060546875 148.4921875 c 0
 221.23046875 179.916015625 234.942382812 220.611328125 250.41015625 264.37890625 c 0
 281.344726562 351.913085938 319.28125 451.793945312 342.9765625 519.044921875 c 0
 343.041015625 519.268554688 343.104492188 519.5 343.1640625 519.7265625 c 0
 343.334960938 520.275390625 343.491210938 520.846679688 343.625 521.412109375 c 0
 343.768554688 521.982421875 343.89453125 522.572265625 343.998046875 523.158203125 c 0
 344.08984375 523.729492188 344.162109375 524.307617188 344.21484375 524.890625 c 0
 344.276367188 525.479492188 344.31640625 526.063476562 344.3359375 526.6640625 c 0
 344.338867188 526.815429688 344.33984375 526.967773438 344.33984375 527.120117188 c 0
 344.33984375 527.5703125 344.328125 527.991210938 344.3046875 528.435546875 c 0
 344.28125 529.030273438 344.23828125 529.609375 344.173828125 530.193359375 c 0
 344.099609375 530.77734375 344.00390625 531.362304688 343.890625 531.93359375 c 0
 343.784179688 532.51171875 343.655273438 533.094726562 343.509765625 533.658203125 c 0
 343.353515625 534.2265625 343.172851562 534.801757812 342.978515625 535.353515625 c 0
 342.791992188 535.907226562 342.581054688 536.46484375 342.357421875 537 c 0
 342.124023438 537.536132812 341.869140625 538.068359375 341.599609375 538.583984375 c 0
 341.33203125 539.115234375 341.043945312 539.637695312 340.740234375 540.146484375 c 0
 340.428710938 540.6484375 340.102539062 541.135742188 339.7578125 541.61328125 c 0
 339.422851562 542.091796875 339.077148438 542.552734375 338.7109375 543.005859375 c 0
 338.322265625 543.470703125 337.92578125 543.911132812 337.505859375 544.345703125 c 0
 337.104492188 544.7734375 336.697265625 545.177734375 336.267578125 545.576171875 c 0
 336.102539062 545.744140625 335.938476562 545.90625 335.76953125 546.0703125 c 0
 335.625 546.166992188 335.48046875 546.26171875 335.333984375 546.35546875 c 0
 333.876953125 547.569335938 332.288085938 548.612304688 330.578125 549.470703125 c 0
 330.3515625 549.573242188 330.119140625 549.674804688 329.888671875 549.771484375 c 0
 329.223632812 550.096679688 328.530273438 550.3984375 327.833984375 550.6640625 c 0
 327.234375 550.814453125 326.615234375 550.9453125 326 551.05078125 c 0
 325.41796875 551.267578125 324.810546875 551.467773438 324.208984375 551.640625 c 0
 323.921875 551.650390625 323.6328125 551.655273438 323.342773438 551.655273438 c 0
 323.26953125 551.655273438 323.213867188 551.655273438 323.140625 551.654296875 c 0
 321.969726562 551.82421875 320.771484375 551.912109375 319.553710938 551.912109375 c 0
 318.549804688 551.912109375 317.609375 551.852539062 316.63671875 551.736328125 c 0
 316.206054688 551.724609375 315.790039062 551.702148438 315.365234375 551.66796875 c 0
 315.254882812 551.663085938 315.1484375 551.657226562 315.0390625 551.650390625 c 0
 313.766601562 551.28515625 312.509765625 550.811523438 311.330078125 550.2578125 c 0
 309.923828125 549.866210938 308.540039062 549.34375 307.24609375 548.72265625 c 0
 306.077148438 547.922851562 304.999023438 547.041015625 303.986328125 546.05859375 c 0
 302.848632812 545.275390625 301.797851562 544.416015625 300.80859375 543.458984375 c 0
 300.790039062 543.443359375 1.83984375 196.21875 1.83984375 196.21875 c 1
 111.60546875 519.30859375 l 2
 112.455078125 521.810546875 112.916015625 524.490234375 112.916015625 527.278320312 c 0
 112.916015625 538.172851562 105.884765625 547.43359375 96.107421875 550.755859375 c 0
 93.6064453125 551.604492188 90.927734375 552.065429688 88.1416015625 552.065429688 c 0
 87.58984375 552.065429688 87.0595703125 552.0546875 86.517578125 552.01953125 c 0
EndSplineSet
Validated: 524325
EndChar

StartChar: u
Encoding: 117 117 21
Width: 456
VWidth: 804
Flags: W
HStem: 56.5059 49.5801<73.7859 183.182>
LayerCount: 2
Fore
SplineSet
305.596679688 554.2890625 m 1
 298.419921875 554.541992188 291.201171875 553.982421875 284.112304688 552.794921875 c 0
 246.302734375 546.463867188 208.521484375 524.033203125 170.567382812 496.173828125 c 0
 94.6591796875 440.454101562 19.8642578125 360.172851562 -13.1201171875 324.28125 c 0
 -17.177734375 319.866210938 -19.6552734375 313.978515625 -19.6552734375 307.515625 c 0
 -19.6552734375 300.295898438 -16.5732421875 293.786132812 -11.6416015625 289.25390625 c 0
 -7.2265625 285.196289062 -1.3388671875 282.71875 5.1240234375 282.71875 c 0
 12.34375 282.71875 18.853515625 285.80078125 23.3857421875 290.732421875 c 0
 55.912109375 326.125976562 129.90234375 404.8203125 199.905273438 456.205078125 c 0
 234.907226562 481.897460938 269.36328125 500.053710938 292.301757812 503.89453125 c 0
 303.771484375 505.815429688 311.459960938 504.596679688 317.208007812 501.560546875 c 0
 322.830078125 498.590820312 328.260742188 493.258789062 333.321289062 480.86328125 c 0
 337.875 465.961914062 338.965820312 431.734375 332.344726562 392.193359375 c 0
 325.626953125 352.0703125 311.99609375 305.682617188 291.924804688 262.458984375 c 0
 271.853515625 219.235351562 245.284179688 179.251953125 213.877929688 150.998046875 c 0
 182.471679688 122.744140625 147.213867188 106.0859375 105.833007812 106.0859375 c 0
 103.029296875 106.0859375 95.2626953125 108.764648438 87.5771484375 114.5625 c 0
 79.8916015625 120.360351562 72.453125 128.641601562 68.9599609375 133.732421875 c 0
 64.4912109375 140.245117188 56.9931640625 144.520507812 48.5048828125 144.520507812 c 0
 43.3115234375 144.520507812 38.478515625 142.880859375 34.4931640625 140.146484375 c 0
 27.9814453125 135.677734375 23.7060546875 128.180664062 23.7060546875 119.692382812 c 0
 23.7060546875 114.498046875 25.345703125 109.665039062 28.0810546875 105.6796875 c 0
 35.0693359375 95.49609375 45.0087890625 84.5712890625 57.7197265625 74.982421875 c 0
 70.4306640625 65.3935546875 86.0791015625 56.505859375 105.833007812 56.505859375 c 0
 113.05078125 56.505859375 120.137695312 56.927734375 127.104492188 57.69921875 c 0
 132.295898438 57.1669921875 140.436523438 56.697265625 150.594726562 57.73828125 c 0
 167.413085938 59.4619140625 191.069335938 64.72265625 221.159179688 77.970703125 c 0
 281.338867188 104.466796875 367.211914062 162.658203125 478.538085938 289.033203125 c 0
 482.38671875 293.401367188 484.721679688 299.134765625 484.721679688 305.408203125 c 0
 484.721679688 312.81640625 481.481445312 319.477539062 476.323242188 324.021484375 c 0
 473.125 326.838867188 469.165039062 328.849609375 464.827148438 329.72265625 c 0
 463.240234375 330.041992188 461.598632812 330.209960938 459.91796875 330.209960938 c 0
 452.509765625 330.209960938 445.87890625 326.96484375 441.334960938 321.806640625 c 0
 392.569335938 266.448242188 349.428710938 225.341796875 311.967773438 194.69921875 c 1
 321.114257812 209.86328125 329.458007812 225.565429688 336.893554688 241.578125 c 0
 359.034179688 289.259765625 373.760742188 339.319335938 381.243164062 384.005859375 c 0
 388.725585938 428.692382812 389.973632812 467.114257812 380.288085938 496.923828125 c 0
 380.126953125 497.418945312 379.947265625 497.918945312 379.756835938 498.400390625 c 0
 371.412109375 519.444335938 357.90234375 536.134765625 340.366210938 545.3984375 c 0
 329.40625 551.188476562 317.557617188 553.8671875 305.596679688 554.2890625 c 1
EndSplineSet
Validated: 524329
EndChar

StartChar: v
Encoding: 118 118 22
Width: 454
VWidth: 804
Flags: W
HStem: -190.766 49.543<18.1433 169.069> 502.42 49.5801<198.448 306.943>
LayerCount: 2
Fore
SplineSet
259.653320312 552 m 0
 184.959960938 552 118.088867188 490.873046875 65.7333984375 434.17578125 c 0
 13.376953125 377.478515625 -23.3935546875 321.060546875 -23.3935546875 321.060546875 c 2
 -25.9345703125 317.168945312 -27.412109375 312.522460938 -27.412109375 307.532226562 c 0
 -27.412109375 298.83984375 -22.9697265625 291.17578125 -16.19140625 286.75 c 0
 -12.2998046875 284.209960938 -7.6533203125 282.732421875 -2.6640625 282.732421875 c 0
 6.0283203125 282.732421875 13.69140625 287.174804688 18.1181640625 293.953125 c 2
 18.1181640625 293.953125 53.076171875 347.387695312 102.159179688 400.541015625 c 0
 151.241210938 453.694335938 215.515625 502.419921875 259.653320312 502.419921875 c 0
 280.038085938 502.419921875 292.8984375 497.943359375 301.768554688 491.578125 c 0
 310.638671875 485.212890625 316.666992188 476.32421875 320.79296875 462.80859375 c 0
 329.045898438 435.778320312 326.0546875 391.298828125 314.286132812 342.7578125 c 0
 291.72265625 249.708007812 240.3125 142.3828125 212.610351562 91.89453125 c 1
 148.01953125 62.138671875 45.052734375 9.8408203125 -43.248046875 -38.65625 c 0
 -89.0830078125 -63.830078125 -130.71484375 -87.826171875 -161.016601562 -107.25390625 c 0
 -176.16796875 -116.967773438 -188.393554688 -125.408203125 -197.6640625 -133.099609375 c 0
 -202.297851562 -136.9453125 -206.18359375 -140.401367188 -209.967773438 -145.265625 c 0
 -211.860351562 -147.698242188 -213.858398438 -150.459960938 -215.543945312 -155.119140625 c 0
 -217.23046875 -159.778320312 -218.557617188 -167.772460938 -214.990234375 -175.853515625 c 0
 -211.142578125 -184.5625 -202.42578125 -190.646484375 -192.299804688 -190.646484375 c 0
 -186.727539062 -190.646484375 -181.573242188 -188.772460938 -177.430664062 -185.6640625 c 0
 -128.16796875 -148.682617188 -96.6982421875 -139.390625 -73.1689453125 -139.765625 c 0
 -49.640625 -140.140625 -30.001953125 -150.715820312 -4.0009765625 -163.978515625 c 0
 21.9990234375 -177.241210938 54.4072265625 -192.392578125 96.9091796875 -190.765625 c 0
 139.41015625 -189.138671875 189.676757812 -171.432617188 255.325195312 -127.2421875 c 0
 261.94140625 -122.7890625 266.296875 -115.23046875 266.296875 -106.662109375 c 0
 266.296875 -101.547851562 264.705078125 -96.783203125 262.046875 -92.833984375 c 0
 257.59375 -86.2177734375 250.03515625 -81.861328125 241.466796875 -81.861328125 c 0
 236.352539062 -81.861328125 231.587890625 -83.453125 227.638671875 -86.111328125 c 0
 166.626953125 -127.181640625 125.23046875 -140.065429688 95.009765625 -141.22265625 c 0
 64.7900390625 -142.379882812 43.4189453125 -132.510742188 18.5263671875 -119.8125 c 0
 1.005859375 -110.875 -18.318359375 -100.25 -41.3037109375 -94.466796875 c 1
 -33.8056640625 -90.2783203125 -27.1689453125 -86.3896484375 -19.3798828125 -82.111328125 c 0
 71.16796875 -32.37890625 179.08203125 22.26953125 240.750976562 50.30078125 c 0
 242.493164062 51.107421875 244.125976562 52.1064453125 245.622070312 53.27734375 c 0
 245.7109375 53.3408203125 245.798828125 53.404296875 245.88671875 53.46875 c 0
 248.349609375 55.4296875 250.396484375 57.8125 251.966796875 60.560546875 c 0
 252.01171875 60.611328125 252.0546875 60.6611328125 252.09765625 60.712890625 c 0
 252.174804688 60.849609375 252.27734375 61.0458984375 252.354492188 61.18359375 c 0
 252.35546875 61.1845703125 252.35546875 61.1865234375 252.356445312 61.1875 c 0
 252.36328125 61.2001953125 252.370117188 61.2138671875 252.376953125 61.2265625 c 0
 252.377929688 61.2275390625 252.376953125 61.228515625 252.376953125 61.228515625 c 1
 281.147460938 112.450195312 336.962890625 225.881835938 362.46875 331.076171875 c 0
 375.259765625 383.828125 381.27734375 434.495117188 368.212890625 477.287109375 c 0
 361.680664062 498.68359375 349.469726562 518.374023438 330.671875 531.861328125 c 0
 311.875 545.349609375 287.639648438 552 259.653320312 552 c 0
EndSplineSet
Validated: 524329
EndChar

StartChar: w
Encoding: 119 119 23
Width: 421
VWidth: 804
Flags: W
HStem: 503.225 49.5723<151.212 247.571>
VStem: 262.667 50.2461<324.588 490.278>
LayerCount: 2
Fore
SplineSet
208.633789062 552.796875 m 2
 175.254882812 551.991210938 143.231445312 537.92578125 114.971679688 517 c 0
 80.5224609375 491.490234375 50.326171875 455.409179688 25.5029296875 414.916015625 c 0
 -24.142578125 333.9296875 -54.2236328125 236.219726562 -36.1005859375 161.203125 c 0
 -21.6181640625 101.259765625 23.9267578125 60.6181640625 77.6123046875 57.208984375 c 0
 131.297851562 53.7998046875 188.690429688 85.9384765625 231.196289062 152.298828125 c 0
 257.733398438 193.727539062 280.000976562 243.404296875 294.692382812 293.767578125 c 1
 301.036132812 285.069335938 309.162109375 277.337890625 320.116210938 271.86328125 c 0
 342.654296875 260.599609375 412.635742188 267.150390625 438.321289062 288.41015625 c 0
 443.817382812 292.958984375 447.321289062 299.831054688 447.321289062 307.515625 c 0
 447.321289062 313.513671875 445.163085938 319.024414062 441.612304688 323.314453125 c 0
 437.064453125 328.809570312 430.192382812 332.313476562 422.5078125 332.313476562 c 0
 416.510742188 332.313476562 411.426148744 329.565725673 406.709960938 326.60546875 c 0
 393 318 385.916405442 317.49802889 382.280273438 316.21484375 c 0
 342 302 331.000976562 327.354492188 325.520507812 341.27734375 c 0
 320.040039062 355.200195312 316.395507812 371.907226562 314.395507812 383.412109375 c 0
 313.735351562 387.212890625 313.291015625 390.131835938 312.913085938 392.66796875 c 0
 315.014648438 425.264648438 312.45703125 456.05859375 302.559570312 483.083984375 c 0
 291.177734375 514.165039062 267.719726562 540.626953125 233.936523438 550.62890625 c 0
 232.904296875 550.934570312 231.823242188 551.1796875 230.739257812 551.349609375 c 0
 225.580078125 552.159179688 220.439453125 552.627929688 215.327148438 552.779296875 c 0
 213.090820312 552.845703125 210.859375 552.850585938 208.633789062 552.796875 c 2
213.749023438 503.224609375 m 0
 216.348632812 503.149414062 218.916992188 502.858398438 221.475585938 502.513671875 c 0
 238.7734375 496.903320312 248.741210938 485.870117188 256.004882812 466.03515625 c 0
 262.098632812 449.396484375 264.694335938 426.783203125 263.625976562 401.1328125 c 0
 263.526367188 400.752929688 263.408203125 400.333007812 263.336914062 400.029296875 c 0
 262.870117188 398.038085938 262.837890625 397.251953125 262.774414062 396.583984375 c 0
 262.649414062 395.249023438 262.66015625 394.749023438 262.651367188 394.240234375 c 0
 262.634765625 393.22265625 262.651367188 392.530273438 262.666992188 391.646484375 c 0
 262.752929688 391.181640625 262.853515625 390.711914062 262.963867188 390.255859375 c 0
 262.772460938 387.84765625 262.61328125 385.462890625 262.358398438 383.01171875 c 0
 255.466796875 316.763671875 226.17578125 236.381835938 189.446289062 179.041015625 c 0
 153.79296875 123.379882812 112.469726562 104.67578125 80.7548828125 106.689453125 c 0
 49.041015625 108.703125 22.5048828125 129.748046875 12.0927734375 172.845703125 c 0
 -0.23828125 223.88671875 23.2802734375 316.423828125 67.7724609375 389.00390625 c 0
 90.01953125 425.293945312 117.025390625 456.828125 144.475585938 477.154296875 c 0
 168.495117188 494.939453125 191.827148438 503.85546875 213.749023438 503.224609375 c 0
EndSplineSet
Validated: 524329
EndChar

StartChar: x
Encoding: 120 120 24
Width: 586
VWidth: 804
Flags: W
HStem: -20.0176 20G<286.896 296.328> 503.469 49.5801<200.898 248.437>
VStem: 248.633 49.5293<442.283 503.33> 464.041 49.4189<361.846 503.075>
LayerCount: 2
Fore
SplineSet
441.338867188 556.728515625 m 2
 430.712890625 556.6796875 419.716796875 555.002929688 408.802734375 552.345703125 c 0
 389.794921875 547.717773438 375.163085938 535.956054688 359.3671875 520.8515625 c 0
 343.571289062 505.747070312 327.28125 486.525390625 310.4296875 464.408203125 c 0
 304.994140625 457.274414062 299.4453125 449.415039062 293.923828125 441.73046875 c 1
 296.158203125 453.52734375 297.684570312 464.848632812 298.162109375 475.490234375 c 0
 298.998046875 494.115234375 297.323242188 511.66015625 287.701171875 527.330078125 c 0
 278.079101562 543 258.439453125 553.048828125 239.103515625 553.048828125 c 0
 208.899414062 553.048828125 186.809570312 534.8671875 159.86328125 513.025390625 c 0
 132.91796875 491.18359375 104.140625 463.041015625 77.34765625 435.013671875 c 0
 23.7626953125 378.958984375 -21.77734375 323.193359375 -21.77734375 323.193359375 c 2
 -25.267578125 318.921875 -27.3623046875 313.465820312 -27.3623046875 307.524414062 c 0
 -27.3623046875 299.783203125 -23.8310546875 292.858398438 -18.265625 288.310546875 c 0
 -13.994140625 284.8203125 -8.537109375 282.725585938 -2.595703125 282.725585938 c 0
 5.14453125 282.725585938 12.0703125 286.255859375 16.6171875 291.822265625 c 2
 16.6171875 291.822265625 61.259765625 346.432617188 113.1875 400.75390625 c 0
 139.151367188 427.9140625 166.963867188 454.959960938 191.08203125 474.509765625 c 0
 215.200195312 494.059570312 238.649414062 503.46875 239.103515625 503.46875 c 0
 245.87109375 503.46875 244.095703125 503.594726562 245.451171875 501.38671875 c 0
 246.807617188 499.178710938 249.224609375 490.895507812 248.6328125 477.71484375 c 0
 247.44921875 451.352539062 235.873046875 408.651367188 218.232421875 361.984375 c 0
 198.298828125 309.250976562 171.043945312 250.928710938 144.43359375 198.443359375 c 0
 110.940429688 137.9375 87.203125 92.095703125 87.203125 92.095703125 c 2
 87.056640625 91.515625 86.927734375 90.916015625 86.822265625 90.3203125 c 0
 85.6416015625 87.525390625 84.9462890625 84.4423828125 84.873046875 81.236328125 c 0
 84.873046875 81.1884765625 84.873046875 81.140625 84.873046875 81.0927734375 c 0
 84.873046875 79.935546875 84.9521484375 78.82421875 85.10546875 77.708984375 c 0
 85.5068359375 74.744140625 86.4482421875 71.89453125 87.802734375 69.357421875 c 0
 88.177734375 68.47265625 88.607421875 67.6044921875 89.078125 66.775390625 c 0
 91.1083984375 63.7392578125 93.75 61.2158203125 96.884765625 59.326171875 c 0
 97.11328125 59.2451171875 97.3486328125 59.1650390625 97.580078125 59.08984375 c 0
 97.7119140625 58.96875 97.8408203125 58.8525390625 97.974609375 58.734375 c 0
 98.5576171875 58.5869140625 99.1611328125 58.45703125 99.759765625 58.3515625 c 0
 102.551757812 57.171875 105.631835938 56.478515625 108.834960938 56.404296875 c 0
 108.881835938 56.404296875 108.9296875 56.404296875 108.9765625 56.404296875 c 0
 110.134765625 56.404296875 111.247070312 56.482421875 112.36328125 56.63671875 c 0
 115.322265625 57.0380859375 118.166992188 57.9775390625 120.69921875 59.328125 c 0
 121.591796875 59.705078125 122.466796875 60.1376953125 123.302734375 60.61328125 c 0
 126.3359375 62.6435546875 128.856445312 65.2841796875 130.744140625 68.416015625 c 0
 147.369140625 97.2451171875 168.006835938 135.166015625 189.03515625 176.64453125 c 0
 207.345703125 209.677734375 227.670898438 245.690429688 250.521484375 283.822265625 c 0
 282.977539062 337.982421875 318.130859375 392.704101562 349.8671875 434.359375 c 0
 365.735351562 455.186523438 380.80078125 472.748046875 393.6328125 485.017578125 c 0
 406.463867188 497.287109375 417.733398438 503.4921875 420.533203125 504.173828125 c 0
 442.336914062 509.482421875 452.432617188 506.798828125 456.453125 503.248046875 c 0
 460.474609375 499.697265625 466.500976562 487.465820312 464.041015625 457.05078125 c 0
 459.2578125 397.883789062 422.272460938 283.567382812 341.685546875 103.650390625 c 1
 282.08984375 50.6474609375 226.09375 -0.4482421875 189.127929688 -45.111328125 c 0
 165.141601562 -74.0908203125 147.323242188 -99.59765625 145.568359375 -129.474609375 c 0
 144.690429688 -144.413085938 150.146484375 -161.038085938 161.400390625 -172.361328125 c 0
 172.654296875 -183.684570312 187.494140625 -190.021484375 204.99609375 -194.005859375 c 0
 232.651367188 -200.30078125 260.129882812 -191.190429688 278.150390625 -173.775390625 c 0
 296.171875 -156.360351562 307.543945312 -133.158203125 317.900390625 -107.0390625 c 0
 338.615234375 -54.80078125 354.391601562 11.109375 380.330078125 68.453125 c 0
 381.143554688 70.2509765625 381.806640625 71.810546875 382.611328125 73.595703125 c 0
 397.764648438 87.0888671875 413.013671875 100.630859375 428.38671875 114.3125 c 0
 457.337890625 140.077148438 498.287109375 181.245117188 533.798828125 217.59765625 c 0
 551.553710938 235.7734375 567.881835938 252.6953125 580.4140625 265.677734375 c 0
 592.946289062 278.66015625 602.803710938 288.73046875 603.603515625 289.486328125 c 0
 608.389648438 294.006835938 611.377929688 300.411132812 611.377929688 307.5078125 c 0
 611.377929688 314.092773438 608.797851562 320.087890625 604.603515625 324.529296875 c 0
 600.083007812 329.315429688 593.678710938 332.303710938 586.58203125 332.303710938 c 0
 579.997070312 332.303710938 574.001953125 329.723632812 569.560546875 325.529296875 c 0
 564.995117188 321.217773438 557.283203125 313.102539062 544.744140625 300.11328125 c 0
 532.205078125 287.124023438 515.956054688 270.286132812 498.33203125 252.244140625 c 0
 476.3671875 229.758789062 452.481445312 205.745117188 430.91015625 184.78515625 c 1
 482.655273438 309.211914062 508.725585938 394.505859375 513.459960938 453.0546875 c 0
 516.50390625 490.706054688 510.940429688 521.275390625 489.271484375 540.41015625 c 0
 475.728515625 552.369140625 459.048828125 556.810546875 441.340820312 556.728515625 c 2
 441.338867188 556.728515625 l 2
301.724609375 -0.017578125 m 1
 290.931640625 -33.0009765625 281.659179688 -63.9267578125 271.810546875 -88.763671875 c 0
 262.571289062 -112.063476562 252.557617188 -129.559570312 243.6953125 -138.123046875 c 0
 234.833984375 -146.686523438 229.930664062 -148.833007812 216.000976562 -145.662109375 c 0
 204.135742188 -142.9609375 198.3359375 -139.194335938 196.564453125 -137.412109375 c 0
 194.793945312 -135.629882812 194.83984375 -136.146484375 195.060546875 -132.3828125 c 0
 195.50390625 -124.854492188 205.9140625 -102.587890625 227.3203125 -76.724609375 c 0
 246.059570312 -54.083984375 272.06640625 -27.96875 301.724609375 -0.017578125 c 1
EndSplineSet
Validated: 524329
EndChar

StartChar: y
Encoding: 121 121 25
Width: 579
VWidth: 804
Flags: W
LayerCount: 2
Fore
SplineSet
463.569335938 556.193359375 m 0
 462.93359375 556.2421875 462.291015625 556.267578125 461.642578125 556.267578125 c 0
 460.078125 556.267578125 458.590820312 556.12109375 457.106445312 555.84375 c 0
 448.345703125 554.205078125 441.1875 547.959960938 438.282226562 539.71484375 c 0
 420.9140625 490.421875 395.350585938 422.194335938 370.524414062 354.048828125 c 0
 370.037109375 354.129882812 369.54296875 354.196289062 369.045898438 354.248046875 c 0
 331.409179688 351.891601562 296.041992188 346.418945312 263.174804688 338.5703125 c 1
 278.526367188 372.155273438 292.0234375 404.657226562 301.672851562 433.037109375 c 0
 309.842773438 457.063476562 315.53515625 478.000976562 317.502929688 496.205078125 c 0
 318.487304688 505.306640625 318.741210938 513.75390625 316.581054688 522.88671875 c 0
 314.421875 532.01953125 308.037109375 543.754882812 296.221679688 549.126953125 c 0
 289.8515625 552.0234375 283.719726562 553.221679688 277.795898438 553.296875 c 0
 267.922851562 553.422851562 258.627929688 550.4296875 249.760742188 546.978515625 c 0
 235.573242188 541.456054688 221.095703125 533.021484375 205.631835938 522.623046875 c 0
 174.705078125 501.826171875 140.243164062 472.952148438 107.444335938 443.443359375 c 0
 41.84765625 384.426757812 -16.7587890625 322.767578125 -16.7587890625 322.767578125 c 2
 -20.9873046875 318.3203125 -23.5849609375 312.306640625 -23.5849609375 305.69140625 c 0
 -23.5849609375 298.625 -20.6279296875 292.23828125 -15.8779296875 287.720703125 c 0
 -11.4306640625 283.491210938 -5.4169921875 280.89453125 1.1982421875 280.89453125 c 0
 8.2646484375 280.89453125 14.6513671875 283.8515625 19.1689453125 288.6015625 c 2
 19.1689453125 288.6015625 76.8642578125 349.237304688 140.606445312 406.5859375 c 0
 172.477539062 435.260742188 205.9453125 463.0859375 233.299804688 481.48046875 c 0
 246.977539062 490.677734375 259.229492188 497.4609375 267.745117188 500.775390625 c 0
 267.888671875 500.831054688 267.967773438 500.833984375 268.108398438 500.88671875 c 1
 266.770507812 489.291992188 262.1328125 470.758789062 254.733398438 448.998046875 c 0
 242.229492188 412.225585938 222.049804688 365.833007812 199.077148438 319.181640625 c 1
 149.708984375 300.706054688 108.41015625 276.447265625 76.9580078125 249.3671875 c 0
 45.5537109375 222.329101562 23.501953125 192.333984375 14.7587890625 160.21875 c 0
 6.015625 128.103515625 13.2822265625 92.8671875 37.5361328125 67.630859375 c 0
 45.81640625 59.015625 60.6787109375 55.4833984375 70.9169921875 57.595703125 c 0
 81.15625 59.7080078125 88.421875 64.466796875 95.4697265625 69.955078125 c 0
 109.56640625 80.9306640625 122.874023438 96.5439453125 137.452148438 116.16796875 c 0
 166.609375 155.416015625 199.2265625 210.545898438 228.961914062 268.02734375 c 0
 230.8046875 271.58984375 232.501953125 275.180664062 234.319335938 278.755859375 c 0
 269.418945312 290.345703125 309.001953125 298.991210938 352.223632812 303.1640625 c 1
 350.087890625 297.181640625 347.809570312 290.983398438 345.727539062 285.091796875 c 0
 330.11328125 240.909179688 316.19140625 199.686523438 306.528320312 166.57421875 c 0
 301.697265625 150.018554688 297.923828125 135.53125 295.508789062 123.228515625 c 0
 293.09375 110.92578125 290.811523438 102.3515625 293.750976562 89.173828125 c 0
 295.521484375 81.240234375 298.161132812 72.4208984375 306.770507812 64.55859375 c 0
 315.380859375 56.6962890625 329.577148438 54.4287109375 339.168945312 56.546875 c 0
 358.354492188 60.783203125 370.96484375 71.9912109375 391.010742188 89.390625 c 0
 431.103515625 124.190429688 493.42578125 188.254882812 596.323242188 291.150390625 c 0
 600.810546875 295.637695312 603.587890625 301.834960938 603.587890625 308.67578125 c 0
 603.587890625 315.517578125 600.810546875 321.721679688 596.323242188 326.208984375 c 0
 591.8359375 330.6953125 585.638671875 333.47265625 578.798828125 333.47265625 c 0
 571.958007812 333.47265625 565.75390625 330.6953125 561.266601562 326.208984375 c 0
 458.189453125 223.133789062 394.928710938 158.444335938 358.510742188 126.833984375 c 0
 353.373046875 122.374023438 348.79296875 118.83984375 344.651367188 115.81640625 c 1
 346.639648438 125.473632812 349.822265625 137.943359375 354.124023438 152.685546875 c 0
 363.294921875 184.109375 377.005859375 224.8046875 392.473632812 268.572265625 c 0
 423.41015625 356.107421875 461.34765625 455.987304688 485.043945312 523.23828125 c 0
 485.952148438 525.814453125 486.4453125 528.583984375 486.4453125 531.46875 c 0
 486.4453125 542.266601562 479.54296875 551.459960938 469.901367188 554.857421875 c 0
 467.905273438 555.560546875 465.76171875 556.024414062 463.569335938 556.193359375 c 0
161.522460938 247.34375 m 1
 139.520507812 207.9375 117.067382812 171.8671875 97.6533203125 145.734375 c 0
 85.26171875 129.053710938 73.9091796875 116.60546875 66.5498046875 110.4453125 c 1
 59.49609375 121.2421875 58.5693359375 132.400390625 62.5966796875 147.1953125 c 0
 67.677734375 165.858398438 83.1806640625 189.299804688 109.307617188 211.794921875 c 0
 123.703125 224.189453125 141.287109375 236.217773438 161.522460938 247.34375 c 1
EndSplineSet
Validated: 524329
EndChar

StartChar: z
Encoding: 122 122 26
Width: 436
VWidth: 804
Flags: W
HStem: -119.48 49.5625<-35.4252 102.926> 551.654 21G<322.555 323.177>
VStem: 64.6621 48.2539<535.258 550.596>
LayerCount: 2
Fore
SplineSet
86.517578125 552.01953125 m 0
 76.33984375 551.354492188 67.81640625 544.541015625 64.662109375 535.2578125 c 1
 64.67578125 535.252929688 -86.203125 91.203125 -86.203125 91.203125 c 2
 -87.0498046875 88.705078125 -87.509765625 86.029296875 -87.509765625 83.248046875 c 0
 -87.509765625 69.564453125 -76.400390625 58.455078125 -62.716796875 58.455078125 c 0
 -55.2119140625 58.455078125 -48.4931640625 61.779296875 -43.9453125 67.0546875 c 0
 -43.93359375 67.0732421875 249.908203125 408.3515625 249.908203125 408.3515625 c 1
 234.46875 366.388671875 218.334960938 322.411132812 203.6640625 280.8984375 c 0
 188.049804688 236.715820312 174.129882812 195.493164062 164.466796875 162.380859375 c 0
 159.634765625 145.825195312 155.860351562 131.33984375 153.4453125 119.037109375 c 0
 151.030273438 106.734375 148.75 98.1572265625 151.689453125 84.98046875 c 0
 153.458984375 77.046875 156.096679688 68.2275390625 164.70703125 60.365234375 c 0
 173.31640625 52.5029296875 187.512695312 50.2353515625 197.10546875 52.353515625 c 0
 216.290039062 56.58984375 228.901367188 67.798828125 248.947265625 85.19921875 c 0
 289.038085938 119.999023438 351.360351562 184.061523438 454.255859375 286.95703125 c 0
 458.743164062 291.444335938 461.520507812 297.641601562 461.520507812 304.482421875 c 0
 461.520507812 311.32421875 458.743164062 317.528320312 454.255859375 322.015625 c 0
 449.768554688 326.502929688 443.571289062 329.280273438 436.729492188 329.280273438 c 0
 429.888671875 329.280273438 423.684570312 326.502929688 419.197265625 322.015625 c 0
 316.122070312 218.940429688 252.864257812 154.250976562 216.447265625 122.640625 c 0
 211.30859375 118.180664062 206.731445312 114.646484375 202.58984375 111.623046875 c 1
 204.578125 121.280273438 207.7578125 133.75 212.060546875 148.4921875 c 0
 221.23046875 179.916015625 234.942382812 220.611328125 250.41015625 264.37890625 c 0
 281.344726562 351.913085938 319.28125 451.793945312 342.9765625 519.044921875 c 0
 343.041015625 519.268554688 343.104492188 519.5 343.1640625 519.7265625 c 0
 343.334960938 520.275390625 343.491210938 520.846679688 343.625 521.412109375 c 0
 343.768554688 521.982421875 343.89453125 522.572265625 343.998046875 523.158203125 c 0
 344.08984375 523.729492188 344.162109375 524.307617188 344.21484375 524.890625 c 0
 344.276367188 525.479492188 344.31640625 526.063476562 344.3359375 526.6640625 c 0
 344.338867188 526.815429688 344.33984375 526.967773438 344.33984375 527.120117188 c 0
 344.33984375 527.5703125 344.328125 527.991210938 344.3046875 528.435546875 c 0
 344.28125 529.030273438 344.23828125 529.609375 344.173828125 530.193359375 c 0
 344.099609375 530.77734375 344.00390625 531.362304688 343.890625 531.93359375 c 0
 343.784179688 532.51171875 343.655273438 533.094726562 343.509765625 533.658203125 c 0
 343.353515625 534.2265625 343.172851562 534.801757812 342.978515625 535.353515625 c 0
 342.791992188 535.907226562 342.581054688 536.46484375 342.357421875 537 c 0
 342.124023438 537.536132812 341.869140625 538.068359375 341.599609375 538.583984375 c 0
 341.33203125 539.115234375 341.043945312 539.637695312 340.740234375 540.146484375 c 0
 340.428710938 540.6484375 340.102539062 541.135742188 339.7578125 541.61328125 c 0
 339.422851562 542.091796875 339.077148438 542.552734375 338.7109375 543.005859375 c 0
 338.322265625 543.470703125 337.92578125 543.911132812 337.505859375 544.345703125 c 0
 337.104492188 544.7734375 336.697265625 545.177734375 336.267578125 545.576171875 c 0
 336.102539062 545.744140625 335.938476562 545.90625 335.76953125 546.0703125 c 0
 335.625 546.166992188 335.48046875 546.26171875 335.333984375 546.35546875 c 0
 333.876953125 547.569335938 332.288085938 548.612304688 330.578125 549.470703125 c 0
 330.3515625 549.573242188 330.119140625 549.674804688 329.888671875 549.771484375 c 0
 329.223632812 550.096679688 328.530273438 550.3984375 327.833984375 550.6640625 c 0
 327.234375 550.814453125 326.615234375 550.9453125 326 551.05078125 c 0
 325.41796875 551.267578125 324.810546875 551.467773438 324.208984375 551.640625 c 0
 323.921875 551.650390625 323.6328125 551.655273438 323.342773438 551.655273438 c 0
 323.26953125 551.655273438 323.213867188 551.655273438 323.140625 551.654296875 c 0
 321.969726562 551.82421875 320.771484375 551.912109375 319.553710938 551.912109375 c 0
 318.549804688 551.912109375 317.609375 551.852539062 316.63671875 551.736328125 c 0
 316.206054688 551.724609375 315.790039062 551.702148438 315.365234375 551.66796875 c 0
 315.254882812 551.663085938 315.1484375 551.657226562 315.0390625 551.650390625 c 0
 313.766601562 551.28515625 312.509765625 550.811523438 311.330078125 550.2578125 c 0
 309.923828125 549.866210938 308.540039062 549.34375 307.24609375 548.72265625 c 0
 306.077148438 547.922851562 304.999023438 547.041015625 303.986328125 546.05859375 c 0
 302.848632812 545.275390625 301.797851562 544.416015625 300.80859375 543.458984375 c 0
 300.790039062 543.443359375 1.83984375 196.21875 1.83984375 196.21875 c 1
 111.60546875 519.30859375 l 2
 112.455078125 521.810546875 112.916015625 524.490234375 112.916015625 527.278320312 c 0
 112.916015625 538.172851562 105.884765625 547.43359375 96.107421875 550.755859375 c 0
 93.6064453125 551.604492188 90.927734375 552.065429688 88.1416015625 552.065429688 c 0
 87.58984375 552.065429688 87.0595703125 552.0546875 86.517578125 552.01953125 c 0
174.70703125 -19.35546875 m 0
 174.291992188 -19.3349609375 173.874023438 -19.32421875 173.453125 -19.32421875 c 0
 169.390625 -19.32421875 165.547851562 -20.3193359375 162.162109375 -22.0546875 c 2
 162.162109375 -22.0546875 137.704101562 -34.5791015625 106.91015625 -46.935546875 c 0
 76.115234375 -59.2919921875 37.7265625 -70.400390625 19.90625 -69.91796875 c 0
 -21.2216796875 -68.8046875 -43.064453125 -40.158203125 -43.064453125 -40.158203125 c 2
 -47.59765625 -34.2548828125 -54.7265625 -30.4462890625 -62.7373046875 -30.4462890625 c 0
 -68.408203125 -30.4462890625 -73.6455078125 -32.384765625 -77.82421875 -35.59375 c 0
 -83.7275390625 -40.126953125 -87.5361328125 -47.255859375 -87.5361328125 -55.2666015625 c 0
 -87.5361328125 -60.9375 -85.59765625 -66.1748046875 -82.388671875 -70.353515625 c 2
 -82.388671875 -70.353515625 -45.8525390625 -117.736328125 18.564453125 -119.48046875 c 0
 53.515625 -120.426757812 92.2431640625 -106.2421875 125.373046875 -92.94921875 c 0
 158.502929688 -79.65625 184.779296875 -66.173828125 184.779296875 -66.173828125 c 2
 192.793945312 -62.064453125 198.284179688 -53.7177734375 198.284179688 -44.099609375 c 0
 198.284179688 -40.0361328125 197.264648438 -36.1904296875 195.529296875 -32.8046875 c 0
 191.599609375 -25.140625 183.79296875 -19.8095703125 174.70703125 -19.35546875 c 0
EndSplineSet
Validated: 524325
EndChar

StartChar: V
Encoding: 86 86 27
Width: 522
VWidth: 804
Flags: W
HStem: -190.766 49.543<146.584 297.512> 597.698 47.0869<227.12 238.318>
VStem: 247.684 49.5234<451.826 503.433> 447.135 49.5605<334.598 502.605>
LayerCount: 2
Fore
SplineSet
473.728515625 756.1015625 m 0
 473.155273438 756.141601562 472.576171875 756.161132812 471.993164062 756.161132812 c 0
 468.099609375 756.161132812 464.412109375 755.247070312 461.1328125 753.64453125 c 1
 461.133789062 753.659179688 238.318359375 644.78515625 238.318359375 644.78515625 c 2
 230.073242188 640.756835938 224.387695312 632.286132812 224.387695312 622.497070312 c 0
 224.387695312 618.603515625 225.325195312 614.909179688 226.927734375 611.62890625 c 0
 230.956054688 603.383789062 239.426757812 597.698242188 249.21484375 597.698242188 c 0
 253.109375 597.698242188 256.803710938 598.635742188 260.083984375 600.23828125 c 1
 260.075195312 600.201171875 482.8984375 709.09765625 482.8984375 709.09765625 c 2
 491.143554688 713.125976562 496.829101562 721.596679688 496.829101562 731.385742188 c 0
 496.829101562 735.279296875 495.891601562 738.973632812 494.2890625 742.25390625 c 0
 490.500976562 750.0078125 482.775390625 755.475585938 473.728515625 756.1015625 c 0
423.787109375 556.375 m 0
 413.48828125 556.51953125 402.935546875 554.953125 392.73828125 552.18359375 c 0
 374.12109375 547.127929688 361.1640625 535.108398438 346.86328125 519.94140625 c 0
 332.561523438 504.774414062 317.858398438 485.560546875 302.625976562 463.447265625 c 0
 300.024414062 459.668945312 297.348632812 455.376953125 294.720703125 451.4375 c 1
 295.936523438 459.737304688 296.846679688 467.798828125 297.20703125 475.43359375 c 0
 298.072265625 493.771484375 296.828125 510.630859375 288.392578125 526.1796875 c 0
 279.956054688 541.728515625 260.817382812 553.048828125 242.115234375 553.048828125 c 0
 226.9453125 553.048828125 215.657226562 547.290039062 203.466796875 540.21484375 c 0
 191.275390625 533.139648438 178.62109375 523.842773438 165.30078125 512.9765625 c 0
 138.66015625 491.243164062 109.560546875 463.178710938 82.228515625 435.208984375 c 0
 27.564453125 379.26953125 -19.90234375 323.59375 -19.90234375 323.59375 c 2
 -23.5947265625 319.264648438 -25.82421875 313.651367188 -25.82421875 307.520507812 c 0
 -25.82421875 299.969726562 -22.4609375 293.1953125 -17.12890625 288.646484375 c 0
 -12.798828125 284.954101562 -7.185546875 282.723632812 -1.0546875 282.723632812 c 0
 6.4970703125 282.723632812 13.2724609375 286.086914062 17.8203125 291.419921875 c 2
 17.8203125 291.419921875 64.4921875 346.122070312 117.6875 400.55859375 c 0
 144.28515625 427.776367188 172.543945312 454.900390625 196.640625 474.55859375 c 0
 208.688476562 484.387695312 219.74609375 492.336914062 228.35546875 497.333984375 c 0
 236.965820312 502.331054688 243.565429688 503.46875 242.115234375 503.46875 c 1
 246.774414062 503.46875 243.551757812 504.86328125 244.814453125 502.53515625 c 0
 246.077148438 500.20703125 248.318359375 491.237304688 247.68359375 477.76953125 c 0
 246.413085938 450.833984375 235.677734375 408.063476562 219.533203125 361.30859375 c 0
 201.298828125 308.5 176.49609375 250.163085938 152.3125 197.669921875 c 0
 121.896484375 137.129882812 100.31640625 91.255859375 100.31640625 91.255859375 c 2
 100.193359375 90.6796875 100.08984375 90.087890625 100.0078125 89.498046875 c 0
 98.96875 86.7646484375 98.400390625 83.80078125 98.400390625 80.705078125 c 0
 98.400390625 80.5712890625 98.392578125 80.4326171875 98.39453125 80.298828125 c 0
 98.4365234375 79.095703125 98.5654296875 77.921875 98.7734375 76.767578125 c 0
 99.28515625 73.8515625 100.323242188 71.060546875 101.759765625 68.58984375 c 0
 102.1796875 67.6953125 102.655273438 66.826171875 103.17578125 65.994140625 c 0
 105.326171875 63.033203125 108.077148438 60.6044921875 111.302734375 58.833984375 c 0
 111.518554688 58.767578125 111.741210938 58.701171875 111.958984375 58.640625 c 0
 112.0859375 58.5322265625 112.2109375 58.427734375 112.33984375 58.322265625 c 0
 112.9140625 58.2001953125 113.502929688 58.0966796875 114.091796875 58.015625 c 0
 116.826171875 56.9755859375 119.791992188 56.40625 122.890625 56.40625 c 0
 123.025390625 56.40625 123.165039062 56.3984375 123.30078125 56.400390625 c 0
 124.499023438 56.443359375 125.668945312 56.5712890625 126.818359375 56.779296875 c 0
 129.739257812 57.2900390625 132.53515625 58.330078125 135.009765625 59.76953125 c 0
 135.901367188 60.189453125 136.76953125 60.6640625 137.599609375 61.18359375 c 0
 140.559570312 63.3349609375 142.989257812 66.0849609375 144.759765625 69.310546875 c 0
 159.830078125 98.12109375 178.557617188 136.029296875 197.65625 177.486328125 c 0
 214.282226562 210.537109375 232.734375 246.57421875 253.46484375 284.73046875 c 0
 282.8984375 338.907226562 314.756835938 393.65625 343.45703125 435.3203125 c 0
 357.807617188 456.15234375 371.42578125 473.720703125 382.935546875 485.927734375 c 0
 394.446289062 498.134765625 404.793945312 504.081054688 405.732421875 504.3359375 c 0
 424.185546875 509.346679688 431.7890625 507.216796875 436.4921875 502.818359375 c 0
 441.194335938 498.419921875 448.013671875 484.102539062 447.134765625 452.849609375 c 0
 445.405273438 391.36328125 414.456054688 274.407226562 339.533203125 91.111328125 c 1
 274.8828125 61.28125 173.0703125 9.6083984375 85.193359375 -38.65625 c 0
 39.3583984375 -63.830078125 -2.271484375 -87.826171875 -32.57421875 -107.25390625 c 0
 -47.7255859375 -116.967773438 -59.9501953125 -125.408203125 -69.220703125 -133.099609375 c 0
 -73.85546875 -136.9453125 -77.7412109375 -140.401367188 -81.525390625 -145.265625 c 0
 -83.41796875 -147.697265625 -85.416015625 -150.458007812 -87.1015625 -155.1171875 c 0
 -88.787109375 -159.776367188 -90.1162109375 -167.770507812 -86.548828125 -175.8515625 c 0
 -82.701171875 -184.561523438 -73.984375 -190.646484375 -63.857421875 -190.646484375 c 0
 -58.28515625 -190.646484375 -53.130859375 -188.772460938 -48.98828125 -185.6640625 c 0
 0.2744140625 -148.682617188 31.7431640625 -139.390625 55.271484375 -139.765625 c 0
 78.80078125 -140.140625 98.439453125 -150.715820312 124.439453125 -163.978515625 c 0
 150.439453125 -177.241210938 182.84765625 -192.392578125 225.349609375 -190.765625 c 0
 267.8515625 -189.138671875 318.119140625 -171.432617188 383.767578125 -127.2421875 c 0
 390.383789062 -122.7890625 394.740234375 -115.23046875 394.740234375 -106.662109375 c 0
 394.740234375 -101.547851562 393.1484375 -96.783203125 390.490234375 -92.833984375 c 0
 386.037109375 -86.2177734375 378.478515625 -81.861328125 369.91015625 -81.861328125 c 0
 364.795898438 -81.861328125 360.03125 -83.453125 356.08203125 -86.111328125 c 0
 295.069335938 -127.181640625 253.673828125 -140.065429688 223.453125 -141.22265625 c 0
 193.232421875 -142.379882812 171.859375 -132.510742188 146.966796875 -119.8125 c 0
 129.446289062 -110.875976562 110.124023438 -100.25 87.138671875 -94.466796875 c 1
 94.63671875 -90.2783203125 101.2734375 -86.388671875 109.0625 -82.111328125 c 0
 199.610351562 -32.37890625 307.522460938 22.26953125 369.19140625 50.30078125 c 0
 374.918945312 52.904296875 379.453125 57.595703125 381.85546875 63.4296875 c 0
 460.452148438 254.291015625 494.54296875 374.928710938 496.6953125 451.455078125 c 0
 497.771484375 489.717773438 491.073242188 519.65234375 470.359375 539.02734375 c 0
 457.412109375 551.13671875 440.951171875 556.133789062 423.787109375 556.375 c 0
EndSplineSet
Validated: 524325
EndChar

StartChar: X
Encoding: 88 88 28
Width: 586
VWidth: 804
Flags: W
HStem: -20.0176 20G<286.896 296.328> 503.469 49.5801<200.898 248.437> 597.698 47.0869<301.059 312.26>
VStem: 248.633 49.5293<442.283 503.33> 464.041 49.4189<361.846 503.075>
LayerCount: 2
Fore
SplineSet
547.666015625 756.1015625 m 0
 547.09375 756.141601562 546.515625 756.161132812 545.932617188 756.161132812 c 0
 542.0390625 756.161132812 538.352539062 755.247070312 535.072265625 753.64453125 c 1
 535.07421875 753.659179688 312.259765625 644.78515625 312.259765625 644.78515625 c 2
 304.013671875 640.756835938 298.328125 632.28515625 298.328125 622.497070312 c 0
 298.328125 618.603515625 299.264648438 614.909179688 300.8671875 611.62890625 c 0
 304.896484375 603.383789062 313.3671875 597.698242188 323.155273438 597.698242188 c 0
 327.048828125 597.698242188 330.743164062 598.635742188 334.0234375 600.23828125 c 1
 334.014648438 600.201171875 556.836914062 709.09765625 556.836914062 709.09765625 c 2
 565.083007812 713.125976562 570.768554688 721.59765625 570.768554688 731.385742188 c 0
 570.768554688 735.279296875 569.831054688 738.973632812 568.228515625 742.25390625 c 0
 564.439453125 750.008789062 556.713867188 755.475585938 547.666015625 756.1015625 c 0
441.338867188 556.728515625 m 2
 430.712890625 556.6796875 419.716796875 555.002929688 408.802734375 552.345703125 c 0
 389.794921875 547.717773438 375.163085938 535.956054688 359.3671875 520.8515625 c 0
 343.571289062 505.747070312 327.28125 486.525390625 310.4296875 464.408203125 c 0
 304.994140625 457.274414062 299.4453125 449.415039062 293.923828125 441.73046875 c 1
 296.158203125 453.52734375 297.684570312 464.848632812 298.162109375 475.490234375 c 0
 298.998046875 494.115234375 297.323242188 511.66015625 287.701171875 527.330078125 c 0
 278.079101562 543 258.439453125 553.048828125 239.103515625 553.048828125 c 0
 208.899414062 553.048828125 186.809570312 534.8671875 159.86328125 513.025390625 c 0
 132.91796875 491.18359375 104.140625 463.041015625 77.34765625 435.013671875 c 0
 23.7626953125 378.958984375 -21.77734375 323.193359375 -21.77734375 323.193359375 c 2
 -25.267578125 318.921875 -27.3623046875 313.465820312 -27.3623046875 307.524414062 c 0
 -27.3623046875 299.783203125 -23.8310546875 292.858398438 -18.265625 288.310546875 c 0
 -13.994140625 284.8203125 -8.537109375 282.725585938 -2.595703125 282.725585938 c 0
 5.14453125 282.725585938 12.0703125 286.255859375 16.6171875 291.822265625 c 2
 16.6171875 291.822265625 61.259765625 346.432617188 113.1875 400.75390625 c 0
 139.151367188 427.9140625 166.963867188 454.959960938 191.08203125 474.509765625 c 0
 215.200195312 494.059570312 238.649414062 503.46875 239.103515625 503.46875 c 0
 245.87109375 503.46875 244.095703125 503.594726562 245.451171875 501.38671875 c 0
 246.807617188 499.178710938 249.224609375 490.895507812 248.6328125 477.71484375 c 0
 247.44921875 451.352539062 235.873046875 408.651367188 218.232421875 361.984375 c 0
 198.298828125 309.250976562 171.043945312 250.928710938 144.43359375 198.443359375 c 0
 110.940429688 137.9375 87.203125 92.095703125 87.203125 92.095703125 c 2
 87.056640625 91.515625 86.927734375 90.916015625 86.822265625 90.3203125 c 0
 85.6416015625 87.525390625 84.9462890625 84.4423828125 84.873046875 81.236328125 c 0
 84.873046875 81.1884765625 84.873046875 81.140625 84.873046875 81.0927734375 c 0
 84.873046875 79.935546875 84.9521484375 78.82421875 85.10546875 77.708984375 c 0
 85.5068359375 74.744140625 86.4482421875 71.89453125 87.802734375 69.357421875 c 0
 88.177734375 68.47265625 88.607421875 67.6044921875 89.078125 66.775390625 c 0
 91.1083984375 63.7392578125 93.75 61.2158203125 96.884765625 59.326171875 c 0
 97.11328125 59.2451171875 97.3486328125 59.1650390625 97.580078125 59.08984375 c 0
 97.7119140625 58.96875 97.8408203125 58.8525390625 97.974609375 58.734375 c 0
 98.5576171875 58.5869140625 99.1611328125 58.45703125 99.759765625 58.3515625 c 0
 102.551757812 57.171875 105.631835938 56.478515625 108.834960938 56.404296875 c 0
 108.881835938 56.404296875 108.9296875 56.404296875 108.9765625 56.404296875 c 0
 110.134765625 56.404296875 111.247070312 56.482421875 112.36328125 56.63671875 c 0
 115.322265625 57.0380859375 118.166992188 57.9775390625 120.69921875 59.328125 c 0
 121.591796875 59.705078125 122.466796875 60.1376953125 123.302734375 60.61328125 c 0
 126.3359375 62.6435546875 128.856445312 65.2841796875 130.744140625 68.416015625 c 0
 147.369140625 97.2451171875 168.006835938 135.166015625 189.03515625 176.64453125 c 0
 207.345703125 209.677734375 227.670898438 245.690429688 250.521484375 283.822265625 c 0
 282.977539062 337.982421875 318.130859375 392.704101562 349.8671875 434.359375 c 0
 365.735351562 455.186523438 380.80078125 472.748046875 393.6328125 485.017578125 c 0
 406.463867188 497.287109375 417.733398438 503.4921875 420.533203125 504.173828125 c 0
 442.336914062 509.482421875 452.432617188 506.798828125 456.453125 503.248046875 c 0
 460.474609375 499.697265625 466.500976562 487.465820312 464.041015625 457.05078125 c 0
 459.2578125 397.883789062 422.272460938 283.567382812 341.685546875 103.650390625 c 1
 282.08984375 50.6474609375 226.09375 -0.4482421875 189.127929688 -45.111328125 c 0
 165.141601562 -74.0908203125 147.323242188 -99.59765625 145.568359375 -129.474609375 c 0
 144.690429688 -144.413085938 150.146484375 -161.038085938 161.400390625 -172.361328125 c 0
 172.654296875 -183.684570312 187.494140625 -190.021484375 204.99609375 -194.005859375 c 0
 232.651367188 -200.30078125 260.129882812 -191.190429688 278.150390625 -173.775390625 c 0
 296.171875 -156.360351562 307.543945312 -133.158203125 317.900390625 -107.0390625 c 0
 338.615234375 -54.80078125 354.391601562 11.109375 380.330078125 68.453125 c 0
 381.143554688 70.2509765625 381.806640625 71.810546875 382.611328125 73.595703125 c 0
 397.764648438 87.0888671875 413.013671875 100.630859375 428.38671875 114.3125 c 0
 457.337890625 140.077148438 498.287109375 181.245117188 533.798828125 217.59765625 c 0
 551.553710938 235.7734375 567.881835938 252.6953125 580.4140625 265.677734375 c 0
 592.946289062 278.66015625 602.803710938 288.73046875 603.603515625 289.486328125 c 0
 608.389648438 294.006835938 611.377929688 300.411132812 611.377929688 307.5078125 c 0
 611.377929688 314.092773438 608.797851562 320.087890625 604.603515625 324.529296875 c 0
 600.083007812 329.315429688 593.678710938 332.303710938 586.58203125 332.303710938 c 0
 579.997070312 332.303710938 574.001953125 329.723632812 569.560546875 325.529296875 c 0
 564.995117188 321.217773438 557.283203125 313.102539062 544.744140625 300.11328125 c 0
 532.205078125 287.124023438 515.956054688 270.286132812 498.33203125 252.244140625 c 0
 476.3671875 229.758789062 452.481445312 205.745117188 430.91015625 184.78515625 c 1
 482.655273438 309.211914062 508.725585938 394.505859375 513.459960938 453.0546875 c 0
 516.50390625 490.706054688 510.940429688 521.275390625 489.271484375 540.41015625 c 0
 475.728515625 552.369140625 459.048828125 556.810546875 441.340820312 556.728515625 c 2
 441.338867188 556.728515625 l 2
301.724609375 -0.017578125 m 1
 290.931640625 -33.0009765625 281.659179688 -63.9267578125 271.810546875 -88.763671875 c 0
 262.571289062 -112.063476562 252.557617188 -129.559570312 243.6953125 -138.123046875 c 0
 234.833984375 -146.686523438 229.930664062 -148.833007812 216.000976562 -145.662109375 c 0
 204.135742188 -142.9609375 198.3359375 -139.194335938 196.564453125 -137.412109375 c 0
 194.793945312 -135.629882812 194.83984375 -136.146484375 195.060546875 -132.3828125 c 0
 195.50390625 -124.854492188 205.9140625 -102.587890625 227.3203125 -76.724609375 c 0
 246.059570312 -54.083984375 272.06640625 -27.96875 301.724609375 -0.017578125 c 1
EndSplineSet
Validated: 524329
EndChar

StartChar: F
Encoding: 70 70 29
Width: 454
VWidth: 824
Flags: W
HStem: -190.766 49.543<18.1433 169.069> 502.42 49.5801<198.448 306.943> 597.698 47.0869<164.292 175.491>
LayerCount: 2
Fore
SplineSet
410.899414062 756.1015625 m 4
 410.326171875 756.141601562 409.747070312 756.161132812 409.1640625 756.161132812 c 4
 405.26953125 756.161132812 401.583007812 755.247070312 398.302734375 753.64453125 c 5
 398.3046875 753.659179688 175.491210938 644.78515625 175.491210938 644.78515625 c 6
 167.245117188 640.756835938 161.560546875 632.286132812 161.560546875 622.497070312 c 4
 161.560546875 618.603515625 162.497070312 614.909179688 164.099609375 611.62890625 c 4
 168.12890625 603.383789062 176.599609375 597.698242188 186.387695312 597.698242188 c 4
 190.28125 597.698242188 193.975585938 598.635742188 197.255859375 600.23828125 c 5
 197.247070312 600.201171875 420.069335938 709.09765625 420.069335938 709.09765625 c 6
 428.314453125 713.125976562 434 721.596679688 434 731.385742188 c 4
 434 735.279296875 433.0625 738.973632812 431.459960938 742.25390625 c 4
 427.670898438 750.0078125 419.946289062 755.475585938 410.899414062 756.1015625 c 4
259.653320312 552 m 4
 184.959960938 552 118.088867188 490.873046875 65.7333984375 434.17578125 c 4
 13.376953125 377.478515625 -23.3935546875 321.060546875 -23.3935546875 321.060546875 c 6
 -25.9345703125 317.168945312 -27.412109375 312.522460938 -27.412109375 307.532226562 c 4
 -27.412109375 298.83984375 -22.9697265625 291.17578125 -16.19140625 286.75 c 4
 -12.2998046875 284.209960938 -7.6533203125 282.732421875 -2.6640625 282.732421875 c 4
 6.0283203125 282.732421875 13.69140625 287.174804688 18.1181640625 293.953125 c 6
 18.1181640625 293.953125 53.076171875 347.387695312 102.159179688 400.541015625 c 4
 151.241210938 453.694335938 215.515625 502.419921875 259.653320312 502.419921875 c 4
 280.038085938 502.419921875 292.8984375 497.943359375 301.768554688 491.578125 c 4
 310.638671875 485.212890625 316.666992188 476.32421875 320.79296875 462.80859375 c 4
 329.045898438 435.778320312 326.0546875 391.298828125 314.286132812 342.7578125 c 4
 291.72265625 249.708007812 240.3125 142.3828125 212.610351562 91.89453125 c 5
 148.01953125 62.138671875 45.052734375 9.8408203125 -43.248046875 -38.65625 c 4
 -89.0830078125 -63.830078125 -130.71484375 -87.826171875 -161.016601562 -107.25390625 c 4
 -176.16796875 -116.967773438 -188.393554688 -125.408203125 -197.6640625 -133.099609375 c 4
 -202.297851562 -136.9453125 -206.18359375 -140.401367188 -209.967773438 -145.265625 c 4
 -211.860351562 -147.698242188 -213.858398438 -150.459960938 -215.543945312 -155.119140625 c 4
 -217.23046875 -159.778320312 -218.557617188 -167.772460938 -214.990234375 -175.853515625 c 4
 -211.142578125 -184.5625 -202.42578125 -190.646484375 -192.299804688 -190.646484375 c 4
 -186.727539062 -190.646484375 -181.573242188 -188.772460938 -177.430664062 -185.6640625 c 4
 -128.16796875 -148.682617188 -96.6982421875 -139.390625 -73.1689453125 -139.765625 c 4
 -49.640625 -140.140625 -30.001953125 -150.715820312 -4.0009765625 -163.978515625 c 4
 21.9990234375 -177.241210938 54.4072265625 -192.392578125 96.9091796875 -190.765625 c 4
 139.41015625 -189.138671875 189.676757812 -171.432617188 255.325195312 -127.2421875 c 4
 261.94140625 -122.7890625 266.296875 -115.23046875 266.296875 -106.662109375 c 4
 266.296875 -101.547851562 264.705078125 -96.783203125 262.046875 -92.833984375 c 4
 257.59375 -86.2177734375 250.03515625 -81.861328125 241.466796875 -81.861328125 c 4
 236.352539062 -81.861328125 231.587890625 -83.453125 227.638671875 -86.111328125 c 4
 166.626953125 -127.181640625 125.23046875 -140.065429688 95.009765625 -141.22265625 c 4
 64.7900390625 -142.379882812 43.4189453125 -132.510742188 18.5263671875 -119.8125 c 4
 1.005859375 -110.875 -18.318359375 -100.25 -41.3037109375 -94.466796875 c 5
 -33.8056640625 -90.2783203125 -27.1689453125 -86.3896484375 -19.3798828125 -82.111328125 c 4
 71.16796875 -32.37890625 179.08203125 22.26953125 240.750976562 50.30078125 c 4
 242.493164062 51.107421875 244.125976562 52.1064453125 245.622070312 53.27734375 c 4
 245.7109375 53.3408203125 245.798828125 53.404296875 245.88671875 53.46875 c 4
 248.349609375 55.4296875 250.396484375 57.8125 251.966796875 60.560546875 c 4
 252.01171875 60.611328125 252.0546875 60.6611328125 252.09765625 60.712890625 c 4
 252.174804688 60.849609375 252.27734375 61.0458984375 252.354492188 61.18359375 c 4
 252.35546875 61.1845703125 252.35546875 61.1865234375 252.356445312 61.1875 c 4
 252.36328125 61.2001953125 252.370117188 61.2138671875 252.376953125 61.2265625 c 4
 252.377929688 61.2275390625 252.376953125 61.228515625 252.376953125 61.228515625 c 5
 281.147460938 112.450195312 336.962890625 225.881835938 362.46875 331.076171875 c 4
 375.259765625 383.828125 381.27734375 434.495117188 368.212890625 477.287109375 c 4
 361.680664062 498.68359375 349.469726562 518.374023438 330.671875 531.861328125 c 4
 311.875 545.349609375 287.639648438 552 259.653320312 552 c 4
EndSplineSet
Validated: 524329
EndChar

StartChar: R
Encoding: 82 82 30
Width: 280
VWidth: 824
Flags: W
HStem: 55 50<53.5678 155.175> 751 50<327 357.903>
LayerCount: 2
Fore
SplineSet
327 801 m 0
 305 801 289 787 274 772 c 0
 259 757 245 737 230 713 c 0
 200 665 170 602 140 536 c 0
 130 515 122 494 113 473 c 1
 107 489 102 506 99 522 c 0
 84 598 93 663 93 663 c 2
 93 664 93 665 93 666 c 0
 93 679 83 689 71 691 c 0
 70 691 69 691 68 691 c 0
 55 691 45 682 43 670 c 2
 43 670 33 596 51 511 c 0
 57 478 68 444 86 410 c 1
 52 326 27 252 17 226 c 0
 -1 176 -6 136 8 104 c 0
 22 72 55 55 92 55 c 0
 155 55 213 100 263 149 c 0
 313 198 356 254 380 284 c 0
 383 288 385 293 385 299 c 0
 385 307 382 313 376 318 c 0
 372 321 367 324 361 324 c 0
 353 324 346 320 341 314 c 0
 317 283 275 231 229 185 c 0
 183 139 130 105 92 105 c 0
 67 105 60 110 54 123 c 0
 48 136 48 166 63 210 c 0
 67 222 81 256 92 286 c 0
 94 288 114 308 141 337 c 1
 164 315 192 295 227 281 c 0
 230 280 234 279 237 279 c 0
 247 279 256 285 260 294 c 0
 261 297 262 301 262 304 c 0
 262 314 255 322 246 326 c 0
 217 338 193 355 174 373 c 1
 212 415 258 468 300 522 c 0
 346 583 387 643 403 694 c 0
 411 720 414 746 400 768 c 0
 386 790 359 801 327 801 c 0
327 751 m 1
 349 751 356 745 358 742 c 0
 360 739 362 728 356 709 c 0
 344 671 306 611 261 553 c 0
 223 503 180 454 142 412 c 1
 142 413 l 0
 156 447 171 482 186 516 c 0
 215 580 245 641 273 686 c 0
 287 708 300 727 310 738 c 0
 320 749 329 751 327 751 c 1
EndSplineSet
Validated: 41
EndChar

StartChar: quotesingle
Encoding: 39 39 31
Width: 280
VWidth: 824
Flags: W
HStem: 55 50<127.068 229.074> 374 47<81.5185 146> 751 50<402 430.904>
LayerCount: 2
Fore
SplineSet
402 801 m 0
 380 801 363 787 348 772 c 0
 333 757 319 737 304 713 c 0
 274 665 244 602 214 536 c 0
 196 498 180 459 165 421 c 1
 123 423 80 437 40 468 c 0
 36 471 31 474 25 474 c 0
 17 474 11 470 6 464 c 0
 3 460 0 455 0 449 c 0
 0 441 4 435 10 430 c 0
 54 396 100 380 146 374 c 1
 119 306 98 248 90 226 c 0
 72 176 68 136 82 104 c 0
 96 72 129 55 166 55 c 0
 229 55 288 100 338 149 c 0
 388 198 430 254 454 284 c 0
 457 288 459 293 459 299 c 0
 459 307 456 313 450 318 c 0
 446 321 440 324 434 324 c 0
 426 324 419 320 414 314 c 0
 390 283 348 231 302 185 c 0
 256 139 204 105 166 105 c 0
 141 105 133 110 127 123 c 0
 121 136 122 166 137 210 c 0
 141 222 155 256 166 286 c 0
 170 290 207 328 254 380 c 1
 269 383 284 387 298 392 c 0
 380 419 438 464 438 464 c 2
 444 469 448 476 448 484 c 0
 448 490 446 495 443 499 c 0
 439 504 432 508 426 509 c 0
 425 509 424 509 423 509 c 0
 417 509 412 507 408 504 c 2
 408 504 372 475 318 452 c 1
 337 474 356 498 374 522 c 0
 420 583 461 643 477 694 c 0
 485 720 488 746 474 768 c 0
 460 790 434 801 402 801 c 0
402 751 m 1
 424 751 429 745 431 742 c 0
 433 739 436 728 430 709 c 0
 418 671 379 611 334 553 c 0
 299 507 261 463 227 425 c 0
 225 424 222 424 220 424 c 1
 233 454 245 486 259 516 c 0
 288 580 318 641 346 686 c 0
 360 708 374 727 384 738 c 0
 394 749 404 751 402 751 c 1
EndSplineSet
Validated: 41
EndChar

StartChar: asciicircum
Encoding: 94 94 32
Width: 0
VWidth: 824
Flags: W
HStem: 643 159
LayerCount: 2
Fore
SplineSet
-201 802 m 4
 -203 802 -204 802 -206 801 c 4
 -207 801 -207 800 -208 800 c 4
 -210 799 -210 800 -212 799 c 4
 -213 799 l 5
 -388 689 l 6
 -395 685 -400 677 -400 668 c 4
 -400 663 -398 659 -396 655 c 4
 -392 648 -384 643 -375 643 c 4
 -370 643 -366 645 -362 647 c 5
 -206 743 l 5
 -142 654 l 6
 -137 648 -130 643 -122 643 c 4
 -116 643 -112 645 -108 648 c 4
 -102 653 -98 660 -98 668 c 4
 -98 674 -99 679 -102 683 c 5
 -179 791 l 6
 -180 793 -180 794 -182 795 c 4
 -183 795 l 4
 -185 797 -185 798 -187 799 c 4
 -188 799 -188 799 -189 799 c 4
 -191 800 -191 801 -193 801 c 4
 -194 801 l 4
 -195 802 l 4
 -197 802 -198 802 -200 802 c 4
 -201 802 l 4
EndSplineSet
Validated: 9
EndChar

StartChar: colon
Encoding: 58 58 33
Width: 306
VWidth: 824
Flags: W
HStem: 20 82.5<55.9814 128.516> 497.5 82.5<175.981 248.516>
VStem: 51 82.498<24.9823 97.5177> 171 82.498<502.482 575.018>
LayerCount: 2
Fore
SplineSet
212.248046875 580 m 0
 189.482421875 579.999023438 171 561.515625 171 538.75 c 0
 171 515.984375 189.482421875 497.500976562 212.248046875 497.5 c 0
 235.014648438 497.5 253.498046875 515.983398438 253.498046875 538.75 c 0
 253.498046875 561.516601562 235.014648438 580 212.248046875 580 c 0
92.248046875 102.5 m 0
 69.482421875 102.499023438 51 84.015625 51 61.25 c 0
 51 38.484375 69.482421875 20.0009765625 92.248046875 20 c 0
 115.014648438 20 133.498046875 38.4833984375 133.498046875 61.25 c 0
 133.498046875 84.0166015625 115.014648438 102.5 92.248046875 102.5 c 0
EndSplineSet
Validated: 524297
EndChar

StartChar: comma
Encoding: 44 44 34
Width: 242
Flags: W
LayerCount: 2
Fore
SplineSet
151.799804688 132 m 4
 141.799804688 130.666992188 134.799804688 126.666992188 130.799804688 120 c 6
 62.7998046875 -1 l 6
 60.1328125 -3.6669921875 59.466796875 -7 60.7998046875 -11 c 4
 60.7998046875 -25 66.7998046875 -34 78.7998046875 -38 c 4
 84.1328125 -40.6669921875 89.966796875 -40.6669921875 96.2998046875 -38 c 4
 102.6328125 -35.3330078125 107.466796875 -32 110.799804688 -28 c 6
 178.799804688 93 l 6
 181.466796875 95.6669921875 182.466796875 99.1669921875 181.799804688 103.5 c 4
 181.1328125 107.833007812 179.799804688 112.333007812 177.799804688 117 c 4
 175.799804688 121.666992188 172.299804688 125.333007812 167.299804688 128 c 4
 162.299804688 130.666992188 157.1328125 132 151.799804688 132 c 4
EndSplineSet
Validated: 524297
EndChar

StartChar: period
Encoding: 46 46 35
Width: 200
Flags: W
HStem: 55 81<67.2239 137.022>
LayerCount: 2
Fore
SplineSet
95.9091796875 136 m 6
 83.2421875 134.666992188 73.576171875 130 66.9091796875 122 c 4
 62.9091796875 115.333007812 60.4091796875 108 59.4091796875 100 c 4
 58.4091796875 92 59.2421875 84.6669921875 61.9091796875 78 c 4
 64.576171875 73.3330078125 67.576171875 69.6669921875 70.9091796875 67 c 4
 78.9091796875 59 88.576171875 55 99.9091796875 55 c 4
 111.2421875 55 120.909179688 59 128.909179688 67 c 4
 132.2421875 69.6669921875 135.2421875 73.3330078125 137.909179688 78 c 4
 141.909179688 88 142.076171875 98.8330078125 138.409179688 110.5 c 4
 134.7421875 122.166992188 126.909179688 130 114.909179688 134 c 4
 110.909179688 135.333007812 106.576171875 136 101.909179688 136 c 6
 95.9091796875 136 l 6
EndSplineSet
Validated: 524329
EndChar

StartChar: exclam
Encoding: 33 33 36
Width: 522
VWidth: 824
Flags: W
VStem: 46 55.46<264.954 299.477> 153.515 55.4609<679.678 714.202> 421.265 55.4697<764.252 798.777>
LayerCount: 2
Fore
SplineSet
444.905273438 799.693359375 m 0
 433.51171875 798.220703125 424.209960938 789.901367188 421.264648438 778.986328125 c 1
 421.290039062 778.995117188 249.965820312 144.154296875 249.965820312 144.154296875 c 1
 200.094726562 214.052734375 l 2
 194.971679688 221.234375 186.595703125 225.916992188 177.138671875 225.916992188 c 0
 171.017578125 225.916992188 165.338867188 223.9140625 160.711914062 220.58203125 c 0
 153.564453125 215.434570312 148.904296875 207.017578125 148.904296875 197.515625 c 0
 148.904296875 191.365234375 150.8984375 185.658203125 154.213867188 181.009765625 c 1
 154.172851562 181.020507812 238.719726562 62.5703125 238.719726562 62.5703125 c 2
 243.84375 55.390625 252.21875 50.7099609375 261.673828125 50.7099609375 c 0
 274.692382812 50.7099609375 285.645507812 59.6181640625 288.901367188 71.669921875 c 1
 288.919921875 71.6357421875 475.754882812 764.140625 475.754882812 764.140625 c 2
 476.393554688 766.508789062 476.734375 768.999023438 476.734375 771.569335938 c 0
 476.734375 784.653320312 467.892578125 795.668945312 455.893554688 798.935546875 c 0
 453.53515625 799.578125 451.055664062 799.920898438 448.49609375 799.920898438 c 0
 447.266601562 799.920898438 446.092773438 799.846679688 444.905273438 799.693359375 c 0
179.362304688 715.314453125 m 0
 166.966796875 714.698242188 156.647460938 706.021484375 153.514648438 694.404296875 c 1
 153.53125 694.413085938 46.9794921875 299.587890625 46.9794921875 299.587890625 c 2
 46.3408203125 297.219726562 46 294.729492188 46 292.159179688 c 0
 46 279.077148438 54.837890625 268.064453125 66.8330078125 264.794921875 c 0
 69.189453125 264.153320312 71.66796875 263.810546875 74.2255859375 263.810546875 c 0
 87.24609375 263.810546875 98.2080078125 272.694335938 101.459960938 284.75 c 1
 101.471679688 284.745117188 207.995117188 679.56640625 207.995117188 679.56640625 c 2
 208.634765625 681.934570312 208.975585938 684.42578125 208.975585938 686.997070312 c 0
 208.975585938 700.079101562 200.13671875 711.092773438 188.141601562 714.361328125 c 0
 185.78515625 715.002929688 183.306640625 715.345703125 180.749023438 715.345703125 c 0
 180.274414062 715.345703125 179.831054688 715.337890625 179.362304688 715.314453125 c 0
EndSplineSet
Validated: 524329
EndChar

StartChar: quotedbl
Encoding: 34 34 37
Width: 301
VWidth: 824
Flags: W
HStem: 650.522 149.987<100.663 125.86 191.493 216.69>
VStem: 70 55.3408<652.04 687.37> 160.83 55.3408<652.04 687.37>
LayerCount: 2
Fore
SplineSet
127.057617188 800.494140625 m 0
 125.3828125 800.427734375 123.74609375 800.21484375 122.157226562 799.869140625 c 0
 112.236328125 797.712890625 104.234375 790.358398438 101.178710938 780.8046875 c 1
 101.19140625 780.801757812 71.3408203125 687.498046875 71.3408203125 687.498046875 c 2
 70.4697265625 684.775390625 70 681.875 70 678.865234375 c 0
 70 666.229492188 78.2763671875 655.518554688 89.7060546875 651.86328125 c 0
 92.4287109375 650.9921875 95.3291015625 650.522460938 98.3388671875 650.522460938 c 0
 110.974609375 650.522460938 121.685546875 658.798828125 125.340820312 670.228515625 c 0
 125.345703125 670.237304688 155.178710938 763.53515625 155.178710938 763.53515625 c 2
 156.049804688 766.2578125 156.51953125 769.158203125 156.51953125 772.16796875 c 0
 156.51953125 784.803710938 148.243164062 795.514648438 136.813476562 799.169921875 c 0
 134.091796875 800.040039062 131.19140625 800.509765625 128.182617188 800.509765625 c 0
 127.80078125 800.509765625 127.435546875 800.508789062 127.057617188 800.494140625 c 0
217.887695312 800.494140625 m 0
 216.212890625 800.427734375 214.576171875 800.21484375 212.987304688 799.869140625 c 0
 203.06640625 797.712890625 195.064453125 790.358398438 192.008789062 780.8046875 c 1
 192.021484375 780.801757812 162.170898438 687.498046875 162.170898438 687.498046875 c 2
 161.299804688 684.775390625 160.830078125 681.875 160.830078125 678.865234375 c 0
 160.830078125 666.229492188 169.106445312 655.518554688 180.536132812 651.86328125 c 0
 183.258789062 650.9921875 186.159179688 650.522460938 189.168945312 650.522460938 c 0
 201.8046875 650.522460938 212.515625 658.798828125 216.170898438 670.228515625 c 0
 216.17578125 670.237304688 246.008789062 763.53515625 246.008789062 763.53515625 c 2
 246.879882812 766.2578125 247.349609375 769.158203125 247.349609375 772.16796875 c 0
 247.349609375 784.803710938 239.073242188 795.514648438 227.643554688 799.169921875 c 0
 224.921875 800.040039062 222.021484375 800.509765625 219.012695312 800.509765625 c 0
 218.630859375 800.509765625 218.265625 800.508789062 217.887695312 800.494140625 c 0
EndSplineSet
Validated: 524329
EndChar

StartChar: parenleft
Encoding: 40 40 38
Width: 472
VWidth: 824
Flags: W
HStem: 780.177 20G<401.989 409.198>
LayerCount: 2
Fore
SplineSet
401.989257812 800.176757812 m 1
 398.176757812 800.450195312 390.673828125 800.235351562 384.134765625 795.981445312 c 2
 384.060546875 795.9296875 l 1
 383.987304688 795.877929688 l 1
 241.469726562 701.805664062 135.451171875 504.299804688 106.38671875 378.564453125 c 1
 106.635742188 379.577148438 l 1
 87.951171875 310.3203125 l 1
 87.23828125 307.690429688 l 1
 68.552734375 238.43359375 l 1
 68.83203125 239.409179688 l 1
 49.5166015625 176.8046875 40.5390625 96.0380859375 47.162109375 17.60546875 c 0
 53.7841796875 -60.8046875 75.435546875 -137.643554688 125.311523438 -188.813476562 c 0
 125.311523438 -188.819335938 125.311523438 -188.814453125 125.311523438 -188.8203125 c 0
 130.663085938 -194.32421875 137.788085938 -196.630859375 142.010742188 -197.166015625 c 0
 144.97265625 -197.541992188 146.03515625 -197.268554688 147.362304688 -197.114257812 c 0
 162.1328125 -196.250976562 173.892578125 -183.951171875 173.94921875 -168.908203125 c 0
 173.875 -161.006835938 170.5859375 -153.868164062 165.327148438 -148.766601562 c 0
 130.404296875 -112.67578125 109.338867188 -48.0107421875 103.392578125 22.40625 c 0
 97.4267578125 93.0576171875 106.108398438 168.706054688 122.73828125 222.614257812 c 2
 122.885742188 223.1015625 l 1
 141.709960938 292.845703125 l 1
 142.415039062 295.474609375 l 1
 161.239257812 365.233398438 l 1
 161.357421875 365.736328125 l 2
 186.157226562 473.025390625 293.294921875 668.161132812 414.958007812 748.46875 c 1
 414.803710938 748.365234375 l 2
 409.943359375 745.203125 404.849609375 744.451171875 400.685546875 744.258789062 c 1
 415.618164062 744.7890625 427.630859375 757.0078125 427.91015625 772.07421875 c 0
 427.82421875 786.866210938 416.41796875 798.995117188 401.977539062 800.176757812 c 1
 402.00390625 800.172851562 401.989257812 800.176757812 401.989257812 800.176757812 c 1
149.0859375 -140.88671875 m 2
 153.03515625 -141.387695312 159.498046875 -143.67578125 164.69921875 -148.500976562 c 1
 159.844726562 -143.962890625 153.375976562 -141.119140625 146.27734375 -140.916015625 c 1
 147.331054688 -140.909179688 147.51953125 -140.688476562 149.0859375 -140.885742188 c 2
 149.0859375 -140.88671875 l 2
EndSplineSet
Validated: 524325
EndChar

StartChar: parenright
Encoding: 41 41 39
Width: 473
VWidth: 824
Flags: W
HStem: 744.074 56.2119<305.478 323.633>
VStem: 295.96 48.6562<766.203 799.438>
LayerCount: 2
Fore
SplineSet
327.903320312 800.32421875 m 2
 325.469726562 800.633789062 324.795898438 800.38671875 323.508789062 800.286132812 c 0
 308.294921875 799.919921875 296.03515625 787.4296875 295.959960938 772.072265625 c 0
 296.03125 764.168945312 299.3203125 757.026367188 304.58203125 751.923828125 c 0
 339.50390625 715.833007812 360.568359375 651.174804688 366.514648438 580.7578125 c 0
 372.481445312 510.107421875 363.80078125 434.458984375 347.168945312 380.55078125 c 2
 347.021484375 380.063476562 l 1
 328.204101562 310.319335938 l 1
 327.4921875 307.689453125 l 1
 308.66796875 237.930664062 l 1
 308.564453125 237.428710938 l 2
 283.764648438 130.138671875 176.620117188 -64.9970703125 54.9560546875 -145.303710938 c 2
 54.7412109375 -145.444335938 l 1
 54.5263671875 -145.591796875 l 1
 59.755859375 -142.000976562 65.0419921875 -141.249023438 69.2783203125 -141.086914062 c 1
 54.318359375 -141.588867188 42.27734375 -153.822265625 42 -168.909179688 c 0
 42.1328125 -184.118164062 54.220703125 -196.490234375 69.263671875 -197.004882812 c 0
 73.404296875 -197.150390625 80.00390625 -196.755859375 86.3232421875 -192.440429688 c 0
 228.647460938 -98.267578125 334.502929688 98.9697265625 363.541015625 224.591796875 c 1
 363.29296875 223.587890625 l 1
 381.9765625 292.844726562 l 1
 382.69140625 295.473632812 l 1
 401.375 364.73046875 l 1
 401.095703125 363.755859375 l 1
 420.41015625 426.359375 429.388671875 507.118164062 422.765625 585.551757812 c 0
 416.143554688 663.961914062 394.4921875 740.807617188 344.616210938 791.977539062 c 1
 344.616210938 791.985351562 l 1
 339.266601562 797.48828125 332.147460938 799.788085938 327.923828125 800.32421875 c 2
 327.903320312 800.32421875 l 2
305.25 751.651367188 m 1
 310.096679688 747.124023438 316.55078125 744.28515625 323.6328125 744.07421875 c 1
 322.581054688 744.06640625 322.390625 743.853515625 320.826171875 744.051757812 c 0
 316.8828125 744.551757812 310.444335938 746.84375 305.25 751.651367188 c 1
EndSplineSet
Validated: 524325
EndChar

StartChar: hyphen
Encoding: 45 45 40
Width: 387
VWidth: 824
Flags: W
HStem: 271.906 56.7236<55.3786 82.8809 304.119 331.621>
VStem: 54.6553 277.689<272.633 327.903>
LayerCount: 2
Fore
SplineSet
82.880859375 328.629882812 m 2
 67.302734375 328.62890625 54.6552734375 315.920898438 54.6552734375 300.267578125 c 0
 54.6552734375 284.615234375 67.302734375 271.90625 82.880859375 271.90625 c 1
 304.119140625 271.90625 l 2
 319.697265625 271.90625 332.344726562 284.615234375 332.344726562 300.267578125 c 0
 332.344726562 315.920898438 319.697265625 328.62890625 304.119140625 328.629882812 c 1
 82.880859375 328.629882812 l 2
EndSplineSet
Validated: 524297
EndChar

StartChar: zero
Encoding: 48 48 41
Width: 328
VWidth: 824
Flags: W
LayerCount: 2
Fore
SplineSet
82.5458984375 420.405273438 m 0
 82.10546875 420.42578125 81.6630859375 420.436523438 81.2177734375 420.436523438 c 0
 73.9013671875 420.436523438 67.2392578125 417.629882812 62.22265625 413.034179688 c 0
 56.5576171875 407.845703125 53 400.373046875 53 392.071289062 c 0
 53 384.71875 55.8037109375 378.0078125 60.376953125 372.966796875 c 1
 60.3642578125 372.974609375 226.921875 189.35546875 226.921875 189.35546875 c 2
 232.084960938 183.663085938 239.522460938 180.087890625 247.784179688 180.087890625 c 0
 255.09765625 180.087890625 261.7734375 182.90234375 266.7890625 187.494140625 c 0
 272.45703125 192.682617188 276.015625 200.157226562 276.015625 208.4609375 c 0
 276.015625 215.811523438 273.212890625 222.521484375 268.641601562 227.5625 c 1
 268.655273438 227.553710938 102.09765625 411.180664062 102.09765625 411.180664062 c 2
 97.2119140625 416.56640625 90.2744140625 420.045898438 82.5458984375 420.405273438 c 0
EndSplineSet
Validated: 524329
EndChar

StartChar: one
Encoding: 49 49 42
Width: 398
VWidth: 824
Flags: W
VStem: 42 55.4619<-198.839 -164.314> 297.642 55.4619<764.844 799.368>
LayerCount: 2
Fore
SplineSet
332.26953125 799.526367188 m 0
 329.912109375 800.168945312 327.432617188 800.51171875 324.874023438 800.51171875 c 0
 311.85546875 800.51171875 300.89453125 791.630859375 297.641601562 779.577148438 c 1
 297.629882812 779.58203125 42.98046875 -164.203125 42.98046875 -164.203125 c 2
 42.3408203125 -166.572265625 42 -169.0625 42 -171.633789062 c 0
 42 -184.715820312 50.8388671875 -195.729492188 62.833984375 -198.998046875 c 0
 65.19140625 -199.639648438 67.669921875 -199.982421875 70.2275390625 -199.982421875 c 0
 83.2490234375 -199.982421875 94.2109375 -191.098632812 97.4619140625 -179.041992188 c 1
 97.4736328125 -179.045898438 352.123046875 764.732421875 352.123046875 764.732421875 c 2
 352.762695312 767.100585938 353.103515625 769.591796875 353.103515625 772.162109375 c 0
 353.103515625 785.244140625 344.264648438 796.2578125 332.26953125 799.526367188 c 0
EndSplineSet
Validated: 524329
EndChar

StartChar: two
Encoding: 50 50 43
Width: 599
VWidth: 824
Flags: W
VStem: 42 55.4619<70.5876 105.112> 189.405 55.4619<633.132 667.658> 242.767 55.4688<-198.838 -164.315> 498.413 55.4619<764.844 799.367>
LayerCount: 2
Fore
SplineSet
518.431640625 799.569335938 m 0xb0
 508.715820312 796.985351562 501.041992188 789.315429688 498.413085938 779.576171875 c 1
 498.418945312 779.58203125 243.74609375 -164.204101562 243.74609375 -164.204101562 c 2
 243.107421875 -166.571289062 242.766601562 -169.061523438 242.766601562 -171.630859375 c 0
 242.766601562 -184.715820312 251.608398438 -195.73046875 263.607421875 -198.997070312 c 0
 265.963867188 -199.639648438 268.442382812 -199.982421875 271 -199.982421875 c 0
 284.021484375 -199.982421875 294.983398438 -191.09765625 298.235351562 -179.041992188 c 1
 298.24609375 -179.045898438 552.89453125 764.732421875 552.89453125 764.732421875 c 2
 553.534179688 767.1015625 553.875 769.591796875 553.875 772.162109375 c 0
 553.875 785.244140625 545.037109375 796.256835938 533.04296875 799.526367188 c 0
 530.686523438 800.168945312 528.20703125 800.51171875 525.649414062 800.51171875 c 0
 523.1484375 800.51171875 520.741210938 800.184570312 518.431640625 799.569335938 c 0xb0
213.044921875 668.572265625 m 0
 201.651367188 667.099609375 192.350585938 658.78125 189.405273438 647.866210938 c 1
 189.430664062 647.875 42.98046875 105.22265625 42.98046875 105.22265625 c 2
 42.3408203125 102.854492188 42 100.36328125 42 97.79296875 c 0
 42 84.7109375 50.837890625 73.6982421875 62.83203125 70.4287109375 c 0
 65.189453125 69.7861328125 67.669921875 69.443359375 70.228515625 69.443359375 c 0
 83.248046875 69.443359375 94.208984375 78.3251953125 97.4619140625 90.37890625 c 1
 97.4736328125 90.3740234375 243.88671875 633.020507812 243.88671875 633.020507812 c 2
 244.526367188 635.388671875 244.8671875 637.879882812 244.8671875 640.451171875 c 0xd0
 244.8671875 653.534179688 236.028320312 664.547851562 224.032226562 667.81640625 c 0
 221.674804688 668.458007812 219.196289062 668.80078125 216.638671875 668.80078125 c 0
 215.408203125 668.80078125 214.233398438 668.7265625 213.044921875 668.572265625 c 0
EndSplineSet
Validated: 524329
EndChar

StartChar: three
Encoding: 51 51 44
Width: 703
VWidth: 824
Flags: W
VStem: 42 55.4697<70.5875 105.112> 189.404 55.4629<633.132 667.658> 231.006 55.4619<70.5876 105.112> 347.309 55.4619<-198.838 -164.315> 378.413 55.46<633.132 667.658> 602.95 55.4678<764.844 799.368>
LayerCount: 2
Fore
SplineSet
622.967773438 799.569335938 m 0x94
 613.252929688 796.985351562 605.579101562 789.315429688 602.950195312 779.576171875 c 1
 602.956054688 779.58203125 348.288085938 -164.204101562 348.288085938 -164.204101562 c 2
 347.649414062 -166.571289062 347.30859375 -169.0625 347.30859375 -171.631835938 c 0
 347.30859375 -184.71484375 356.1484375 -195.729492188 368.145507812 -198.997070312 c 0
 370.500976562 -199.638671875 372.979492188 -199.981445312 375.536132812 -199.981445312 c 0
 388.556640625 -199.981445312 399.51953125 -191.09765625 402.770507812 -179.041992188 c 1
 402.782226562 -179.045898438 657.438476562 764.732421875 657.438476562 764.732421875 c 2
 658.077148438 767.100585938 658.41796875 769.590820312 658.41796875 772.16015625 c 0
 658.41796875 785.245117188 649.576171875 796.259765625 637.577148438 799.526367188 c 0
 635.220703125 800.168945312 632.7421875 800.510742188 630.184570312 800.510742188 c 0
 627.68359375 800.510742188 625.276367188 800.184570312 622.967773438 799.569335938 c 0x94
213.045898438 668.572265625 m 0
 201.65234375 667.099609375 192.350585938 658.78125 189.404296875 647.866210938 c 1
 189.430664062 647.875 42.9794921875 105.22265625 42.9794921875 105.22265625 c 2
 42.3408203125 102.854492188 42 100.364257812 42 97.794921875 c 0
 42 84.7109375 50.8408203125 73.6953125 62.83984375 70.4287109375 c 0
 65.197265625 69.7861328125 67.6767578125 69.443359375 70.236328125 69.443359375 c 0
 83.255859375 69.443359375 94.216796875 78.3251953125 97.4697265625 90.37890625 c 1
 97.4814453125 90.3740234375 243.88671875 633.020507812 243.88671875 633.020507812 c 2
 244.525390625 635.388671875 244.8671875 637.879882812 244.8671875 640.451171875 c 0xc4
 244.8671875 653.534179688 236.02734375 664.547851562 224.03125 667.81640625 c 0
 221.674804688 668.458007812 219.196289062 668.80078125 216.638671875 668.80078125 c 0
 215.408203125 668.80078125 214.234375 668.725585938 213.045898438 668.572265625 c 0
402.052734375 668.572265625 m 0
 390.66015625 667.099609375 381.359375 658.780273438 378.413085938 647.866210938 c 1
 378.439453125 647.875 231.985351562 105.22265625 231.985351562 105.22265625 c 2
 231.346679688 102.854492188 231.005859375 100.36328125 231.005859375 97.79296875 c 0
 231.005859375 84.7109375 239.84375 73.697265625 251.83984375 70.4287109375 c 0
 254.196289062 69.7861328125 256.67578125 69.443359375 259.234375 69.443359375 c 0
 272.25390625 69.443359375 283.21484375 78.3251953125 286.467773438 90.37890625 c 1
 286.479492188 90.3740234375 432.892578125 633.020507812 432.892578125 633.020507812 c 2
 433.532226562 635.388671875 433.873046875 637.880859375 433.873046875 640.451171875 c 0xac
 433.873046875 653.533203125 425.034179688 664.547851562 413.038085938 667.81640625 c 0
 410.681640625 668.458007812 408.203125 668.80078125 405.645507812 668.80078125 c 0
 404.415039062 668.80078125 403.241210938 668.725585938 402.052734375 668.572265625 c 0
EndSplineSet
Validated: 524329
EndChar

StartChar: four
Encoding: 52 52 45
Width: 716
VWidth: 824
Flags: W
VStem: 616.735 54.4492<688.157 752.109>
LayerCount: 2
Fore
SplineSet
638.875 754.014648438 m 0
 628.776367188 752.526367188 620.391601562 745.670898438 616.735351562 736.415039062 c 0
 558.141601562 588.142578125 481.063476562 450.556640625 402.723632812 331.387695312 c 1
 270.387695312 419.186523438 l 2
 265.931640625 422.142578125 260.595703125 423.864257812 254.861328125 423.864257812 c 0
 252.918945312 423.864257812 251.014648438 423.68359375 249.182617188 423.307617188 c 0
 241.728515625 421.775390625 235.336914062 417.315429688 231.283203125 411.14453125 c 0
 228.342773438 406.668945312 226.629882812 401.307617188 226.629882812 395.547851562 c 0
 226.629882812 385.654296875 231.63671875 376.92578125 239.287109375 371.850585938 c 0
 239.333007812 371.862304688 371.079101562 284.411132812 371.079101562 284.411132812 c 1
 208.624023438 47.951171875 50.685546875 -104.955078125 50.685546875 -104.955078125 c 2
 45.333984375 -110.118164062 42 -117.377929688 42 -125.4140625 c 0
 42 -133.029296875 45 -139.956054688 49.8681640625 -145.052734375 c 0
 55.0068359375 -150.432617188 62.232421875 -153.783203125 70.2314453125 -153.783203125 c 0
 77.80859375 -153.783203125 84.701171875 -150.76953125 89.7734375 -145.879882812 c 2
 89.7734375 -145.879882812 251.6796875 9.943359375 418.399414062 253.017578125 c 1
 524.040039062 182.9296875 l 2
 528.494140625 179.975585938 533.829101562 178.254882812 539.560546875 178.254882812 c 0
 549.40625 178.254882812 558.092773438 183.28515625 563.14453125 190.973632812 c 0
 566.084960938 195.44921875 567.796875 200.809570312 567.796875 206.568359375 c 0
 567.796875 216.461914062 562.791015625 225.189453125 555.140625 230.265625 c 0
 555.094726562 230.25390625 450.002929688 300.01953125 450.002929688 300.01953125 c 1
 530.037109375 421.889648438 608.899414062 562.87890625 669.200195312 715.4765625 c 0
 670.48046875 718.712890625 671.184570312 722.2421875 671.184570312 725.934570312 c 0
 671.184570312 737.896484375 663.826171875 748.142578125 653.391601562 752.30859375 c 0
 650.169921875 753.594726562 646.657226562 754.301757812 642.982421875 754.301757812 c 0
 641.583007812 754.301757812 640.219726562 754.211914062 638.875 754.014648438 c 0
EndSplineSet
Validated: 524329
EndChar

StartChar: five
Encoding: 53 53 46
Width: 527
VWidth: 824
Flags: W
HStem: 271.906 56.7168<52.7233 80.2256 441.464 468.966>
LayerCount: 2
Fore
SplineSet
80.2255859375 328.623046875 m 2
 64.6474609375 328.622070312 52 315.916015625 52 300.264648438 c 0
 52 284.61328125 64.6474609375 271.90625 80.2255859375 271.90625 c 1
 441.463867188 271.90625 l 2
 457.041992188 271.90625 469.689453125 284.61328125 469.689453125 300.264648438 c 0
 469.689453125 315.916015625 457.041992188 328.622070312 441.463867188 328.623046875 c 1
 80.2255859375 328.623046875 l 2
EndSplineSet
Validated: 524297
EndChar

StartChar: six
Encoding: 54 54 47
Width: 666
VWidth: 824
Flags: W
HStem: 360.905 56.7236<45.7236 73.2256 589.036 616.536>
VStem: 151.562 55.4609<-198.838 -103.966> 407.202 55.4619<702.819 799.368>
LayerCount: 2
Fore
SplineSet
427.221679688 799.569335938 m 0
 417.505859375 796.985351562 409.831054688 789.315429688 407.202148438 779.576171875 c 1
 407.208007812 779.58203125 309.5390625 417.62890625 309.5390625 417.62890625 c 1
 73.2255859375 417.62890625 l 2
 57.6474609375 417.62890625 45.0009765625 404.920898438 45 389.267578125 c 0
 45 373.615234375 57.6474609375 360.905273438 73.2255859375 360.905273438 c 1
 73.2255859375 360.90625 294.233398438 360.905273438 294.233398438 360.905273438 c 1
 152.541992188 -164.204101562 l 2
 151.903320312 -166.572265625 151.5625 -169.0625 151.5625 -171.6328125 c 0
 151.5625 -184.71484375 160.400390625 -195.728515625 172.396484375 -198.997070312 c 0
 174.752929688 -199.639648438 177.231445312 -199.981445312 179.7890625 -199.981445312 c 0
 192.809570312 -199.981445312 203.772460938 -191.09765625 207.0234375 -179.041992188 c 1
 207.03515625 -179.045898438 352.717773438 360.905273438 352.717773438 360.905273438 c 1
 589.036132812 360.905273438 l 2
 604.61328125 360.90625 617.259765625 373.615234375 617.259765625 389.267578125 c 0
 617.258789062 404.919921875 604.61328125 417.626953125 589.036132812 417.62890625 c 1
 368.0234375 417.62890625 l 1
 461.684570312 764.732421875 l 2
 462.323242188 767.100585938 462.6640625 769.591796875 462.6640625 772.162109375 c 0
 462.6640625 785.244140625 453.825195312 796.2578125 441.829101562 799.526367188 c 0
 439.47265625 800.16796875 436.994140625 800.510742188 434.4375 800.510742188 c 0
 431.9375 800.510742188 429.530273438 800.18359375 427.221679688 799.569335938 c 0
EndSplineSet
Validated: 524329
EndChar

StartChar: seven
Encoding: 55 55 48
Width: 665
VWidth: 824
Flags: W
HStem: 360.905 56.7236<45.7237 179.715 482.547 589.035>
VStem: 109.821 55.46<70.5876 169.143> 257.227 55.4619<569.92 667.658> 266 55.4697<-198.838 -103.966> 521.648 55.458<702.819 799.367>
LayerCount: 2
Fore
SplineSet
541.666015625 799.569335938 m 0xd8
 531.951171875 796.985351562 524.27734375 789.315429688 521.6484375 779.576171875 c 1
 521.654296875 779.58203125 423.981445312 417.62890625 423.981445312 417.62890625 c 1
 253.586914062 417.62890625 l 1
 311.708007812 633.020507812 l 2
 312.34765625 635.388671875 312.688476562 637.880859375 312.688476562 640.451171875 c 0
 312.688476562 653.533203125 303.850585938 664.547851562 291.854492188 667.81640625 c 0
 289.497070312 668.458007812 287.017578125 668.80078125 284.459960938 668.80078125 c 0
 271.440429688 668.80078125 260.479492188 659.919921875 257.2265625 647.866210938 c 1xe8
 257.21484375 647.87109375 195.098632812 417.62890625 195.098632812 417.62890625 c 1
 73.2275390625 417.62890625 l 2
 57.6494140625 417.62890625 45.0009765625 404.920898438 45 389.267578125 c 0
 45 373.614257812 57.6494140625 360.905273438 73.2275390625 360.905273438 c 1
 73.2255859375 360.90625 179.791992188 360.905273438 179.791992188 360.905273438 c 1
 110.801757812 105.22265625 l 2
 110.162109375 102.854492188 109.821289062 100.36328125 109.821289062 97.79296875 c 0
 109.821289062 84.7119140625 118.658203125 73.6982421875 130.65234375 70.4287109375 c 0
 133.009765625 69.7861328125 135.489257812 69.443359375 138.047851562 69.443359375 c 0
 151.067382812 69.443359375 162.028320312 78.3251953125 165.28125 90.37890625 c 1
 165.29296875 90.3740234375 238.28125 360.905273438 238.28125 360.905273438 c 1
 408.672851562 360.905273438 l 1
 266.979492188 -164.204101562 l 2
 266.340820312 -166.571289062 266 -169.061523438 266 -171.630859375 c 0
 266 -184.715820312 274.842773438 -195.731445312 286.84375 -198.997070312 c 0
 289.19921875 -199.639648438 291.677734375 -199.981445312 294.234375 -199.981445312 c 0
 307.255859375 -199.981445312 318.217773438 -191.09765625 321.469726562 -179.041992188 c 1
 321.48046875 -179.045898438 467.162109375 360.905273438 467.162109375 360.905273438 c 1
 589.03515625 360.905273438 l 2
 604.61328125 360.905273438 617.263671875 373.614257812 617.263671875 389.267578125 c 0
 617.262695312 404.920898438 604.61328125 417.62890625 589.03515625 417.62890625 c 1
 589.038085938 417.62890625 482.469726562 417.62890625 482.469726562 417.62890625 c 1
 576.125976562 764.732421875 l 2
 576.765625 767.1015625 577.106445312 769.592773438 577.106445312 772.163085938 c 0
 577.106445312 785.244140625 568.26953125 796.256835938 556.275390625 799.526367188 c 0
 553.918945312 800.168945312 551.440429688 800.510742188 548.8828125 800.510742188 c 0
 546.3828125 800.510742188 543.975585938 800.184570312 541.666015625 799.569335938 c 0xd8
EndSplineSet
Validated: 524329
EndChar

StartChar: eight
Encoding: 56 56 49
Width: 677
VWidth: 824
Flags: W
HStem: 360.905 56.7236<51.4131 78.915 534.341 594.725>
VStem: 43 55.4688<-27.1262 70.7556> 203.581 55.4609<-27.1263 70.7556> 216.77 55.4629<569.92 667.657> 317.835 55.46<-198.838 -103.966> 377.354 55.4619<569.92 667.657> 573.476 55.46<702.819 799.368>
LayerCount: 2
Fore
SplineSet
593.493164062 799.569335938 m 0xee
 583.778320312 796.985351562 576.104492188 789.315429688 573.475585938 779.576171875 c 1
 573.481445312 779.58203125 475.810546875 417.62890625 475.810546875 417.62890625 c 1
 373.71484375 417.62890625 l 1
 431.834960938 633.020507812 l 2
 432.474609375 635.389648438 432.815429688 637.880859375 432.815429688 640.452148438 c 0
 432.815429688 653.533203125 423.977539062 664.546875 411.982421875 667.81640625 c 0
 409.625 668.458984375 407.145507812 668.801757812 404.586914062 668.801757812 c 0
 391.567382812 668.801757812 380.606445312 659.919921875 377.353515625 647.866210938 c 1
 377.341796875 647.87109375 315.225585938 417.62890625 315.225585938 417.62890625 c 1
 213.1328125 417.62890625 l 1
 271.251953125 633.020507812 l 2
 271.890625 635.388671875 272.232421875 637.880859375 272.232421875 640.451171875 c 0
 272.232421875 653.533203125 263.39453125 664.546875 251.3984375 667.81640625 c 0
 249.041015625 668.458984375 246.561523438 668.801757812 244.002929688 668.801757812 c 0
 230.983398438 668.801757812 220.022460938 659.919921875 216.76953125 647.866210938 c 1xde
 216.7578125 647.87109375 154.645507812 417.62890625 154.645507812 417.62890625 c 1
 78.9150390625 417.62890625 l 2
 63.3369140625 417.62890625 50.6904296875 404.920898438 50.689453125 389.267578125 c 0
 50.689453125 373.615234375 63.3369140625 360.905273438 78.9150390625 360.905273438 c 1
 78.9150390625 360.90625 139.3359375 360.905273438 139.3359375 360.905273438 c 1
 43.9794921875 7.5087890625 l 2
 43.3408203125 5.140625 43 2.6494140625 43 0.0791015625 c 0
 43 -13.0029296875 51.837890625 -24.015625 63.8330078125 -27.28515625 c 0
 66.1923828125 -27.9287109375 68.673828125 -28.2724609375 71.2353515625 -28.2724609375 c 0
 84.2548828125 -28.2724609375 95.2158203125 -19.390625 98.46875 -7.3369140625 c 1
 98.48046875 -7.341796875 197.828125 360.905273438 197.828125 360.905273438 c 1
 299.921875 360.905273438 l 1
 204.560546875 7.5087890625 l 2
 203.921875 5.140625 203.581054688 2.6494140625 203.581054688 0.080078125 c 0
 203.581054688 -13.0029296875 212.419921875 -24.0166015625 224.416992188 -27.28515625 c 0
 226.7734375 -27.9267578125 229.251953125 -28.26953125 231.809570312 -28.26953125 c 0
 244.828125 -28.26953125 255.788085938 -19.3896484375 259.041992188 -7.3369140625 c 1
 259.053710938 -7.341796875 358.408203125 360.905273438 358.408203125 360.905273438 c 1
 460.506835938 360.905273438 l 1
 318.814453125 -164.204101562 l 2
 318.17578125 -166.572265625 317.834960938 -169.0625 317.834960938 -171.6328125 c 0
 317.834960938 -184.71484375 326.672851562 -195.728515625 338.668945312 -198.997070312 c 0
 341.025390625 -199.639648438 343.502929688 -199.981445312 346.060546875 -199.981445312 c 0
 359.081054688 -199.981445312 370.04296875 -191.09765625 373.294921875 -179.041992188 c 1
 373.306640625 -179.045898438 518.991210938 360.905273438 518.991210938 360.905273438 c 1
 594.724609375 360.905273438 l 2
 610.302734375 360.905273438 622.951171875 373.614257812 622.951171875 389.267578125 c 0
 622.950195312 404.920898438 610.302734375 417.62890625 594.724609375 417.62890625 c 1
 594.725585938 417.62890625 534.296875 417.62890625 534.296875 417.62890625 c 1
 627.956054688 764.732421875 l 2
 628.594726562 767.1015625 628.935546875 769.591796875 628.935546875 772.162109375 c 0
 628.935546875 785.244140625 620.09765625 796.2578125 608.102539062 799.526367188 c 0
 605.74609375 800.168945312 603.267578125 800.510742188 600.709960938 800.510742188 c 0
 598.208984375 800.510742188 595.801757812 800.184570312 593.493164062 799.569335938 c 0xee
EndSplineSet
Validated: 524329
EndChar

StartChar: nine
Encoding: 57 57 50
Width: 716
VWidth: 824
Flags: W
HStem: 697.588 56.7236<299.467 326.968 327.197 600.238>
LayerCount: 2
Fore
SplineSet
326.967773438 754.311523438 m 2
 311.390625 754.310546875 298.744140625 741.6015625 298.744140625 725.948242188 c 0
 298.744140625 710.295898438 311.390625 697.588867188 326.967773438 697.587890625 c 1
 600.23828125 697.587890625 l 1
 546.2578125 569.641601562 479.34765625 450.370117188 411.002929688 344.9453125 c 1
 301.412109375 470.36328125 l 2
 296.6171875 475.848632812 289.732421875 479.44921875 282.028320312 479.951171875 c 0
 281.4140625 479.991210938 280.794921875 480.01171875 280.169921875 480.01171875 c 0
 273.043945312 480.01171875 266.541992188 477.346679688 261.572265625 472.962890625 c 0
 255.6796875 467.762695312 251.95703125 460.137695312 251.95703125 451.646484375 c 0
 251.95703125 444.485351562 254.623046875 437.932617188 258.985351562 432.939453125 c 1
 258.966796875 432.948242188 378.533203125 296.126953125 378.533203125 296.126953125 c 1
 213.506835938 53.0546875 50.68359375 -104.955078125 50.68359375 -104.955078125 c 2
 45.3330078125 -110.118164062 42 -117.376953125 42 -125.413085938 c 0
 42 -133.028320312 45 -139.956054688 49.869140625 -145.052734375 c 0
 55.0068359375 -150.432617188 62.232421875 -153.783203125 70.2314453125 -153.783203125 c 0
 77.8095703125 -153.783203125 84.701171875 -150.76953125 89.7734375 -145.879882812 c 2
 89.7734375 -145.879882812 251.052734375 9.3505859375 417.4296875 251.614257812 c 1
 503.46484375 153.158203125 l 2
 508.639648438 147.236328125 516.228515625 143.49609375 524.6796875 143.49609375 c 0
 531.805664062 143.49609375 538.326171875 146.173828125 543.295898438 150.557617188 c 0
 549.189453125 155.756835938 552.912109375 163.3828125 552.912109375 171.875 c 0
 552.912109375 179.03515625 550.247070312 185.586914062 545.884765625 190.580078125 c 1
 545.903320312 190.572265625 450.109375 300.1875 450.109375 300.1875 c 1
 530.106445312 422.020507812 608.926757812 562.948242188 669.201171875 715.4765625 c 0
 670.479492188 718.711914062 671.182617188 722.239257812 671.182617188 725.930664062 c 0
 671.182617188 741.58203125 658.55078125 754.305664062 642.975585938 754.311523438 c 0
 642.96484375 754.294921875 326.967773438 754.311523438 326.967773438 754.311523438 c 2
EndSplineSet
Validated: 524329
EndChar

StartChar: question
Encoding: 63 63 51
Width: 588
VWidth: 824
Flags: W
HStem: 50.1328 56.7227<94.161 111.268> 710.181 56.7227<227.11 254.613>
VStem: 377.414 56.4287<106.959 250.045 250.801 278.446>
LayerCount: 2
Fore
SplineSet
254.61328125 766.903320312 m 2
 239.03515625 766.903320312 226.38671875 754.1953125 226.38671875 738.541992188 c 0
 226.38671875 722.888671875 239.03515625 710.180664062 254.61328125 710.180664062 c 1
 254.612304688 710.180664062 464.362304688 710.180664062 464.362304688 710.180664062 c 1
 122.53515625 345.95703125 l 1
 123.431640625 346.872070312 l 1
 63.8369140625 288.875976562 34.2275390625 221.466796875 30.2724609375 164.317382812 c 0
 28.2958984375 135.7421875 32.5126953125 109.194335938 45.751953125 87.4091796875 c 0
 58.9931640625 65.623046875 83.939453125 50.1328125 111.267578125 50.1328125 c 2
 410.211914062 50.1328125 l 2
 425.791015625 50.1337890625 438.439453125 62.8427734375 438.439453125 78.4970703125 c 0
 438.439453125 78.7548828125 438.435546875 78.9990234375 438.428710938 79.2548828125 c 0
 438.428710938 79.267578125 433.842773438 251.55859375 433.842773438 251.55859375 c 2
 433.436523438 266.856445312 420.94921875 279.149414062 405.627929688 279.149414062 c 0
 405.372070312 279.149414062 405.129882812 279.159179688 404.875 279.15234375 c 0
 389.651367188 278.743164062 377.416992188 266.196289062 377.416992188 250.80078125 c 0
 377.416992188 250.543945312 377.407226562 250.299804688 377.4140625 250.044921875 c 0
 377.426757812 250.032226562 381.223632812 106.85546875 381.223632812 106.85546875 c 1
 111.267578125 106.85546875 l 2
 101.944335938 106.85546875 98.7900390625 108.985351562 93.9345703125 116.974609375 c 0
 89.078125 124.963867188 85.2041015625 140.342773438 86.5908203125 160.387695312 c 0
 89.3662109375 200.478515625 112.303710938 257.077148438 162.704101562 306.125 c 0
 163.012695312 306.42578125 163.306640625 306.7265625 163.6015625 307.041015625 c 0
 163.607421875 307.047851562 550.317382812 719.087890625 550.317382812 719.087890625 c 2
 555.080078125 724.166992188 558 731.008789062 558 738.530273438 c 0
 558 754.182617188 545.356445312 766.8984375 529.78125 766.903320312 c 0
 529.78125 766.895507812 254.61328125 766.903320312 254.61328125 766.903320312 c 2
EndSplineSet
Validated: 524325
EndChar

StartChar: bracketleft
Encoding: 91 91 52
Width: 554
VWidth: 824
Flags: W
HStem: -197.373 56.7236<54.6401 68.8281 107.137 227.706> 743.809 56.7227<304.542 323.73 481.667 509.168>
LayerCount: 2
Fore
SplineSet
324.333984375 800.53125 m 1
 324.833984375 800.317382812 l 1
 324.326171875 800.287109375 323.791015625 800.3515625 323.370117188 800.301757812 c 0
 310.029296875 799.96875 298.9609375 790.293945312 296.40234375 777.561523438 c 1
 296.4140625 777.583007812 296.6015625 778.580078125 296.6015625 778.580078125 c 1
 42.912109375 -161.581054688 l 2
 42.7392578125 -162.22265625 42.583984375 -162.887695312 42.4560546875 -163.545898438 c 1
 42.458984375 -163.53125 42.4560546875 -163.552734375 42.4560546875 -163.552734375 c 2
 42.15625 -165.20703125 42 -166.912109375 42 -168.65234375 c 0
 42 -183.96484375 54.1181640625 -196.434570312 69.2265625 -196.974609375 c 0
 70.0419921875 -196.998046875 70.7900390625 -196.981445312 71.8212890625 -196.921875 c 1
 70.3720703125 -197.373046875 l 1
 227.706054688 -197.373046875 l 2
 243.284179688 -197.373046875 255.932617188 -184.6640625 255.932617188 -169.01171875 c 0
 255.932617188 -153.358398438 243.284179688 -140.649414062 227.706054688 -140.649414062 c 1
 227.70703125 -140.649414062 107.049804688 -140.649414062 107.049804688 -140.649414062 c 1
 345.701171875 743.80859375 l 1
 481.666992188 743.80859375 l 2
 497.245117188 743.80859375 509.891601562 756.516601562 509.891601562 772.169921875 c 0
 509.891601562 787.823242188 497.245117188 800.53125 481.666992188 800.53125 c 1
 324.333984375 800.53125 l 1
304.127929688 752.368164062 m 1
 309.157226562 747.3125 316.084960938 744.157226562 323.73046875 744.059570312 c 1
 319.09375 743.76953125 312.081054688 744.17578125 304.127929688 752.368164062 c 1
68.828125 -141.129882812 m 1
 63.5595703125 -141.286132812 58.6083984375 -142.9140625 54.4443359375 -145.590820312 c 1
 59.3701171875 -142.208984375 64.5556640625 -141.37109375 68.828125 -141.129882812 c 1
EndSplineSet
Validated: 524325
EndChar

StartChar: bracketright
Encoding: 93 93 53
Width: 555
VWidth: 824
Flags: W
HStem: -198.703 56.7236<228.14 247.36> 742.479 56.7227<296.684 324.187 483.086 497.246>
LayerCount: 2
Fore
SplineSet
324.186523438 799.201171875 m 2
 308.608398438 799.201171875 295.9609375 786.493164062 295.9609375 770.83984375 c 0
 295.9609375 755.186523438 308.608398438 742.478515625 324.186523438 742.478515625 c 1
 444.834960938 742.478515625 l 1
 206.176757812 -141.979492188 l 1
 70.2255859375 -141.979492188 l 2
 54.6474609375 -141.979492188 42 -154.688476562 42 -170.341796875 c 0
 42 -185.994140625 54.6474609375 -198.703125 70.2255859375 -198.703125 c 1
 70.224609375 -198.703125 227.55859375 -198.703125 227.55859375 -198.703125 c 1
 227.059570312 -198.489257812 l 1
 227.56640625 -198.458984375 228.1015625 -198.522460938 228.521484375 -198.473632812 c 0
 241.873046875 -198.137695312 252.946289062 -188.444335938 255.490234375 -175.696289062 c 1
 255.478515625 -175.717773438 255.291992188 -176.737304688 255.291992188 -176.737304688 c 1
 508.577148438 761.924804688 l 1
 508.01171875 760.484375 l 1
 509.190429688 763.608398438 509.8359375 766.994140625 509.8359375 770.530273438 c 0
 509.8359375 785.478515625 498.287109375 797.755859375 483.681640625 798.83203125 c 0
 482.694335938 798.891601562 481.513671875 798.83984375 480.087890625 798.7578125 c 1
 481.521484375 799.201171875 l 1
 324.186523438 799.201171875 l 2
497.44140625 747.426757812 m 1
 492.526367188 744.051757812 487.356445312 743.209960938 483.0859375 742.965820312 c 1
 488.34375 743.126953125 493.28515625 744.75390625 497.44140625 747.426757812 c 1
232.608398438 -142.171875 m 2
 237.010742188 -142.909179688 242.44140625 -145.057617188 247.7578125 -150.532226562 c 1
 242.724609375 -145.473632812 235.791992188 -142.317382812 228.139648438 -142.223632812 c 1
 229.6796875 -142.125976562 230.416015625 -141.8046875 232.608398438 -142.171875 c 2
EndSplineSet
Validated: 524325
EndChar

StartChar: braceleft
Encoding: 123 123 54
Width: 554
VWidth: 824
Flags: W
HStem: -197.374 56.7236<54.5561 68.7451 118.764 227.622> 198.977 55.7236<222.457 264.388> 341.588 55.7295<234.752 304.764> 743.808 56.7236<304.28 323.647 481.584 509.086>
VStem: 295.812 57.1328<548.973 743.808>
LayerCount: 2
Fore
SplineSet
324.250976562 800.53125 m 1
 324.75 800.31640625 l 1
 324.20703125 800.282226562 323.626953125 800.346679688 323.184570312 800.29296875 c 0
 311.609375 799.98046875 301.76171875 792.666992188 297.708007812 782.405273438 c 0
 296.485351562 779.231445312 295.814453125 775.783203125 295.814453125 772.178710938 c 0
 295.814453125 771.943359375 295.806640625 771.70703125 295.8125 771.473632812 c 1
 295.823242188 771.475585938 304.908203125 396.426757812 304.908203125 396.426757812 c 1
 300.6640625 397.004882812 296.153320312 397.317382812 291.3203125 397.317382812 c 0
 236.040039062 397.317382812 179.409179688 352.061523438 164.859375 298.145507812 c 0
 150.3125 244.23046875 182.521484375 198.9765625 237.801757812 198.9765625 c 0
 240.838867188 198.9765625 243.932617188 199.234375 247.056640625 199.65625 c 1
 45.556640625 -154.942382812 l 2
 44.8857421875 -156.123046875 44.2900390625 -157.372070312 43.791015625 -158.651367188 c 1
 43.7978515625 -158.635742188 43.791015625 -158.658203125 43.791015625 -158.658203125 c 2
 42.6328125 -161.756835938 42 -165.112304688 42 -168.615234375 c 0
 42 -183.932617188 54.1142578125 -196.443359375 69.2294921875 -196.975585938 c 0
 70.025390625 -196.994140625 70.7412109375 -196.9765625 71.7373046875 -196.921875 c 1
 70.2900390625 -197.374023438 l 1
 227.622070312 -197.374023438 l 2
 243.200195312 -197.374023438 255.848632812 -184.6640625 255.848632812 -169.010742188 c 0
 255.84765625 -153.358398438 243.19921875 -140.650390625 227.622070312 -140.650390625 c 1
 227.623046875 -140.650390625 118.684570312 -140.650390625 118.684570312 -140.650390625 c 1
 354.875 275.0078125 l 2
 360.967773438 284.186523438 364.442382812 292.353515625 364.254882812 298.147460938 c 0
 364.08984375 303.2734375 363.778320312 308.1796875 363.400390625 312.981445312 c 2
 352.9453125 743.807617188 l 1
 481.583984375 743.807617188 l 2
 497.162109375 743.807617188 509.809570312 756.517578125 509.809570312 772.169921875 c 0
 509.80859375 787.823242188 497.162109375 800.530273438 481.583984375 800.530273438 c 1
 324.250976562 800.53125 l 1
304.04296875 752.369140625 m 1
 309.073242188 747.313476562 316.000976562 744.157226562 323.647460938 744.059570312 c 1
 319.01171875 743.770507812 311.999023438 744.17578125 304.04296875 752.369140625 c 1
276.28125 341.587890625 m 0
 299.387695312 341.587890625 309.838867188 330.198242188 303.1328125 305.350585938 c 0
 296.428710938 280.501953125 275.940429688 254.700195312 252.8359375 254.700195312 c 0
 229.731445312 254.700195312 215.622070312 273.298828125 222.326171875 298.147460938 c 0
 229.030273438 322.995117188 253.176757812 341.587890625 276.28125 341.587890625 c 0
68.7451171875 -141.130859375 m 1
 63.4765625 -141.286132812 58.5244140625 -142.913085938 54.3603515625 -145.58984375 c 1
 59.2880859375 -142.206054688 64.4716796875 -141.37109375 68.7451171875 -141.130859375 c 1
EndSplineSet
Validated: 524325
EndChar

StartChar: braceright
Encoding: 125 125 55
Width: 554
VWidth: 824
Flags: W
HStem: -197.369 56.7236<42.7236 70.2256 228.162 247.528> 205.852 55.7139<247.045 317.056> 348.453 55.7393<287.421 329.353> 743.812 56.7227<324.188 433.046 483.064 497.253>
VStem: 198.863 57.1338<-140.646 54.1953>
LayerCount: 2
Fore
SplineSet
227.55859375 -197.377929688 m 1
 227.05859375 -197.162109375 l 1
 227.6015625 -197.124023438 228.182617188 -197.200195312 228.625 -197.124023438 c 0
 240.200195312 -196.811523438 250.047851562 -189.498046875 254.1015625 -179.236328125 c 0
 255.32421875 -176.063476562 255.995117188 -172.615234375 255.995117188 -169.010742188 c 0
 255.995117188 -168.775390625 256.002929688 -168.538085938 255.997070312 -168.3046875 c 1
 255.986328125 -168.307617188 246.901367188 206.7421875 246.901367188 206.7421875 c 1
 251.145507812 206.1640625 255.65625 205.8515625 260.487304688 205.8515625 c 0
 315.767578125 205.8515625 372.400390625 251.107421875 386.950195312 305.0234375 c 0
 401.497070312 358.938476562 369.288085938 404.192382812 314.0078125 404.192382812 c 0
 310.970703125 404.192382812 307.875976562 403.935546875 304.752929688 403.512695312 c 1
 506.252929688 758.111328125 l 2
 506.923828125 759.291992188 507.51953125 760.541015625 508.018554688 761.8203125 c 1
 509.176757812 764.918945312 509.810546875 768.274414062 509.810546875 771.77734375 c 0
 509.810546875 787.094726562 497.6953125 799.60546875 482.580078125 800.13671875 c 0
 481.784179688 800.174804688 481.06640625 800.13671875 480.072265625 800.083984375 c 1
 481.51953125 800.53515625 l 1
 324.1875 800.53515625 l 2
 308.609375 800.53515625 295.959960938 787.826171875 295.959960938 772.172851562 c 0
 295.959960938 756.520507812 308.610351562 743.8125 324.1875 743.8125 c 1
 324.185546875 743.8125 433.125 743.8125 433.125 743.8125 c 1
 196.935546875 328.154296875 l 2
 190.83984375 318.975585938 187.3671875 310.80859375 187.5546875 305.014648438 c 0
 187.719726562 299.887695312 188.030273438 294.981445312 188.409179688 290.180664062 c 2
 198.86328125 -140.645507812 l 1
 70.2255859375 -140.645507812 l 2
 54.6474609375 -140.645507812 42 -153.354492188 42 -169.0078125 c 0
 42.0009765625 -184.66015625 54.6474609375 -197.368164062 70.2255859375 -197.369140625 c 1
 227.55859375 -197.377929688 l 1
247.764648438 -149.215820312 m 1
 242.735351562 -144.16015625 235.807617188 -141.004882812 228.162109375 -140.90625 c 1
 232.797851562 -140.619140625 239.810546875 -141.0234375 247.764648438 -149.215820312 c 1
275.526367188 261.565429688 m 0
 252.421875 261.565429688 241.970703125 272.955078125 248.674804688 297.803710938 c 0
 255.380859375 322.651367188 275.869140625 348.453125 298.973632812 348.453125 c 0
 322.078125 348.453125 336.1875 329.854492188 329.483398438 305.006835938 c 0
 322.77734375 280.158203125 298.630859375 261.565429688 275.526367188 261.565429688 c 0
483.064453125 744.284179688 m 1
 488.333007812 744.439453125 493.28515625 746.06640625 497.44921875 748.744140625 c 1
 492.521484375 745.359375 487.337890625 744.524414062 483.064453125 744.284179688 c 1
EndSplineSet
Validated: 524325
EndChar

StartChar: glyph66
Encoding: 256 8557 56
Width: 598
VWidth: 1024
Flags: W
HStem: 267.305 56.7236<16.2439 43.7461> 408.995 56.7217<9.69596 37.1973 318.302 525.311> 616.596 56.7217<116.245 143.746 530.803 558.304>
VStem: 49.7881 53.9385<110.962 124.811> 173.663 53.9404<-194.102 -180.253> 343.508 55.4697<695.392 796.251>
LayerCount: 2
Fore
SplineSet
369.354492188 797.36328125 m 0
 356.958984375 796.747070312 346.639648438 788.071289062 343.5078125 776.454101562 c 1
 343.524414062 776.462890625 315.676757812 673.317382812 315.676757812 673.317382812 c 1
 143.74609375 673.317382812 l 2
 128.168945312 673.317382812 115.521484375 660.609375 115.521484375 644.956054688 c 0
 115.521484375 629.303710938 128.168945312 616.595703125 143.74609375 616.595703125 c 1
 300.372070312 616.595703125 l 1
 259.66015625 465.716796875 l 1
 37.197265625 465.716796875 l 2
 21.6201171875 465.716796875 8.97265625 453.008789062 8.97265625 437.35546875 c 0
 8.97265625 421.703125 21.6201171875 408.995117188 37.197265625 408.995117188 c 1
 525.310546875 408.995117188 l 2
 540.888671875 408.995117188 553.536132812 421.703125 553.537109375 437.35546875 c 0
 553.536132812 453.008789062 540.888671875 465.716796875 525.310546875 465.716796875 c 1
 525.311523438 465.716796875 318.151367188 465.716796875 318.151367188 465.716796875 c 1
 358.865234375 616.595703125 l 1
 530.802734375 616.595703125 l 2
 546.379882812 616.595703125 559.02734375 629.303710938 559.02734375 644.956054688 c 0
 559.02734375 660.609375 546.379882812 673.317382812 530.802734375 673.317382812 c 1
 374.169921875 673.317382812 l 1
 397.998046875 761.616210938 l 2
 398.63671875 763.983398438 398.977539062 766.473632812 398.977539062 769.043945312 c 0
 398.977539062 782.127929688 390.135742188 793.143554688 378.13671875 796.41015625 c 0
 375.779296875 797.051757812 373.30078125 797.39453125 370.7421875 797.39453125 c 0
 370.267578125 797.39453125 369.82421875 797.38671875 369.354492188 797.36328125 c 0
43.74609375 324.028320312 m 2
 28.1689453125 324.028320312 15.5205078125 311.3203125 15.5205078125 295.666992188 c 0
 15.5205078125 280.014648438 28.1689453125 267.3046875 43.74609375 267.3046875 c 1
 43.7451171875 267.305664062 376.694335938 267.3046875 376.694335938 267.3046875 c 1
 146.553710938 16.455078125 l 1
 103.7265625 110.961914062 l 2
 100.634765625 117.784179688 94.95703125 123.12890625 87.9287109375 125.770507812 c 0
 84.8515625 126.927734375 81.5205078125 127.561523438 78.0439453125 127.561523438 c 0
 73.884765625 127.561523438 69.8984375 126.650390625 66.341796875 125.024414062 c 0
 56.5810546875 120.55859375 49.7880859375 110.668945312 49.7880859375 99.197265625 c 0
 49.7880859375 95.013671875 50.73046875 91.0302734375 52.3525390625 87.453125 c 1
 52.314453125 87.4619140625 173.663085938 -180.252929688 173.663085938 -180.252929688 c 2
 178.106445312 -190.061523438 187.950195312 -196.887695312 199.366210938 -196.887695312 c 0
 203.52734375 -196.887695312 207.48828125 -195.942382812 211.045898438 -194.315429688 c 0
 220.809570312 -189.850585938 227.603515625 -179.959960938 227.603515625 -168.487304688 c 0
 227.603515625 -164.305664062 226.663085938 -160.325195312 225.04296875 -156.750976562 c 1
 225.081054688 -156.759765625 171.939453125 -39.5673828125 171.939453125 -39.5673828125 c 1
 461.862304688 276.448242188 l 2
 466.495117188 281.501953125 469.325195312 288.248046875 469.325195312 295.654296875 c 0
 469.325195312 311.303710938 456.686523438 324.020507812 441.11328125 324.028320312 c 0
 441.112304688 324.017578125 43.74609375 324.028320312 43.74609375 324.028320312 c 2
EndSplineSet
Validated: 524329
EndChar
